<?xml version="1.0" encoding="UTF-8" standalone="no"?>
<!-- Created with Inkscape (http://www.inkscape.org/) -->

<svg
   width="5.9463215mm"
   height="7.2104001mm"
   viewBox="0 0 5.9463215 7.2104001"
   version="1.1"
   id="svg1"
   inkscape:version="1.3 (0e150ed6c4, 2023-07-21)"
   sodipodi:docname="Tux.svg"
   xmlns:inkscape="http://www.inkscape.org/namespaces/inkscape"
   xmlns:sodipodi="http://sodipodi.sourceforge.net/DTD/sodipodi-0.dtd"
   xmlns="http://www.w3.org/2000/svg"
   xmlns:svg="http://www.w3.org/2000/svg">
  <sodipodi:namedview
     id="namedview1"
     pagecolor="#ffffff"
     bordercolor="#666666"
     borderopacity="1.0"
     inkscape:showpageshadow="2"
     inkscape:pageopacity="0.0"
     inkscape:pagecheckerboard="0"
     inkscape:deskcolor="#d1d1d1"
     inkscape:document-units="mm"
     inkscape:zoom="0.73139029"
     inkscape:cx="11.621702"
     inkscape:cy="12.988961"
     inkscape:window-width="1920"
     inkscape:window-height="1017"
     inkscape:window-x="-8"
     inkscape:window-y="-8"
     inkscape:window-maximized="1"
     inkscape:current-layer="layer1" />
  <defs
     id="defs1" />
  <g
     inkscape:label="Layer 1"
     inkscape:groupmode="layer"
     id="layer1"
     transform="translate(-102.12917,-144.99186)">
    <path
       style="fill:#e4161d;fill-opacity:1;stroke:none;stroke-width:0.0164043;stroke-opacity:1"
       d="m 106.32603,152.18828 c -0.16734,-0.0331 -0.34588,-0.17916 -0.41018,-0.33552 l -0.0304,-0.0738 -0.10196,-6e-5 c -0.0561,-3e-5 -0.18526,-0.0122 -0.28707,-0.027 -0.25905,-0.0378 -0.479,-0.0313 -0.79811,0.0236 l -0.26851,0.0462 -0.0436,0.0643 c -0.10545,0.15527 -0.27452,0.22913 -0.51877,0.22663 -0.18016,-0.002 -0.34237,-0.0435 -0.56281,-0.14448 -0.19556,-0.0896 -0.2868,-0.11383 -0.55512,-0.14741 -0.39528,-0.0495 -0.51338,-0.0908 -0.58409,-0.20454 -0.0494,-0.0794 -0.0482,-0.22933 0.003,-0.39786 0.0379,-0.12452 0.038,-0.12808 0.0134,-0.32179 -0.0464,-0.36495 0.0116,-0.47495 0.30956,-0.58687 0.15546,-0.0584 0.20415,-0.0914 0.26965,-0.18275 0.031,-0.0432 0.0795,-0.10445 0.10772,-0.13602 l 0.0514,-0.0574 0.009,-0.23786 c 0.007,-0.18202 0.0187,-0.27261 0.0501,-0.38585 0.1112,-0.40181 0.34332,-0.83718 0.67865,-1.27289 0.0703,-0.0913 0.1564,-0.20388 0.19141,-0.25019 0.0933,-0.12345 0.21687,-0.39112 0.25845,-0.56003 0.0389,-0.15812 0.0423,-0.25287 0.034,-0.94314 -0.005,-0.39228 0.0214,-0.56145 0.11853,-0.76594 0.10633,-0.22391 0.31753,-0.39893 0.56708,-0.46994 0.13967,-0.0397 0.38882,-0.0648 0.52494,-0.0528 0.46504,0.041 0.74322,0.27272 0.88441,0.73674 0.0557,0.183 0.0834,0.45696 0.0838,0.82757 3.8e-4,0.39567 0.0145,0.51558 0.0815,0.68911 0.0621,0.16095 0.16202,0.31289 0.41977,0.63812 0.11291,0.14247 0.25467,0.33287 0.31501,0.42309 0.20302,0.30355 0.35606,0.65418 0.41528,0.95145 0.0387,0.19436 0.0166,0.5845 -0.0414,0.73022 -0.007,0.017 0.009,0.0351 0.0507,0.0574 0.0814,0.0438 0.14076,0.13007 0.17643,0.25621 0.0162,0.0575 0.0434,0.1532 0.0603,0.21277 0.0222,0.0782 0.0542,0.13752 0.1148,0.21326 0.11829,0.14777 0.16259,0.24163 0.16259,0.34442 0,0.15585 -0.0682,0.22104 -0.4101,0.39214 -0.27028,0.13524 -0.31866,0.16958 -0.54135,0.38423 -0.21237,0.20471 -0.3524,0.29071 -0.53712,0.32985 -0.12223,0.0259 -0.16023,0.0269 -0.26086,0.007 z m 0.26417,-0.10649 c 0.16792,-0.0437 0.28294,-0.11807 0.48153,-0.31117 0.2221,-0.21597 0.25409,-0.2384 0.56454,-0.39592 0.24567,-0.12464 0.33273,-0.1897 0.35094,-0.26223 0.0146,-0.0582 -0.0339,-0.17171 -0.12239,-0.28654 -0.12051,-0.15631 -0.13527,-0.18651 -0.18542,-0.37946 -0.026,-0.10001 -0.0627,-0.20678 -0.0815,-0.23727 -0.0486,-0.0786 -0.13878,-0.12002 -0.26145,-0.12002 -0.0916,0 -0.1067,0.005 -0.1688,0.0584 -0.10399,0.089 -0.26134,0.1601 -0.37216,0.16811 -0.0774,0.006 -0.10766,-2e-4 -0.16286,-0.0312 -0.0871,-0.0489 -0.15931,-0.15867 -0.18437,-0.27999 -0.0109,-0.0527 -0.0247,-0.0958 -0.0307,-0.0958 -0.0307,0 -0.10325,0.0783 -0.14022,0.15129 -0.056,0.11042 -0.0832,0.25154 -0.10473,0.54291 -0.0114,0.1549 -0.0326,0.29772 -0.0583,0.3937 -0.12911,0.48184 -0.13857,0.52556 -0.13841,0.63976 2.8e-4,0.20524 0.11651,0.3766 0.29795,0.43926 0.10759,0.0372 0.19105,0.0388 0.31637,0.006 z m -2.4556,-0.10603 c 0.1127,-0.0485 0.19233,-0.13853 0.22653,-0.25617 0.0518,-0.17815 -0.005,-0.33069 -0.227,-0.61522 -0.24985,-0.31949 -0.28312,-0.36966 -0.40206,-0.60625 -0.18534,-0.3687 -0.32191,-0.53056 -0.48461,-0.57437 -0.1394,-0.0375 -0.2215,0.0116 -0.39062,0.23375 -0.0991,0.13023 -0.1768,0.18875 -0.30142,0.22711 -0.11016,0.0339 -0.22063,0.10125 -0.2533,0.15442 -0.0493,0.0802 -0.0546,0.15448 -0.0254,0.3559 l 0.0273,0.18841 -0.0442,0.16221 c -0.096,0.35252 -0.0321,0.41673 0.47481,0.47651 0.27943,0.0329 0.39306,0.0624 0.60005,0.15524 0.14746,0.0662 0.23538,0.0952 0.41831,0.13816 0.0803,0.0189 0.29824,-0.004 0.38167,-0.0397 z m 1.27517,-0.55782 c 0.12855,-0.0335 0.45522,-0.1828 0.52985,-0.24209 0.0553,-0.0439 0.11621,-0.29225 0.1358,-0.55353 0.0372,-0.49635 0.11437,-0.70397 0.29606,-0.79666 0.0353,-0.018 0.0636,-0.0445 0.0636,-0.0597 0,-0.0599 0.0676,-0.16608 0.12213,-0.19197 0.10586,-0.0502 0.2796,-0.0233 0.46842,0.0726 0.199,0.10108 0.28949,0.19883 0.27506,0.29715 -0.009,0.062 0.0445,0.0668 0.0599,0.005 0.0307,-0.12219 -0.0772,-0.26034 -0.29613,-0.37939 l -0.12838,-0.0698 -8.2e-4,-0.21802 c -9.8e-4,-0.26012 -0.024,-0.35893 -0.13868,-0.59531 -0.12139,-0.25022 -0.39434,-0.59706 -0.39434,-0.50112 0,0.009 0.0446,0.0658 0.099,0.12714 0.11961,0.13471 0.25047,0.38147 0.29533,0.55686 0.0193,0.0753 0.0322,0.18042 0.0322,0.26185 0,0.1328 -0.0245,0.2951 -0.0464,0.30764 -0.006,0.003 -0.0431,0.002 -0.0823,-0.004 l -0.0713,-0.0102 -0.0455,-0.18045 c -0.0512,-0.20327 -0.16359,-0.48974 -0.27314,-0.69645 -0.16492,-0.31117 -0.36939,-0.81175 -0.48273,-1.18184 -0.029,-0.0947 -0.0544,-0.17424 -0.0564,-0.17667 -0.002,-0.002 -0.0324,0.022 -0.0676,0.0543 -0.0352,0.0323 -0.10063,0.0749 -0.14548,0.0947 -0.0449,0.0198 -0.12606,0.0601 -0.18045,0.0896 -0.22332,0.12105 -0.30573,0.15472 -0.39948,0.16322 -0.13552,0.0123 -0.25247,-0.026 -0.36379,-0.11905 -0.0945,-0.079 -0.22159,-0.1716 -0.23553,-0.1716 -0.004,0 -0.0132,0.0425 -0.0194,0.0943 -0.0328,0.27479 -0.15128,0.61803 -0.40905,1.18528 -0.0867,0.19085 -0.17905,0.41102 -0.20517,0.48925 -0.059,0.17679 -0.11507,0.44864 -0.11507,0.55806 0,0.0454 -0.006,0.0866 -0.0143,0.0914 -0.0245,0.0152 -0.11375,-0.18999 -0.13439,-0.30908 -0.0421,-0.24296 0.01,-0.47214 0.19266,-0.85051 0.0687,-0.14225 0.12119,-0.26245 0.11653,-0.26711 -0.0113,-0.0113 -0.12077,0.17523 -0.22197,0.37812 -0.21371,0.4285 -0.25687,0.76589 -0.13169,1.02948 0.0697,0.14674 0.16466,0.2442 0.37243,0.38218 0.37224,0.2472 0.5683,0.47448 0.58823,0.68192 0.007,0.0731 0.003,0.0835 -0.0497,0.13646 -0.0385,0.0385 -0.0787,0.0607 -0.12278,0.0677 l -0.0655,0.0105 0.10023,0.13549 c 0.10595,0.14325 0.18905,0.20711 0.3521,0.27062 0.22304,0.0869 0.54182,0.1002 0.798,0.0334 z m 1.47688,-1.2971 c 0.0868,-0.0408 0.18513,-0.14293 0.19665,-0.20425 0.0154,-0.082 -0.0377,-0.14344 -0.1896,-0.21948 -0.21125,-0.10573 -0.35362,-0.0909 -0.38657,0.0404 -0.0196,0.0782 0.005,0.23303 0.048,0.30714 0.0743,0.12678 0.17478,0.14987 0.33149,0.0762 z m -1.72504,-2.64048 c 0.0553,-0.0289 0.17965,-0.0923 0.27637,-0.14088 0.20902,-0.10505 0.28006,-0.16336 0.31705,-0.26024 0.0261,-0.0684 0.026,-0.0752 -0.003,-0.13442 -0.035,-0.0714 -0.10298,-0.11429 -0.28198,-0.17783 -0.0663,-0.0236 -0.15735,-0.0654 -0.20221,-0.093 -0.0935,-0.0575 -0.25465,-0.11172 -0.33225,-0.11172 -0.0934,0 -0.2188,0.0481 -0.29991,0.11502 -0.0434,0.0358 -0.13659,0.11017 -0.20709,0.16524 -0.0705,0.0551 -0.13602,0.11732 -0.1456,0.13833 -0.0433,0.0949 0.032,0.21426 0.20486,0.32509 0.0469,0.0301 0.096,0.0676 0.10899,0.0834 0.0371,0.0451 0.15356,0.12021 0.21537,0.13903 0.0971,0.0296 0.2379,0.0102 0.34943,-0.048 z m -0.41737,-0.16954 c -0.0982,-0.0265 -0.1997,-0.0875 -0.3084,-0.18547 -0.0565,-0.0509 -0.0859,-0.0897 -0.082,-0.10801 0.005,-0.0228 0.0295,-0.008 0.12021,0.0702 0.15493,0.13421 0.26576,0.18557 0.4026,0.18655 0.14143,0.001 0.24502,-0.0358 0.48588,-0.1725 0.18381,-0.10436 0.26872,-0.13526 0.26872,-0.0978 0,0.0151 -0.18163,0.11879 -0.40943,0.23366 -0.1869,0.0943 -0.32266,0.1151 -0.47756,0.0733 z m -0.26996,-0.5674 c 0.005,-0.009 -0.005,-0.0434 -0.0237,-0.0776 -0.059,-0.11008 -0.0347,-0.31028 0.0411,-0.33939 0.0646,-0.0248 0.13677,0.0619 0.15293,0.18352 l 0.0105,0.0793 0.0718,-0.0315 0.0718,-0.0314 -0.008,-0.10198 c -0.0239,-0.29805 -0.24492,-0.46319 -0.40241,-0.3007 -0.10235,0.1056 -0.13703,0.32517 -0.079,0.49998 0.039,0.11746 0.0847,0.1731 0.12468,0.15173 0.0169,-0.009 0.035,-0.0234 0.0403,-0.032 z m 1.24395,-0.068 c 0.0783,-0.15656 0.0629,-0.37504 -0.0369,-0.52422 -0.0897,-0.13398 -0.23333,-0.19176 -0.36704,-0.14763 -0.1413,0.0466 -0.25719,0.23883 -0.25719,0.42655 v 0.0963 l 0.0767,0.0262 c 0.0422,0.0144 0.0791,0.0261 0.082,0.0261 0.003,0 0.005,-0.0314 0.006,-0.0697 4.3e-4,-0.0838 0.0499,-0.19976 0.0956,-0.22424 0.0544,-0.0291 0.11024,-0.0203 0.15496,0.0244 0.074,0.074 0.0887,0.25528 0.0295,0.36528 -0.0113,0.0211 -0.0182,0.0401 -0.0152,0.0422 0.0226,0.0162 0.14152,0.0556 0.16127,0.0534 0.0135,-0.001 0.0453,-0.0441 0.0706,-0.0946 z"
       id="path12"
       sodipodi:nodetypes="ssccsscsssssssssscsssssscsssssssssssssssssssssssssssssssssssssssssssssscssssssssssssssscsssssssscsssssssssssssssssssssssscsssssssssssssssssssssssssssssssssssscccssssssssscsssssssss" />
  </g>
</svg>
