M48
; DRILL file {KiCad 7.0.8} date Tue Feb 27 14:33:40 2024
; FORMAT={-:-/ absolute / inch / decimal}
; #@! TF.CreationDate,2024-02-27T14:33:40-06:00
; #@! TF.GenerationSoftware,Kicad,Pcbnew,7.0.8
; #@! TF.FileFunction,MixedPlating,1,2
FMAT,2
INCH
; #@! TA.AperFunction,Plated,PTH,ViaDrill
T1C0.0157
; #@! TA.AperFunction,Plated,PTH,ComponentDrill
T2C0.0236
; #@! TA.AperFunction,Plated,PTH,ComponentDrill
T3C0.0394
; #@! TA.AperFunction,NonPlated,NPTH,ComponentDrill
T4C0.0256
; #@! TA.AperFunction,NonPlated,NPTH,ComponentDrill
T5C0.0354
; #@! TA.AperFunction,NonPlated,NPTH,ComponentDrill
T6C0.0394
; #@! TA.AperFunction,NonPlated,NPTH,ComponentDrill
T7C0.0866
%
G90
G05
T1
X7.1693Y-3.3661
X7.1992Y-3.1267
X7.2165Y-4.0157
X7.2234Y-3.3043
X7.2265Y-3.2452
X7.2728Y-3.8778
X7.3386Y-3.5709
X7.3504Y-4.0
X7.3543Y-3.1732
X7.3622Y-3.3661
X7.3937Y-3.0669
X7.4409Y-3.7795
X7.4567Y-3.0118
X7.4567Y-3.5433
X7.4803Y-3.7795
X7.4803Y-4.1457
X7.5197Y-3.2677
X7.5394Y-3.4055
X7.5827Y-3.5433
X7.6575Y-2.9724
X7.6614Y-3.9764
X7.6929Y-3.2047
X7.6969Y-3.5433
X7.752Y-3.6693
X7.7598Y-3.5591
X7.7657Y-3.4843
X7.7756Y-3.2677
X7.811Y-3.0039
X7.8543Y-3.2598
X7.8733Y-3.4022
X7.8742Y-3.4417
X7.876Y-3.4843
X7.8935Y-3.5408
X7.9066Y-3.5779
X7.9331Y-2.9921
X7.9331Y-3.1102
X7.9369Y-3.5069
X7.993Y-3.5403
X7.9939Y-3.501
X8.0118Y-3.5827
X8.0205Y-3.7124
X8.0236Y-3.2717
X8.0906Y-3.0039
X8.0998Y-3.4398
X8.1005Y-3.5916
X8.1102Y-3.2559
X8.1102Y-3.365
X8.1708Y-3.5812
X8.1772Y-3.7441
X8.2537Y-3.5167
X8.2795Y-3.4252
X8.2959Y-3.3043
X8.3307Y-3.6201
T3
X7.0866Y-4.1575
X7.1866Y-4.1575
X7.2866Y-4.1575
X7.3866Y-4.1575
X8.6929Y-3.9163
X8.6929Y-4.0163
X8.6929Y-4.1163
X8.6949Y-3.0776
X8.6949Y-3.1776
X8.6949Y-3.2776
X8.6949Y-3.3776
X8.6949Y-3.4776
T4
X7.2436Y-3.1461
X7.2436Y-3.3736
T5
X7.5157Y-2.8386
X7.6339Y-2.8386
T6
X7.9646Y-4.0965
X8.2795Y-4.0965
T7
X7.1063Y-2.874
X7.1063Y-3.685
X8.6929Y-2.874
X8.6929Y-3.685
T2
G00X7.1156Y-3.0898
M15
G01X7.0842Y-3.0898
M16
G05
G00X7.1156Y-3.4299
M15
G01X7.0842Y-3.4299
M16
G05
G00X7.2849Y-3.0898
M15
G01X7.2416Y-3.0898
M16
G05
G00X7.2849Y-3.4299
M15
G01X7.2416Y-3.4299
M16
G05
T0
M30
