%TF.GenerationSoftware,KiCad,Pcbnew,7.0.8*%
%TF.CreationDate,2024-02-27T14:33:36-06:00*%
%TF.ProjectId,Rickus-CH32V003,5269636b-7573-42d4-9348-333256303033,rev?*%
%TF.SameCoordinates,Original*%
%TF.FileFunction,Legend,Top*%
%TF.FilePolarity,Positive*%
%FSLAX46Y46*%
G04 Gerber Fmt 4.6, Leading zero omitted, Abs format (unit mm)*
G04 Created by KiCad (PCBNEW 7.0.8) date 2024-02-27 14:33:36*
%MOMM*%
%LPD*%
G01*
G04 APERTURE LIST*
%ADD10C,0.150000*%
%ADD11C,0.000000*%
%ADD12C,0.100000*%
%ADD13C,0.120000*%
G04 APERTURE END LIST*
D10*
X215743922Y-76219819D02*
X216077255Y-77219819D01*
X216077255Y-77219819D02*
X216410588Y-76219819D01*
X217267731Y-77219819D02*
X216696303Y-77219819D01*
X216982017Y-77219819D02*
X216982017Y-76219819D01*
X216982017Y-76219819D02*
X216886779Y-76362676D01*
X216886779Y-76362676D02*
X216791541Y-76457914D01*
X216791541Y-76457914D02*
X216696303Y-76505533D01*
X203236779Y-98859819D02*
X203236779Y-97859819D01*
X204903445Y-98193152D02*
X204903445Y-98859819D01*
X204474874Y-98193152D02*
X204474874Y-98716961D01*
X204474874Y-98716961D02*
X204522493Y-98812200D01*
X204522493Y-98812200D02*
X204617731Y-98859819D01*
X204617731Y-98859819D02*
X204760588Y-98859819D01*
X204760588Y-98859819D02*
X204855826Y-98812200D01*
X204855826Y-98812200D02*
X204903445Y-98764580D01*
X205332017Y-98812200D02*
X205427255Y-98859819D01*
X205427255Y-98859819D02*
X205617731Y-98859819D01*
X205617731Y-98859819D02*
X205712969Y-98812200D01*
X205712969Y-98812200D02*
X205760588Y-98716961D01*
X205760588Y-98716961D02*
X205760588Y-98669342D01*
X205760588Y-98669342D02*
X205712969Y-98574104D01*
X205712969Y-98574104D02*
X205617731Y-98526485D01*
X205617731Y-98526485D02*
X205474874Y-98526485D01*
X205474874Y-98526485D02*
X205379636Y-98478866D01*
X205379636Y-98478866D02*
X205332017Y-98383628D01*
X205332017Y-98383628D02*
X205332017Y-98336009D01*
X205332017Y-98336009D02*
X205379636Y-98240771D01*
X205379636Y-98240771D02*
X205474874Y-98193152D01*
X205474874Y-98193152D02*
X205617731Y-98193152D01*
X205617731Y-98193152D02*
X205712969Y-98240771D01*
X206570112Y-98812200D02*
X206474874Y-98859819D01*
X206474874Y-98859819D02*
X206284398Y-98859819D01*
X206284398Y-98859819D02*
X206189160Y-98812200D01*
X206189160Y-98812200D02*
X206141541Y-98716961D01*
X206141541Y-98716961D02*
X206141541Y-98336009D01*
X206141541Y-98336009D02*
X206189160Y-98240771D01*
X206189160Y-98240771D02*
X206284398Y-98193152D01*
X206284398Y-98193152D02*
X206474874Y-98193152D01*
X206474874Y-98193152D02*
X206570112Y-98240771D01*
X206570112Y-98240771D02*
X206617731Y-98336009D01*
X206617731Y-98336009D02*
X206617731Y-98431247D01*
X206617731Y-98431247D02*
X206141541Y-98526485D01*
X207760589Y-98574104D02*
X208236779Y-98574104D01*
X207665351Y-98859819D02*
X207998684Y-97859819D01*
X207998684Y-97859819D02*
X208332017Y-98859819D01*
X208665351Y-98859819D02*
X208665351Y-98193152D01*
X208665351Y-98383628D02*
X208712970Y-98288390D01*
X208712970Y-98288390D02*
X208760589Y-98240771D01*
X208760589Y-98240771D02*
X208855827Y-98193152D01*
X208855827Y-98193152D02*
X208951065Y-98193152D01*
X209712970Y-98812200D02*
X209617732Y-98859819D01*
X209617732Y-98859819D02*
X209427256Y-98859819D01*
X209427256Y-98859819D02*
X209332018Y-98812200D01*
X209332018Y-98812200D02*
X209284399Y-98764580D01*
X209284399Y-98764580D02*
X209236780Y-98669342D01*
X209236780Y-98669342D02*
X209236780Y-98383628D01*
X209236780Y-98383628D02*
X209284399Y-98288390D01*
X209284399Y-98288390D02*
X209332018Y-98240771D01*
X209332018Y-98240771D02*
X209427256Y-98193152D01*
X209427256Y-98193152D02*
X209617732Y-98193152D01*
X209617732Y-98193152D02*
X209712970Y-98240771D01*
X210141542Y-98859819D02*
X210141542Y-97859819D01*
X210570113Y-98859819D02*
X210570113Y-98336009D01*
X210570113Y-98336009D02*
X210522494Y-98240771D01*
X210522494Y-98240771D02*
X210427256Y-98193152D01*
X210427256Y-98193152D02*
X210284399Y-98193152D01*
X210284399Y-98193152D02*
X210189161Y-98240771D01*
X210189161Y-98240771D02*
X210141542Y-98288390D01*
X203236779Y-100374580D02*
X203284398Y-100422200D01*
X203284398Y-100422200D02*
X203236779Y-100469819D01*
X203236779Y-100469819D02*
X203189160Y-100422200D01*
X203189160Y-100422200D02*
X203236779Y-100374580D01*
X203236779Y-100374580D02*
X203236779Y-100469819D01*
X203712969Y-100374580D02*
X203760588Y-100422200D01*
X203760588Y-100422200D02*
X203712969Y-100469819D01*
X203712969Y-100469819D02*
X203665350Y-100422200D01*
X203665350Y-100422200D02*
X203712969Y-100374580D01*
X203712969Y-100374580D02*
X203712969Y-100469819D01*
X204189159Y-100374580D02*
X204236778Y-100422200D01*
X204236778Y-100422200D02*
X204189159Y-100469819D01*
X204189159Y-100469819D02*
X204141540Y-100422200D01*
X204141540Y-100422200D02*
X204189159Y-100374580D01*
X204189159Y-100374580D02*
X204189159Y-100469819D01*
X204665349Y-100469819D02*
X204665349Y-99469819D01*
X204665349Y-99850771D02*
X204760587Y-99803152D01*
X204760587Y-99803152D02*
X204951063Y-99803152D01*
X204951063Y-99803152D02*
X205046301Y-99850771D01*
X205046301Y-99850771D02*
X205093920Y-99898390D01*
X205093920Y-99898390D02*
X205141539Y-99993628D01*
X205141539Y-99993628D02*
X205141539Y-100279342D01*
X205141539Y-100279342D02*
X205093920Y-100374580D01*
X205093920Y-100374580D02*
X205046301Y-100422200D01*
X205046301Y-100422200D02*
X204951063Y-100469819D01*
X204951063Y-100469819D02*
X204760587Y-100469819D01*
X204760587Y-100469819D02*
X204665349Y-100422200D01*
X205427254Y-99803152D02*
X205808206Y-99803152D01*
X205570111Y-99469819D02*
X205570111Y-100326961D01*
X205570111Y-100326961D02*
X205617730Y-100422200D01*
X205617730Y-100422200D02*
X205712968Y-100469819D01*
X205712968Y-100469819D02*
X205808206Y-100469819D01*
X206046302Y-99803152D02*
X206284397Y-100469819D01*
X206522492Y-99803152D02*
X206284397Y-100469819D01*
X206284397Y-100469819D02*
X206189159Y-100707914D01*
X206189159Y-100707914D02*
X206141540Y-100755533D01*
X206141540Y-100755533D02*
X206046302Y-100803152D01*
D11*
G36*
X211343196Y-75403662D02*
G01*
X211369989Y-75405485D01*
X211455007Y-75415417D01*
X211535718Y-75429881D01*
X211612195Y-75448936D01*
X211684512Y-75472645D01*
X211752742Y-75501066D01*
X211785347Y-75517064D01*
X211816957Y-75534263D01*
X211847583Y-75552670D01*
X211877231Y-75572294D01*
X211905913Y-75593143D01*
X211933637Y-75615223D01*
X211960412Y-75638542D01*
X211986248Y-75663108D01*
X212011153Y-75688929D01*
X212035136Y-75716011D01*
X212058208Y-75744364D01*
X212080376Y-75773994D01*
X212122040Y-75837117D01*
X212160200Y-75905440D01*
X212194931Y-75979025D01*
X212226306Y-76057933D01*
X212254396Y-76142225D01*
X212264512Y-76177604D01*
X212273973Y-76215124D01*
X212282779Y-76254792D01*
X212290933Y-76296618D01*
X212298433Y-76340608D01*
X212305283Y-76386772D01*
X212317033Y-76485654D01*
X212326191Y-76593332D01*
X212332766Y-76709870D01*
X212336765Y-76835338D01*
X212338197Y-76969801D01*
X212339061Y-77105895D01*
X212341671Y-77219997D01*
X212346487Y-77315965D01*
X212353966Y-77397661D01*
X212358848Y-77434362D01*
X212364568Y-77468944D01*
X212371183Y-77501886D01*
X212378751Y-77533674D01*
X212387329Y-77564788D01*
X212396974Y-77595712D01*
X212419695Y-77658918D01*
X212431811Y-77689035D01*
X212444990Y-77719208D01*
X212459407Y-77749704D01*
X212475237Y-77780790D01*
X212492657Y-77812734D01*
X212511842Y-77845801D01*
X212532968Y-77880259D01*
X212556211Y-77916376D01*
X212581747Y-77954417D01*
X212609751Y-77994651D01*
X212640400Y-78037344D01*
X212673869Y-78082763D01*
X212749971Y-78182847D01*
X212839464Y-78297041D01*
X212927832Y-78410566D01*
X213016681Y-78528181D01*
X213095675Y-78635999D01*
X213128245Y-78681895D01*
X213154474Y-78720136D01*
X213191943Y-78777578D01*
X213228177Y-78835976D01*
X213263111Y-78895183D01*
X213296681Y-78955053D01*
X213328823Y-79015438D01*
X213359473Y-79076191D01*
X213388565Y-79137164D01*
X213416037Y-79198211D01*
X213441824Y-79259185D01*
X213465862Y-79319938D01*
X213488086Y-79380323D01*
X213508432Y-79440193D01*
X213526837Y-79499402D01*
X213543235Y-79557801D01*
X213557563Y-79615244D01*
X213569757Y-79671583D01*
X213576306Y-79710213D01*
X213581467Y-79752787D01*
X213585276Y-79798660D01*
X213587770Y-79847187D01*
X213588984Y-79897722D01*
X213588957Y-79949623D01*
X213585319Y-80054937D01*
X213581782Y-80107061D01*
X213577149Y-80157971D01*
X213571456Y-80207021D01*
X213564738Y-80253566D01*
X213557033Y-80296962D01*
X213548378Y-80336565D01*
X213538808Y-80371728D01*
X213528360Y-80401807D01*
X213527771Y-80403404D01*
X213527317Y-80405008D01*
X213526999Y-80406620D01*
X213526817Y-80408239D01*
X213526772Y-80409868D01*
X213526865Y-80411505D01*
X213527095Y-80413153D01*
X213527463Y-80414811D01*
X213527971Y-80416480D01*
X213528617Y-80418160D01*
X213529403Y-80419853D01*
X213530329Y-80421558D01*
X213531396Y-80423277D01*
X213532605Y-80425009D01*
X213533955Y-80426756D01*
X213535447Y-80428518D01*
X213537082Y-80430295D01*
X213538859Y-80432089D01*
X213540781Y-80433899D01*
X213542847Y-80435727D01*
X213545057Y-80437572D01*
X213547413Y-80439436D01*
X213549914Y-80441318D01*
X213552561Y-80443221D01*
X213558296Y-80447086D01*
X213564621Y-80451037D01*
X213571540Y-80455077D01*
X213579057Y-80459211D01*
X213594061Y-80467919D01*
X213608545Y-80477619D01*
X213622509Y-80488307D01*
X213635949Y-80499980D01*
X213648862Y-80512632D01*
X213661247Y-80526262D01*
X213673101Y-80540863D01*
X213684421Y-80556434D01*
X213695206Y-80572970D01*
X213705452Y-80590467D01*
X213715157Y-80608922D01*
X213724319Y-80628330D01*
X213732936Y-80648687D01*
X213741004Y-80669991D01*
X213748522Y-80692237D01*
X213755487Y-80715421D01*
X213815790Y-80928190D01*
X213820072Y-80942640D01*
X213824611Y-80956699D01*
X213829435Y-80970420D01*
X213834572Y-80983853D01*
X213840048Y-80997050D01*
X213845891Y-81010064D01*
X213852129Y-81022945D01*
X213858790Y-81035745D01*
X213865901Y-81048517D01*
X213873489Y-81061311D01*
X213881582Y-81074179D01*
X213890208Y-81087174D01*
X213899394Y-81100346D01*
X213909168Y-81113748D01*
X213919557Y-81127431D01*
X213930589Y-81141447D01*
X213951909Y-81168536D01*
X213971539Y-81194455D01*
X213989521Y-81219294D01*
X214005899Y-81243145D01*
X214020717Y-81266102D01*
X214034018Y-81288255D01*
X214045846Y-81309697D01*
X214056244Y-81330520D01*
X214065256Y-81350816D01*
X214072926Y-81370678D01*
X214079295Y-81390196D01*
X214084410Y-81409464D01*
X214088312Y-81428573D01*
X214091045Y-81447615D01*
X214092653Y-81466683D01*
X214093179Y-81485868D01*
X214092973Y-81500220D01*
X214092330Y-81514076D01*
X214091212Y-81527473D01*
X214089581Y-81540447D01*
X214087400Y-81553033D01*
X214084632Y-81565269D01*
X214081238Y-81577189D01*
X214077181Y-81588829D01*
X214072423Y-81600227D01*
X214066928Y-81611417D01*
X214060656Y-81622436D01*
X214053571Y-81633319D01*
X214045634Y-81644103D01*
X214036809Y-81654824D01*
X214027057Y-81665517D01*
X214016342Y-81676220D01*
X214004624Y-81686966D01*
X213991868Y-81697794D01*
X213978034Y-81708738D01*
X213963086Y-81719835D01*
X213946986Y-81731120D01*
X213929696Y-81742630D01*
X213891396Y-81766468D01*
X213847885Y-81791636D01*
X213798862Y-81818423D01*
X213744026Y-81847116D01*
X213683076Y-81878004D01*
X213591350Y-81924538D01*
X213515783Y-81964909D01*
X213482608Y-81983813D01*
X213451733Y-82002412D01*
X213422576Y-82021118D01*
X213394557Y-82040342D01*
X213367095Y-82060497D01*
X213339611Y-82081994D01*
X213311523Y-82105246D01*
X213282253Y-82130663D01*
X213217838Y-82189645D01*
X213141725Y-82262235D01*
X213102725Y-82299245D01*
X213065248Y-82333578D01*
X213029124Y-82365339D01*
X212994182Y-82394633D01*
X212960249Y-82421566D01*
X212927155Y-82446243D01*
X212894727Y-82468769D01*
X212862795Y-82489250D01*
X212831188Y-82507790D01*
X212799733Y-82524495D01*
X212768259Y-82539471D01*
X212736595Y-82552821D01*
X212704569Y-82564653D01*
X212672010Y-82575071D01*
X212638747Y-82584179D01*
X212604608Y-82592084D01*
X212562433Y-82600636D01*
X212543769Y-82604051D01*
X212526434Y-82606901D01*
X212510212Y-82609191D01*
X212494889Y-82610926D01*
X212480249Y-82612113D01*
X212466077Y-82612758D01*
X212452159Y-82612866D01*
X212438279Y-82612444D01*
X212424222Y-82611496D01*
X212409772Y-82610030D01*
X212394716Y-82608050D01*
X212378837Y-82605562D01*
X212343752Y-82599088D01*
X212343729Y-82598905D01*
X212312251Y-82591401D01*
X212280695Y-82581399D01*
X212249244Y-82569051D01*
X212218083Y-82554507D01*
X212187393Y-82537916D01*
X212157360Y-82519429D01*
X212128167Y-82499198D01*
X212099998Y-82477371D01*
X212073036Y-82454099D01*
X212047466Y-82429534D01*
X212023471Y-82403824D01*
X212001234Y-82377121D01*
X211980940Y-82349574D01*
X211962772Y-82321335D01*
X211946914Y-82292553D01*
X211933549Y-82263380D01*
X211903146Y-82189573D01*
X211801187Y-82189512D01*
X211776921Y-82188950D01*
X211746983Y-82187361D01*
X211712549Y-82184856D01*
X211674795Y-82181549D01*
X211634898Y-82177549D01*
X211594035Y-82172970D01*
X211553382Y-82167923D01*
X211514116Y-82162519D01*
X211418536Y-82150430D01*
X211371614Y-82145958D01*
X211325000Y-82142542D01*
X211278494Y-82140188D01*
X211231891Y-82138902D01*
X211184989Y-82138691D01*
X211137585Y-82139560D01*
X211089478Y-82141516D01*
X211040464Y-82144563D01*
X210990342Y-82148709D01*
X210938908Y-82153960D01*
X210831295Y-82167797D01*
X210716005Y-82186124D01*
X210447496Y-82232328D01*
X210403894Y-82296629D01*
X210393821Y-82310947D01*
X210383373Y-82324789D01*
X210372548Y-82338157D01*
X210361344Y-82351049D01*
X210349759Y-82363469D01*
X210337791Y-82375416D01*
X210325437Y-82386891D01*
X210312696Y-82397896D01*
X210299564Y-82408432D01*
X210286042Y-82418498D01*
X210272125Y-82428097D01*
X210257812Y-82437229D01*
X210243101Y-82445895D01*
X210227989Y-82454096D01*
X210212476Y-82461833D01*
X210196558Y-82469106D01*
X210180233Y-82475918D01*
X210163499Y-82482268D01*
X210146355Y-82488158D01*
X210128797Y-82493588D01*
X210092435Y-82503074D01*
X210054396Y-82510733D01*
X210014662Y-82516573D01*
X209973217Y-82520601D01*
X209930044Y-82522825D01*
X209885126Y-82523252D01*
X209851537Y-82522409D01*
X209818258Y-82520612D01*
X209785177Y-82517829D01*
X209752181Y-82514034D01*
X209719160Y-82509195D01*
X209686001Y-82503284D01*
X209652593Y-82496271D01*
X209618826Y-82488128D01*
X209584586Y-82478825D01*
X209549762Y-82468333D01*
X209514243Y-82456622D01*
X209477917Y-82443663D01*
X209440673Y-82429428D01*
X209402398Y-82413886D01*
X209362982Y-82397009D01*
X209322313Y-82378767D01*
X209253319Y-82348085D01*
X209221460Y-82334769D01*
X209190808Y-82322656D01*
X209160952Y-82311638D01*
X209131481Y-82301604D01*
X209101981Y-82292446D01*
X209072040Y-82284053D01*
X209041247Y-82276317D01*
X209009189Y-82269128D01*
X208975453Y-82262377D01*
X208939628Y-82255954D01*
X208860061Y-82243653D01*
X208767191Y-82231351D01*
X208631505Y-82213016D01*
X208572565Y-82203841D01*
X208519111Y-82194503D01*
X208470808Y-82184886D01*
X208427318Y-82174869D01*
X208388305Y-82164337D01*
X208353431Y-82153169D01*
X208322362Y-82141249D01*
X208294759Y-82128458D01*
X208270287Y-82114677D01*
X208248608Y-82099790D01*
X208229387Y-82083678D01*
X208212286Y-82066222D01*
X208196969Y-82047304D01*
X208183099Y-82026807D01*
X208174430Y-82011105D01*
X208166945Y-81993826D01*
X208160644Y-81975046D01*
X208155527Y-81954842D01*
X208151592Y-81933290D01*
X208148839Y-81910465D01*
X208147266Y-81886443D01*
X208147024Y-81870956D01*
X208239926Y-81870956D01*
X208240764Y-81891526D01*
X208243007Y-81910874D01*
X208246704Y-81929053D01*
X208251909Y-81946114D01*
X208258672Y-81962109D01*
X208267047Y-81977091D01*
X208277084Y-81991112D01*
X208288835Y-82004222D01*
X208302353Y-82016476D01*
X208317689Y-82027923D01*
X208334895Y-82038617D01*
X208354023Y-82048609D01*
X208375124Y-82057951D01*
X208398251Y-82066696D01*
X208423456Y-82074895D01*
X208450789Y-82082600D01*
X208480304Y-82089863D01*
X208512051Y-82096737D01*
X208582452Y-82109522D01*
X208662406Y-82121373D01*
X208752328Y-82132703D01*
X208849848Y-82145011D01*
X208934861Y-82157782D01*
X209010405Y-82171798D01*
X209045575Y-82179518D01*
X209079517Y-82187843D01*
X209112610Y-82196870D01*
X209145233Y-82206698D01*
X209177767Y-82217423D01*
X209210591Y-82229145D01*
X209278628Y-82255967D01*
X209352380Y-82287946D01*
X209405189Y-82311125D01*
X209454227Y-82331417D01*
X209501306Y-82349422D01*
X209548236Y-82365737D01*
X209596828Y-82380964D01*
X209648894Y-82395700D01*
X209706245Y-82410546D01*
X209770692Y-82426099D01*
X209787295Y-82429161D01*
X209806725Y-82431286D01*
X209828584Y-82432515D01*
X209852472Y-82432893D01*
X209877992Y-82432460D01*
X209904745Y-82431260D01*
X209932332Y-82429334D01*
X209960353Y-82426727D01*
X209988412Y-82423479D01*
X210016109Y-82419634D01*
X210043044Y-82415234D01*
X210068821Y-82410322D01*
X210093040Y-82404939D01*
X210115301Y-82399129D01*
X210135208Y-82392934D01*
X210152361Y-82386396D01*
X210152300Y-82386381D01*
X210173040Y-82376805D01*
X210192988Y-82366276D01*
X210212124Y-82354814D01*
X210230431Y-82342439D01*
X210247891Y-82329172D01*
X210264484Y-82315034D01*
X210280194Y-82300045D01*
X210295003Y-82284225D01*
X210308891Y-82267595D01*
X210321841Y-82250175D01*
X210333835Y-82231986D01*
X210344855Y-82213048D01*
X210354883Y-82193381D01*
X210363900Y-82173007D01*
X210371889Y-82151945D01*
X210378831Y-82130216D01*
X210387258Y-82097075D01*
X210393056Y-82064304D01*
X210394944Y-82047984D01*
X210395019Y-82046964D01*
X211993593Y-82046964D01*
X211994992Y-82085032D01*
X211999034Y-82122197D01*
X212005646Y-82158348D01*
X212014751Y-82193375D01*
X212026277Y-82227171D01*
X212040149Y-82259623D01*
X212056293Y-82290624D01*
X212074633Y-82320064D01*
X212095097Y-82347833D01*
X212117609Y-82373821D01*
X212142096Y-82397919D01*
X212168483Y-82420017D01*
X212196695Y-82440005D01*
X212226659Y-82457775D01*
X212258300Y-82473216D01*
X212291544Y-82486219D01*
X212311450Y-82492777D01*
X212330887Y-82498503D01*
X212349953Y-82503398D01*
X212368742Y-82507464D01*
X212387353Y-82510702D01*
X212405882Y-82513115D01*
X212424425Y-82514703D01*
X212443079Y-82515470D01*
X212461940Y-82515416D01*
X212481107Y-82514544D01*
X212500674Y-82512855D01*
X212520739Y-82510350D01*
X212541399Y-82507032D01*
X212562750Y-82502903D01*
X212584889Y-82497963D01*
X212607912Y-82492216D01*
X212607896Y-82492414D01*
X212638795Y-82483839D01*
X212668654Y-82474416D01*
X212697673Y-82464017D01*
X212726052Y-82452512D01*
X212753990Y-82439771D01*
X212781688Y-82425668D01*
X212809346Y-82410071D01*
X212837163Y-82392852D01*
X212865339Y-82373883D01*
X212894074Y-82353034D01*
X212923569Y-82330176D01*
X212954023Y-82305181D01*
X212985635Y-82277919D01*
X213018607Y-82248261D01*
X213053137Y-82216078D01*
X213089426Y-82181242D01*
X213164717Y-82108682D01*
X213197395Y-82078003D01*
X213227676Y-82050416D01*
X213256247Y-82025440D01*
X213283795Y-82002593D01*
X213311005Y-81981393D01*
X213338564Y-81961361D01*
X213367158Y-81942013D01*
X213397474Y-81922868D01*
X213430198Y-81903446D01*
X213466016Y-81883265D01*
X213505616Y-81861844D01*
X213549682Y-81838700D01*
X213653963Y-81785322D01*
X213738829Y-81741245D01*
X213809877Y-81701968D01*
X213840549Y-81683884D01*
X213868160Y-81666704D01*
X213892844Y-81650332D01*
X213914730Y-81634668D01*
X213933950Y-81619615D01*
X213950637Y-81605073D01*
X213964920Y-81590946D01*
X213976933Y-81577135D01*
X213986806Y-81563542D01*
X213994670Y-81550067D01*
X214000657Y-81536614D01*
X214004900Y-81523084D01*
X214006084Y-81517468D01*
X214006904Y-81511537D01*
X214007362Y-81505302D01*
X214007463Y-81498773D01*
X214006611Y-81484870D01*
X214004381Y-81469909D01*
X214000808Y-81453967D01*
X213995925Y-81437124D01*
X213989766Y-81419460D01*
X213982365Y-81401052D01*
X213973756Y-81381981D01*
X213963973Y-81362325D01*
X213953049Y-81342163D01*
X213941019Y-81321575D01*
X213927916Y-81300640D01*
X213913774Y-81279436D01*
X213898627Y-81258043D01*
X213882509Y-81236539D01*
X213842000Y-81183270D01*
X213824946Y-81160011D01*
X213809751Y-81138439D01*
X213796207Y-81118130D01*
X213784107Y-81098661D01*
X213773246Y-81079609D01*
X213763416Y-81060550D01*
X213754410Y-81041063D01*
X213746022Y-81020722D01*
X213738046Y-80999107D01*
X213730273Y-80975792D01*
X213722498Y-80950356D01*
X213714514Y-80922374D01*
X213697092Y-80857084D01*
X213686896Y-80819426D01*
X213676032Y-80782107D01*
X213664836Y-80746099D01*
X213653642Y-80712377D01*
X213642786Y-80681914D01*
X213632603Y-80655682D01*
X213623427Y-80634656D01*
X213619322Y-80626400D01*
X213615594Y-80619810D01*
X213610917Y-80612550D01*
X213605997Y-80605509D01*
X213600837Y-80598688D01*
X213595438Y-80592086D01*
X213589803Y-80585706D01*
X213583932Y-80579547D01*
X213577827Y-80573610D01*
X213571491Y-80567897D01*
X213564924Y-80562408D01*
X213558128Y-80557144D01*
X213551106Y-80552105D01*
X213543858Y-80547293D01*
X213536386Y-80542707D01*
X213528693Y-80538350D01*
X213520779Y-80534222D01*
X213512646Y-80530323D01*
X213504297Y-80526654D01*
X213495732Y-80523216D01*
X213486953Y-80520010D01*
X213477963Y-80517037D01*
X213468762Y-80514297D01*
X213459352Y-80511791D01*
X213439913Y-80507485D01*
X213419659Y-80504125D01*
X213398604Y-80501718D01*
X213376761Y-80500268D01*
X213354143Y-80499784D01*
X213323138Y-80500103D01*
X213309873Y-80500598D01*
X213297858Y-80501400D01*
X213286912Y-80502574D01*
X213276855Y-80504183D01*
X213267505Y-80506291D01*
X213258682Y-80508960D01*
X213250204Y-80512256D01*
X213241891Y-80516240D01*
X213233562Y-80520977D01*
X213225036Y-80526531D01*
X213216132Y-80532964D01*
X213206669Y-80540341D01*
X213196466Y-80548725D01*
X213185342Y-80558179D01*
X213165244Y-80574647D01*
X213144041Y-80590628D01*
X213121879Y-80606057D01*
X213098907Y-80620868D01*
X213075268Y-80634995D01*
X213051111Y-80648370D01*
X213026581Y-80660929D01*
X213001825Y-80672605D01*
X212976988Y-80683332D01*
X212952218Y-80693043D01*
X212927660Y-80701673D01*
X212903462Y-80709156D01*
X212879768Y-80715424D01*
X212856725Y-80720413D01*
X212834481Y-80724055D01*
X212813181Y-80726286D01*
X212799203Y-80727264D01*
X212786224Y-80727938D01*
X212774140Y-80728290D01*
X212762843Y-80728300D01*
X212752229Y-80727951D01*
X212742192Y-80727223D01*
X212732626Y-80726099D01*
X212723426Y-80724559D01*
X212714487Y-80722586D01*
X212705701Y-80720161D01*
X212696965Y-80717266D01*
X212688172Y-80713881D01*
X212679217Y-80709988D01*
X212669995Y-80705570D01*
X212660399Y-80700607D01*
X212650323Y-80695081D01*
X212642203Y-80690320D01*
X212634175Y-80685210D01*
X212626246Y-80679763D01*
X212618423Y-80673985D01*
X212603114Y-80661478D01*
X212588296Y-80647761D01*
X212574015Y-80632907D01*
X212560320Y-80616987D01*
X212547258Y-80600074D01*
X212534875Y-80582241D01*
X212523219Y-80563559D01*
X212512337Y-80544100D01*
X212502276Y-80523938D01*
X212493085Y-80503145D01*
X212484809Y-80481791D01*
X212477497Y-80459951D01*
X212471195Y-80437696D01*
X212465952Y-80415098D01*
X212461748Y-80395850D01*
X212457399Y-80377895D01*
X212453030Y-80361627D01*
X212448764Y-80347436D01*
X212444729Y-80335717D01*
X212442836Y-80330906D01*
X212441048Y-80326860D01*
X212439379Y-80323627D01*
X212437847Y-80321258D01*
X212436465Y-80319800D01*
X212435836Y-80319428D01*
X212435251Y-80319303D01*
X212432252Y-80319530D01*
X212429023Y-80320200D01*
X212425577Y-80321299D01*
X212421928Y-80322810D01*
X212418090Y-80324719D01*
X212414079Y-80327010D01*
X212409907Y-80329667D01*
X212405589Y-80332677D01*
X212396572Y-80339690D01*
X212387141Y-80347925D01*
X212377410Y-80357261D01*
X212367492Y-80367574D01*
X212357501Y-80378743D01*
X212347549Y-80390645D01*
X212337751Y-80403158D01*
X212328220Y-80416159D01*
X212319069Y-80429525D01*
X212310411Y-80443135D01*
X212302360Y-80456865D01*
X212295030Y-80470594D01*
X212284862Y-80491685D01*
X212275335Y-80513672D01*
X212266415Y-80536729D01*
X212258069Y-80561030D01*
X212250262Y-80586752D01*
X212242961Y-80614069D01*
X212236131Y-80643157D01*
X212229740Y-80674190D01*
X212223752Y-80707344D01*
X212218134Y-80742793D01*
X212212853Y-80780713D01*
X212207873Y-80821279D01*
X212203163Y-80864666D01*
X212198686Y-80911048D01*
X212190302Y-81013502D01*
X212185578Y-81070957D01*
X212179998Y-81126871D01*
X212173622Y-81180837D01*
X212166515Y-81232448D01*
X212158737Y-81281298D01*
X212150352Y-81326979D01*
X212141420Y-81369085D01*
X212132005Y-81407209D01*
X212055887Y-81694389D01*
X212031430Y-81791268D01*
X212014322Y-81864954D01*
X212003274Y-81921406D01*
X211996996Y-81966585D01*
X211994199Y-82006451D01*
X211993593Y-82046964D01*
X210395019Y-82046964D01*
X210396144Y-82031670D01*
X210396645Y-82015334D01*
X210396437Y-81998945D01*
X210395509Y-81982475D01*
X210393853Y-81965896D01*
X210391456Y-81949178D01*
X210388309Y-81932293D01*
X210384401Y-81915211D01*
X210379722Y-81897905D01*
X210374261Y-81880344D01*
X210368009Y-81862501D01*
X210353088Y-81825850D01*
X210334875Y-81787722D01*
X210313288Y-81747885D01*
X210288244Y-81706110D01*
X210259659Y-81662164D01*
X210227451Y-81615817D01*
X210191537Y-81566838D01*
X210151834Y-81514997D01*
X210067703Y-81406923D01*
X210000334Y-81318757D01*
X209946185Y-81245158D01*
X209901714Y-81180786D01*
X209882001Y-81150391D01*
X209863379Y-81120299D01*
X209827639Y-81058358D01*
X209790951Y-80989622D01*
X209749773Y-80908750D01*
X209715575Y-80842021D01*
X209682410Y-80780010D01*
X209650169Y-80722587D01*
X209618742Y-80669621D01*
X209588019Y-80620982D01*
X209557890Y-80576541D01*
X209528247Y-80536167D01*
X209498978Y-80499731D01*
X209469975Y-80467102D01*
X209441127Y-80438150D01*
X209412325Y-80412745D01*
X209383459Y-80390758D01*
X209354419Y-80372057D01*
X209325096Y-80356514D01*
X209295380Y-80343998D01*
X209265161Y-80334379D01*
X209239660Y-80328382D01*
X209227348Y-80326185D01*
X209215291Y-80324543D01*
X209203465Y-80323471D01*
X209191842Y-80322986D01*
X209180397Y-80323103D01*
X209169102Y-80323839D01*
X209157931Y-80325209D01*
X209146859Y-80327228D01*
X209135858Y-80329914D01*
X209124901Y-80333281D01*
X209113964Y-80337345D01*
X209103019Y-80342123D01*
X209092039Y-80347630D01*
X209080999Y-80353881D01*
X209069872Y-80360894D01*
X209058631Y-80368683D01*
X209047250Y-80377264D01*
X209035703Y-80386653D01*
X209023963Y-80396867D01*
X209012004Y-80407920D01*
X208987323Y-80432610D01*
X208961448Y-80460849D01*
X208934167Y-80492764D01*
X208905269Y-80528481D01*
X208874544Y-80568128D01*
X208856197Y-80591719D01*
X208838251Y-80613705D01*
X208820607Y-80634161D01*
X208803164Y-80653162D01*
X208785822Y-80670785D01*
X208768481Y-80687105D01*
X208751042Y-80702197D01*
X208733403Y-80716137D01*
X208715465Y-80729000D01*
X208697128Y-80740862D01*
X208678292Y-80751798D01*
X208658857Y-80761884D01*
X208638722Y-80771196D01*
X208617788Y-80779809D01*
X208595955Y-80787799D01*
X208573122Y-80795240D01*
X208552482Y-80801977D01*
X208531950Y-80809429D01*
X208511639Y-80817525D01*
X208491664Y-80826196D01*
X208472140Y-80835371D01*
X208453180Y-80844982D01*
X208434900Y-80854957D01*
X208417413Y-80865228D01*
X208400835Y-80875725D01*
X208385279Y-80886378D01*
X208370859Y-80897116D01*
X208357691Y-80907871D01*
X208345888Y-80918573D01*
X208335566Y-80929151D01*
X208326838Y-80939536D01*
X208319818Y-80949659D01*
X208311087Y-80964660D01*
X208303374Y-80979716D01*
X208296664Y-80995024D01*
X208290944Y-81010778D01*
X208286199Y-81027173D01*
X208282416Y-81044403D01*
X208279580Y-81062664D01*
X208277679Y-81082151D01*
X208276698Y-81103058D01*
X208276622Y-81125581D01*
X208277439Y-81149914D01*
X208279134Y-81176252D01*
X208281694Y-81204790D01*
X208285104Y-81235724D01*
X208289351Y-81269247D01*
X208294420Y-81305555D01*
X208321718Y-81493970D01*
X208277521Y-81656187D01*
X208261464Y-81718975D01*
X208249569Y-81775423D01*
X208245312Y-81801398D01*
X208242251Y-81825944D01*
X208240439Y-81849113D01*
X208239926Y-81870956D01*
X208147024Y-81870956D01*
X208146873Y-81861301D01*
X208147659Y-81835114D01*
X208149623Y-81807960D01*
X208152764Y-81779912D01*
X208157082Y-81751048D01*
X208162575Y-81721444D01*
X208169242Y-81691176D01*
X208177084Y-81660319D01*
X208186098Y-81628950D01*
X208198565Y-81587315D01*
X208203517Y-81569611D01*
X208207641Y-81553375D01*
X208210956Y-81538152D01*
X208213481Y-81523485D01*
X208215235Y-81508918D01*
X208216237Y-81493997D01*
X208216506Y-81478265D01*
X208216063Y-81461267D01*
X208214925Y-81442546D01*
X208213112Y-81421647D01*
X208210643Y-81398115D01*
X208207538Y-81371493D01*
X208199495Y-81307157D01*
X208192051Y-81241655D01*
X208187253Y-81181752D01*
X208185298Y-81127071D01*
X208186387Y-81077237D01*
X208190716Y-81031873D01*
X208194159Y-81010750D01*
X208198486Y-80990603D01*
X208203722Y-80971386D01*
X208209894Y-80953051D01*
X208217024Y-80935551D01*
X208225138Y-80918840D01*
X208234262Y-80902870D01*
X208244419Y-80887594D01*
X208255634Y-80872965D01*
X208267933Y-80858937D01*
X208281340Y-80845462D01*
X208295880Y-80832492D01*
X208311578Y-80819982D01*
X208328459Y-80807884D01*
X208365867Y-80784736D01*
X208408304Y-80762672D01*
X208455968Y-80741315D01*
X208509058Y-80720289D01*
X208562591Y-80699417D01*
X208586056Y-80689567D01*
X208607562Y-80679945D01*
X208627290Y-80670426D01*
X208645421Y-80660890D01*
X208662136Y-80651212D01*
X208677616Y-80641271D01*
X208692041Y-80630944D01*
X208705594Y-80620108D01*
X208718454Y-80608640D01*
X208730803Y-80596418D01*
X208742823Y-80583319D01*
X208754693Y-80569221D01*
X208766595Y-80554000D01*
X208778711Y-80537534D01*
X208791082Y-80520582D01*
X208804651Y-80502497D01*
X208818975Y-80483839D01*
X208833612Y-80465166D01*
X208848119Y-80447038D01*
X208862053Y-80430014D01*
X208874971Y-80414654D01*
X208886430Y-80401517D01*
X208937830Y-80344114D01*
X208946832Y-80106260D01*
X208949708Y-80042065D01*
X208953199Y-79985104D01*
X208957483Y-79934042D01*
X208962734Y-79887540D01*
X208969129Y-79844263D01*
X208976843Y-79802874D01*
X208981687Y-79781394D01*
X209384856Y-79781394D01*
X209386578Y-79840715D01*
X209392261Y-79898180D01*
X209401903Y-79953814D01*
X209415500Y-80007642D01*
X209433048Y-80059690D01*
X209454546Y-80109983D01*
X209467932Y-80136942D01*
X209482039Y-80162877D01*
X209496994Y-80187920D01*
X209512925Y-80212203D01*
X209529962Y-80235857D01*
X209548232Y-80259014D01*
X209567863Y-80281804D01*
X209588984Y-80304361D01*
X209611723Y-80326815D01*
X209636208Y-80349298D01*
X209662568Y-80371941D01*
X209690931Y-80394877D01*
X209721424Y-80418236D01*
X209754177Y-80442150D01*
X209789318Y-80466751D01*
X209826974Y-80492170D01*
X209894705Y-80538285D01*
X209958306Y-80583934D01*
X210017777Y-80629117D01*
X210073120Y-80673834D01*
X210124335Y-80718084D01*
X210171420Y-80761869D01*
X210214376Y-80805187D01*
X210253204Y-80848039D01*
X210287903Y-80890425D01*
X210318474Y-80932346D01*
X210344916Y-80973800D01*
X210367229Y-81014789D01*
X210385415Y-81055311D01*
X210399472Y-81095368D01*
X210409400Y-81134960D01*
X210415201Y-81174085D01*
X210416376Y-81187083D01*
X210417238Y-81198765D01*
X210417731Y-81209286D01*
X210417801Y-81218800D01*
X210417392Y-81227461D01*
X210416448Y-81235423D01*
X210415759Y-81239190D01*
X210414916Y-81242841D01*
X210413912Y-81246393D01*
X210412739Y-81249868D01*
X210411392Y-81253283D01*
X210409863Y-81256659D01*
X210408145Y-81260015D01*
X210406232Y-81263369D01*
X210401791Y-81270151D01*
X210396484Y-81277159D01*
X210390258Y-81284549D01*
X210383055Y-81292473D01*
X210374822Y-81301087D01*
X210365503Y-81310545D01*
X210358264Y-81317572D01*
X210350982Y-81324220D01*
X210343654Y-81330488D01*
X210336276Y-81336380D01*
X210328846Y-81341896D01*
X210321360Y-81347038D01*
X210313815Y-81351807D01*
X210306207Y-81356206D01*
X210298534Y-81360236D01*
X210290793Y-81363899D01*
X210282979Y-81367196D01*
X210275091Y-81370128D01*
X210267124Y-81372698D01*
X210259076Y-81374907D01*
X210250944Y-81376756D01*
X210242723Y-81378248D01*
X210177225Y-81388746D01*
X210277452Y-81524229D01*
X210297075Y-81550177D01*
X210316313Y-81574380D01*
X210335316Y-81596954D01*
X210354236Y-81618015D01*
X210373222Y-81637678D01*
X210392426Y-81656059D01*
X210411998Y-81673274D01*
X210432088Y-81689439D01*
X210452848Y-81704670D01*
X210474427Y-81719082D01*
X210496977Y-81732790D01*
X210520647Y-81745912D01*
X210545589Y-81758562D01*
X210571953Y-81770857D01*
X210599889Y-81782912D01*
X210629549Y-81794843D01*
X210672452Y-81810273D01*
X210717366Y-81823968D01*
X210764061Y-81835919D01*
X210812304Y-81846117D01*
X210861864Y-81854552D01*
X210912507Y-81861214D01*
X210964003Y-81866094D01*
X211016119Y-81869182D01*
X211068623Y-81870469D01*
X211121284Y-81869946D01*
X211173869Y-81867602D01*
X211226147Y-81863428D01*
X211277886Y-81857415D01*
X211328853Y-81849553D01*
X211378817Y-81839833D01*
X211427545Y-81828245D01*
X211427469Y-81828565D01*
X211453783Y-81820978D01*
X211484082Y-81810978D01*
X211553995Y-81784946D01*
X211631931Y-81752880D01*
X211712615Y-81717193D01*
X211790771Y-81680296D01*
X211861125Y-81644602D01*
X211918401Y-81612522D01*
X211940486Y-81598592D01*
X211957323Y-81586469D01*
X211962522Y-81581760D01*
X211967745Y-81575889D01*
X211972985Y-81568889D01*
X211978231Y-81560797D01*
X211988711Y-81541475D01*
X211999116Y-81518202D01*
X212009377Y-81491260D01*
X212019427Y-81460929D01*
X212029195Y-81427489D01*
X212038614Y-81391222D01*
X212047614Y-81352407D01*
X212056128Y-81311325D01*
X212064085Y-81268256D01*
X212071417Y-81223483D01*
X212078057Y-81177284D01*
X212083934Y-81129940D01*
X212088980Y-81081732D01*
X212093126Y-81032941D01*
X212100585Y-80943216D01*
X212109076Y-80860004D01*
X212118693Y-80783050D01*
X212129530Y-80712100D01*
X212141682Y-80646898D01*
X212155243Y-80587190D01*
X212170309Y-80532723D01*
X212186973Y-80483240D01*
X212205331Y-80438487D01*
X212225476Y-80398210D01*
X212247503Y-80362155D01*
X212271508Y-80330065D01*
X212297584Y-80301688D01*
X212325825Y-80276768D01*
X212356327Y-80255050D01*
X212389185Y-80236280D01*
X212395716Y-80232809D01*
X212402053Y-80229169D01*
X212408162Y-80225388D01*
X212414015Y-80221494D01*
X212417937Y-80218690D01*
X212518012Y-80218690D01*
X212518614Y-80239092D01*
X212520063Y-80260137D01*
X212522321Y-80281595D01*
X212525351Y-80303236D01*
X212529114Y-80324828D01*
X212533574Y-80346143D01*
X212538691Y-80366948D01*
X212544428Y-80387014D01*
X212550748Y-80406110D01*
X212557612Y-80424006D01*
X212564984Y-80440471D01*
X212572824Y-80455274D01*
X212579868Y-80466857D01*
X212587070Y-80477833D01*
X212594437Y-80488204D01*
X212601973Y-80497971D01*
X212609685Y-80507136D01*
X212617578Y-80515700D01*
X212625658Y-80523663D01*
X212633929Y-80531028D01*
X212642397Y-80537795D01*
X212651069Y-80543967D01*
X212659949Y-80549543D01*
X212669043Y-80554526D01*
X212678356Y-80558916D01*
X212687894Y-80562715D01*
X212697662Y-80565925D01*
X212707667Y-80568546D01*
X212717913Y-80570580D01*
X212728406Y-80572027D01*
X212739151Y-80572890D01*
X212750154Y-80573170D01*
X212761421Y-80572867D01*
X212772956Y-80571983D01*
X212784766Y-80570520D01*
X212796856Y-80568478D01*
X212809232Y-80565860D01*
X212821898Y-80562665D01*
X212834861Y-80558896D01*
X212848125Y-80554554D01*
X212861697Y-80549639D01*
X212875583Y-80544154D01*
X212889786Y-80538099D01*
X212904314Y-80531477D01*
X212904352Y-80531461D01*
X212920738Y-80523117D01*
X212937250Y-80513485D01*
X212953744Y-80502715D01*
X212970077Y-80490957D01*
X212986103Y-80478360D01*
X213001679Y-80465073D01*
X213016661Y-80451247D01*
X213030905Y-80437030D01*
X213044267Y-80422573D01*
X213056603Y-80408026D01*
X213067768Y-80393536D01*
X213077619Y-80379256D01*
X213086012Y-80365333D01*
X213092802Y-80351917D01*
X213097846Y-80339159D01*
X213099668Y-80333073D01*
X213100999Y-80327207D01*
X213102242Y-80319579D01*
X213103077Y-80312064D01*
X213103501Y-80304658D01*
X213103506Y-80297352D01*
X213103087Y-80290142D01*
X213102239Y-80283019D01*
X213100957Y-80275979D01*
X213099234Y-80269013D01*
X213097066Y-80262117D01*
X213094446Y-80255284D01*
X213091370Y-80248506D01*
X213087831Y-80241778D01*
X213083824Y-80235094D01*
X213079343Y-80228446D01*
X213074384Y-80221828D01*
X213068940Y-80215234D01*
X213063006Y-80208658D01*
X213056576Y-80202093D01*
X213049644Y-80195532D01*
X213042206Y-80188969D01*
X213034256Y-80182398D01*
X213025788Y-80175813D01*
X213007276Y-80162571D01*
X212986625Y-80149193D01*
X212963792Y-80135627D01*
X212938732Y-80121821D01*
X212911401Y-80107725D01*
X212872609Y-80089312D01*
X212835490Y-80073720D01*
X212800105Y-80060941D01*
X212766512Y-80050970D01*
X212734771Y-80043800D01*
X212704941Y-80039426D01*
X212677082Y-80037842D01*
X212663909Y-80038094D01*
X212651252Y-80039041D01*
X212639118Y-80040683D01*
X212627513Y-80043018D01*
X212616445Y-80046046D01*
X212605922Y-80049767D01*
X212595951Y-80054179D01*
X212586539Y-80059281D01*
X212577694Y-80065074D01*
X212569424Y-80071556D01*
X212561735Y-80078726D01*
X212554636Y-80086584D01*
X212548133Y-80095128D01*
X212542234Y-80104359D01*
X212536947Y-80114276D01*
X212532278Y-80124877D01*
X212528236Y-80136162D01*
X212524828Y-80148130D01*
X212521664Y-80163652D01*
X212519499Y-80180740D01*
X212518294Y-80199163D01*
X212518012Y-80218690D01*
X212417937Y-80218690D01*
X212419578Y-80217518D01*
X212424821Y-80213488D01*
X212429713Y-80209432D01*
X212434222Y-80205381D01*
X212438317Y-80201362D01*
X212441968Y-80197406D01*
X212445143Y-80193540D01*
X212447810Y-80189794D01*
X212449939Y-80186197D01*
X212451498Y-80182777D01*
X212452055Y-80181143D01*
X212452457Y-80179565D01*
X212452701Y-80178045D01*
X212452783Y-80176588D01*
X212452979Y-80170840D01*
X212453556Y-80164844D01*
X212455794Y-80152201D01*
X212459381Y-80138845D01*
X212464197Y-80124961D01*
X212470125Y-80110733D01*
X212477047Y-80096349D01*
X212484844Y-80081992D01*
X212493398Y-80067848D01*
X212502592Y-80054103D01*
X212512306Y-80040941D01*
X212522423Y-80028549D01*
X212532825Y-80017112D01*
X212543393Y-80006815D01*
X212554009Y-79997843D01*
X212564556Y-79990382D01*
X212569766Y-79987276D01*
X212574915Y-79984617D01*
X212585036Y-79980136D01*
X212595546Y-79976106D01*
X212617690Y-79969390D01*
X212641271Y-79964457D01*
X212666211Y-79961296D01*
X212692433Y-79959894D01*
X212719859Y-79960241D01*
X212748412Y-79962323D01*
X212778015Y-79966129D01*
X212808590Y-79971647D01*
X212840059Y-79978866D01*
X212872346Y-79987773D01*
X212905373Y-79998356D01*
X212939063Y-80010604D01*
X212973339Y-80024505D01*
X213008122Y-80040047D01*
X213043336Y-80057218D01*
X213079378Y-80076132D01*
X213112881Y-80094973D01*
X213143852Y-80113749D01*
X213172296Y-80132463D01*
X213198217Y-80151123D01*
X213221622Y-80169733D01*
X213242515Y-80188300D01*
X213260902Y-80206829D01*
X213276788Y-80225325D01*
X213290178Y-80243795D01*
X213301077Y-80262243D01*
X213309491Y-80280676D01*
X213312768Y-80289889D01*
X213315425Y-80299100D01*
X213317464Y-80308309D01*
X213318884Y-80317519D01*
X213319687Y-80326729D01*
X213319874Y-80335940D01*
X213319444Y-80345152D01*
X213318399Y-80354368D01*
X213317735Y-80360012D01*
X213317419Y-80365320D01*
X213317432Y-80370289D01*
X213317757Y-80374917D01*
X213318373Y-80379204D01*
X213319264Y-80383147D01*
X213320411Y-80386745D01*
X213321795Y-80389995D01*
X213323398Y-80392896D01*
X213325201Y-80395447D01*
X213327187Y-80397646D01*
X213329335Y-80399490D01*
X213331630Y-80400979D01*
X213334050Y-80402110D01*
X213336580Y-80402882D01*
X213339199Y-80403293D01*
X213341889Y-80403342D01*
X213344633Y-80403025D01*
X213347411Y-80402343D01*
X213350206Y-80401293D01*
X213352998Y-80399874D01*
X213355769Y-80398083D01*
X213358502Y-80395919D01*
X213361177Y-80393380D01*
X213363776Y-80390465D01*
X213366281Y-80387171D01*
X213368673Y-80383498D01*
X213370934Y-80379443D01*
X213373045Y-80375005D01*
X213374989Y-80370182D01*
X213376745Y-80364971D01*
X213378297Y-80359373D01*
X213380770Y-80347871D01*
X213382436Y-80336283D01*
X213383300Y-80324614D01*
X213383367Y-80312871D01*
X213382642Y-80301060D01*
X213381130Y-80289187D01*
X213378836Y-80277260D01*
X213375766Y-80265284D01*
X213371924Y-80253265D01*
X213367315Y-80241211D01*
X213361944Y-80229128D01*
X213355817Y-80217022D01*
X213348938Y-80204899D01*
X213341313Y-80192767D01*
X213332947Y-80180630D01*
X213323844Y-80168497D01*
X213314009Y-80156372D01*
X213303449Y-80144264D01*
X213292167Y-80132177D01*
X213280169Y-80120119D01*
X213254045Y-80096113D01*
X213225116Y-80072299D01*
X213193424Y-80048727D01*
X213159009Y-80025449D01*
X213121911Y-80002515D01*
X213082170Y-79979978D01*
X212953790Y-79910184D01*
X212952974Y-79692167D01*
X212951438Y-79601600D01*
X212949640Y-79560893D01*
X212947020Y-79522654D01*
X212943475Y-79486443D01*
X212938903Y-79451824D01*
X212933203Y-79418359D01*
X212926272Y-79385610D01*
X212918009Y-79353139D01*
X212908311Y-79320509D01*
X212897077Y-79287281D01*
X212884205Y-79253018D01*
X212869593Y-79217283D01*
X212853138Y-79179636D01*
X212814294Y-79096860D01*
X212789861Y-79048945D01*
X212762498Y-78999554D01*
X212732825Y-78949479D01*
X212701467Y-78899510D01*
X212669043Y-78850437D01*
X212636177Y-78803049D01*
X212603489Y-78758138D01*
X212571602Y-78716493D01*
X212541138Y-78678905D01*
X212512718Y-78646164D01*
X212486965Y-78619059D01*
X212464499Y-78598382D01*
X212445943Y-78584921D01*
X212438326Y-78581145D01*
X212431919Y-78579469D01*
X212426801Y-78579992D01*
X212423049Y-78582814D01*
X212420741Y-78588032D01*
X212419954Y-78595747D01*
X212420084Y-78596729D01*
X212420468Y-78597984D01*
X212421977Y-78601278D01*
X212424429Y-78605566D01*
X212427773Y-78610784D01*
X212431959Y-78616868D01*
X212436935Y-78623756D01*
X212442650Y-78631384D01*
X212449054Y-78639688D01*
X212463724Y-78658074D01*
X212480535Y-78678406D01*
X212499081Y-78700178D01*
X212518953Y-78722883D01*
X212541489Y-78749408D01*
X212564145Y-78778292D01*
X212586781Y-78809264D01*
X212609252Y-78842056D01*
X212631417Y-78876400D01*
X212653134Y-78912027D01*
X212674259Y-78948668D01*
X212694651Y-78986055D01*
X212714167Y-79023918D01*
X212732664Y-79061989D01*
X212750000Y-79100000D01*
X212766033Y-79137681D01*
X212780619Y-79174764D01*
X212793618Y-79210980D01*
X212804885Y-79246061D01*
X212814279Y-79279737D01*
X212821205Y-79309268D01*
X212827454Y-79340968D01*
X212832951Y-79374209D01*
X212837619Y-79408365D01*
X212841383Y-79442808D01*
X212844165Y-79476912D01*
X212845891Y-79510049D01*
X212846483Y-79541593D01*
X212845387Y-79592425D01*
X212842313Y-79643923D01*
X212837576Y-79693985D01*
X212831496Y-79740511D01*
X212824389Y-79781398D01*
X212820549Y-79799072D01*
X212816572Y-79814548D01*
X212812497Y-79827564D01*
X212808364Y-79837857D01*
X212804212Y-79845165D01*
X212802141Y-79847618D01*
X212800081Y-79849226D01*
X212798599Y-79849742D01*
X212796431Y-79850163D01*
X212793618Y-79850487D01*
X212790204Y-79850712D01*
X212786231Y-79850838D01*
X212781742Y-79850863D01*
X212776778Y-79850785D01*
X212771383Y-79850603D01*
X212765599Y-79850315D01*
X212759468Y-79849921D01*
X212753033Y-79849418D01*
X212746336Y-79848805D01*
X212739420Y-79848081D01*
X212732328Y-79847245D01*
X212725101Y-79846294D01*
X212717783Y-79845228D01*
X212646486Y-79835035D01*
X212600984Y-79654584D01*
X212579041Y-79574774D01*
X212552111Y-79489074D01*
X212520946Y-79399394D01*
X212486295Y-79307643D01*
X212448910Y-79215732D01*
X212409539Y-79125569D01*
X212368934Y-79039064D01*
X212327844Y-78958128D01*
X212264401Y-78833184D01*
X212198781Y-78694233D01*
X212132516Y-78545022D01*
X212067137Y-78389301D01*
X212004176Y-78230818D01*
X211945165Y-78073323D01*
X211891635Y-77920563D01*
X211845117Y-77776289D01*
X211824352Y-77709076D01*
X211806794Y-77653354D01*
X211794298Y-77614933D01*
X211790528Y-77604026D01*
X211788721Y-77599622D01*
X211788451Y-77599511D01*
X211788019Y-77599548D01*
X211787429Y-77599731D01*
X211786686Y-77600057D01*
X211784756Y-77601124D01*
X211782265Y-77602722D01*
X211779246Y-77604826D01*
X211775734Y-77607409D01*
X211771764Y-77610447D01*
X211767371Y-77613912D01*
X211762588Y-77617780D01*
X211757451Y-77622023D01*
X211746253Y-77631534D01*
X211734051Y-77642238D01*
X211727661Y-77647973D01*
X211721124Y-77653928D01*
X211714182Y-77660098D01*
X211706606Y-77666460D01*
X211698470Y-77672967D01*
X211689849Y-77679569D01*
X211671449Y-77692868D01*
X211652002Y-77705968D01*
X211632103Y-77718482D01*
X211612347Y-77730022D01*
X211602709Y-77735304D01*
X211593330Y-77740198D01*
X211584284Y-77744654D01*
X211575647Y-77748624D01*
X211557233Y-77756951D01*
X211536158Y-77766832D01*
X211488981Y-77789791D01*
X211440024Y-77814566D01*
X211416725Y-77826718D01*
X211395197Y-77838224D01*
X211317759Y-77879643D01*
X211251748Y-77913600D01*
X211195378Y-77940823D01*
X211146866Y-77962041D01*
X211125000Y-77970627D01*
X211104428Y-77977984D01*
X211084929Y-77984205D01*
X211066279Y-77989380D01*
X211048256Y-77993601D01*
X211030636Y-77996958D01*
X211013196Y-77999543D01*
X210995714Y-78001447D01*
X210970518Y-78003159D01*
X210945739Y-78003679D01*
X210921357Y-78003001D01*
X210897353Y-78001119D01*
X210873708Y-77998027D01*
X210850405Y-77993718D01*
X210827422Y-77988187D01*
X210804742Y-77981428D01*
X210782346Y-77973434D01*
X210760215Y-77964199D01*
X210738329Y-77953718D01*
X210716670Y-77941984D01*
X210695218Y-77928991D01*
X210673956Y-77914733D01*
X210652863Y-77899204D01*
X210631921Y-77882398D01*
X210595242Y-77852345D01*
X210557214Y-77822260D01*
X210519547Y-77793388D01*
X210483948Y-77766975D01*
X210452126Y-77744265D01*
X210425787Y-77726502D01*
X210406641Y-77714931D01*
X210400298Y-77711857D01*
X210396394Y-77710798D01*
X210396005Y-77710921D01*
X210395586Y-77711288D01*
X210395140Y-77711891D01*
X210394667Y-77712725D01*
X210393651Y-77715061D01*
X210392549Y-77718247D01*
X210391372Y-77722235D01*
X210390134Y-77726976D01*
X210388846Y-77732421D01*
X210387520Y-77738521D01*
X210386169Y-77745229D01*
X210384803Y-77752495D01*
X210383436Y-77760271D01*
X210382079Y-77768508D01*
X210380744Y-77777158D01*
X210379443Y-77786172D01*
X210378189Y-77795501D01*
X210376993Y-77805097D01*
X210369826Y-77857461D01*
X210360572Y-77911657D01*
X210349153Y-77967913D01*
X210335490Y-78026457D01*
X210319505Y-78087516D01*
X210301119Y-78151319D01*
X210280254Y-78218093D01*
X210256831Y-78288066D01*
X210230771Y-78361467D01*
X210201997Y-78438524D01*
X210135990Y-78604513D01*
X210058181Y-78787859D01*
X209967943Y-78990385D01*
X209902982Y-79136347D01*
X209842641Y-79277246D01*
X209793659Y-79397025D01*
X209775533Y-79443976D01*
X209762773Y-79479627D01*
X209740890Y-79549876D01*
X209719904Y-79626019D01*
X209700438Y-79705040D01*
X209683116Y-79783920D01*
X209668558Y-79859642D01*
X209657389Y-79929189D01*
X209650231Y-79989543D01*
X209648351Y-80015330D01*
X209647707Y-80037687D01*
X209647433Y-80054450D01*
X209646640Y-80070443D01*
X209645371Y-80085288D01*
X209643671Y-80098608D01*
X209642672Y-80104577D01*
X209641581Y-80110025D01*
X209640403Y-80114902D01*
X209639145Y-80119162D01*
X209637811Y-80122757D01*
X209636407Y-80125642D01*
X209634938Y-80127767D01*
X209633409Y-80129087D01*
X209630927Y-80129876D01*
X209628090Y-80129429D01*
X209624922Y-80127803D01*
X209621448Y-80125054D01*
X209617692Y-80121239D01*
X209613679Y-80116412D01*
X209604979Y-80103952D01*
X209595542Y-80088122D01*
X209585565Y-80069372D01*
X209575242Y-80048150D01*
X209564768Y-80024906D01*
X209554340Y-80000087D01*
X209544153Y-79974144D01*
X209534401Y-79947525D01*
X209525281Y-79920679D01*
X209516987Y-79894055D01*
X209509715Y-79868102D01*
X209503660Y-79843269D01*
X209499017Y-79820005D01*
X209492237Y-79774571D01*
X209487717Y-79729221D01*
X209485511Y-79683717D01*
X209485674Y-79637820D01*
X209488257Y-79591292D01*
X209493314Y-79543892D01*
X209500898Y-79495384D01*
X209511063Y-79445528D01*
X209523862Y-79394084D01*
X209539348Y-79340816D01*
X209557574Y-79285482D01*
X209578594Y-79227846D01*
X209602461Y-79167668D01*
X209629228Y-79104709D01*
X209658948Y-79038731D01*
X209691675Y-78969495D01*
X209739522Y-78868406D01*
X209777452Y-78784347D01*
X209791498Y-78751444D01*
X209801626Y-78726086D01*
X209807355Y-78709369D01*
X209808420Y-78704594D01*
X209808206Y-78702390D01*
X209806863Y-78701904D01*
X209804963Y-78702544D01*
X209802527Y-78704277D01*
X209799575Y-78707070D01*
X209792198Y-78715700D01*
X209782987Y-78728170D01*
X209772100Y-78744214D01*
X209759691Y-78763565D01*
X209745917Y-78785958D01*
X209730933Y-78811126D01*
X209697961Y-78868728D01*
X209662023Y-78934243D01*
X209624365Y-79005543D01*
X209586237Y-79080503D01*
X209548165Y-79159783D01*
X209514087Y-79236953D01*
X209483999Y-79312038D01*
X209457899Y-79385063D01*
X209435784Y-79456055D01*
X209417649Y-79525039D01*
X209403492Y-79592039D01*
X209393310Y-79657081D01*
X209387099Y-79720191D01*
X209384856Y-79781394D01*
X208981687Y-79781394D01*
X208986053Y-79762036D01*
X208996935Y-79720411D01*
X209019197Y-79644686D01*
X209044268Y-79568224D01*
X209072121Y-79491073D01*
X209102730Y-79413281D01*
X209136070Y-79334897D01*
X209172114Y-79255970D01*
X209210836Y-79176549D01*
X209252211Y-79096681D01*
X209296213Y-79016416D01*
X209342815Y-78935803D01*
X209391991Y-78854889D01*
X209443717Y-78773724D01*
X209497964Y-78692356D01*
X209554709Y-78610834D01*
X209613924Y-78529207D01*
X209675584Y-78447523D01*
X209784523Y-78305563D01*
X209866991Y-78197340D01*
X209884812Y-78172563D01*
X209903178Y-78144762D01*
X209921925Y-78114293D01*
X209940888Y-78081511D01*
X209959902Y-78046773D01*
X209978804Y-78010434D01*
X209997429Y-77972850D01*
X210015612Y-77934377D01*
X210049996Y-77856189D01*
X210065867Y-77817186D01*
X210080639Y-77778718D01*
X210094147Y-77741140D01*
X210106227Y-77704809D01*
X210116714Y-77670081D01*
X210125444Y-77637312D01*
X210132328Y-77608245D01*
X210138414Y-77579698D01*
X210143739Y-77550707D01*
X210148335Y-77520305D01*
X210152239Y-77487529D01*
X210155485Y-77451412D01*
X210155757Y-77447219D01*
X210288698Y-77447219D01*
X210289074Y-77456919D01*
X210290118Y-77466721D01*
X210291826Y-77476618D01*
X210294195Y-77486603D01*
X210297219Y-77496672D01*
X210300897Y-77506818D01*
X210305222Y-77517034D01*
X210310193Y-77527315D01*
X210315805Y-77537655D01*
X210322054Y-77548048D01*
X210328936Y-77558487D01*
X210336447Y-77568967D01*
X210344584Y-77579481D01*
X210353343Y-77590024D01*
X210362719Y-77600590D01*
X210372710Y-77611172D01*
X210394518Y-77632361D01*
X210418736Y-77653543D01*
X210445333Y-77674670D01*
X210474278Y-77695694D01*
X210505540Y-77716566D01*
X210523156Y-77728145D01*
X210540529Y-77740075D01*
X210557210Y-77752017D01*
X210572752Y-77763629D01*
X210586704Y-77774572D01*
X210598617Y-77784503D01*
X210608044Y-77793083D01*
X210611684Y-77796759D01*
X210614534Y-77799970D01*
X210622388Y-77808758D01*
X210631905Y-77818122D01*
X210642890Y-77827937D01*
X210655145Y-77838075D01*
X210668476Y-77848412D01*
X210682684Y-77858819D01*
X210697575Y-77869171D01*
X210712952Y-77879341D01*
X210728619Y-77889203D01*
X210744378Y-77898630D01*
X210760035Y-77907497D01*
X210775393Y-77915676D01*
X210790254Y-77923042D01*
X210804425Y-77929468D01*
X210817707Y-77934827D01*
X210829904Y-77938993D01*
X210848605Y-77943972D01*
X210868222Y-77947816D01*
X210888651Y-77950542D01*
X210909782Y-77952165D01*
X210931511Y-77952698D01*
X210953729Y-77952158D01*
X210976330Y-77950559D01*
X210999207Y-77947916D01*
X211022253Y-77944244D01*
X211045361Y-77939558D01*
X211068425Y-77933873D01*
X211091337Y-77927204D01*
X211113990Y-77919566D01*
X211136278Y-77910975D01*
X211158094Y-77901444D01*
X211179330Y-77890989D01*
X211179315Y-77890974D01*
X211301966Y-77827913D01*
X211455682Y-77750089D01*
X211527801Y-77712718D01*
X211559390Y-77695363D01*
X211588201Y-77678730D01*
X211614387Y-77662692D01*
X211638101Y-77647125D01*
X211659494Y-77631903D01*
X211678719Y-77616903D01*
X211695928Y-77601998D01*
X211711273Y-77587065D01*
X211724906Y-77571977D01*
X211736981Y-77556610D01*
X211747648Y-77540839D01*
X211757060Y-77524538D01*
X211765370Y-77507584D01*
X211772729Y-77489851D01*
X211781284Y-77466864D01*
X211784630Y-77457119D01*
X211787350Y-77448318D01*
X211789440Y-77440292D01*
X211790897Y-77432875D01*
X211791716Y-77425899D01*
X211791885Y-77422525D01*
X211791893Y-77419199D01*
X211791739Y-77415899D01*
X211791424Y-77412606D01*
X211790946Y-77409297D01*
X211790306Y-77405953D01*
X211788534Y-77399074D01*
X211786104Y-77391802D01*
X211783013Y-77383969D01*
X211779256Y-77375408D01*
X211774830Y-77365953D01*
X211769731Y-77355436D01*
X211766351Y-77348825D01*
X211762762Y-77342371D01*
X211758953Y-77336067D01*
X211754907Y-77329903D01*
X211750610Y-77323869D01*
X211746049Y-77317958D01*
X211741209Y-77312160D01*
X211736076Y-77306465D01*
X211730635Y-77300866D01*
X211724873Y-77295353D01*
X211718774Y-77289917D01*
X211712325Y-77284549D01*
X211705511Y-77279239D01*
X211698319Y-77273980D01*
X211690733Y-77268762D01*
X211682739Y-77263576D01*
X211674323Y-77258413D01*
X211665472Y-77253264D01*
X211646403Y-77242972D01*
X211625418Y-77232628D01*
X211602402Y-77222160D01*
X211577242Y-77211496D01*
X211549822Y-77200565D01*
X211520029Y-77189293D01*
X211487749Y-77177610D01*
X211461865Y-77167969D01*
X211434492Y-77157002D01*
X211406461Y-77145088D01*
X211378605Y-77132608D01*
X211351753Y-77119940D01*
X211326737Y-77107465D01*
X211304389Y-77095561D01*
X211285539Y-77084608D01*
X211267252Y-77073878D01*
X211247602Y-77063300D01*
X211226808Y-77052947D01*
X211205094Y-77042895D01*
X211182679Y-77033218D01*
X211159787Y-77023991D01*
X211136638Y-77015288D01*
X211113453Y-77007185D01*
X211090455Y-76999755D01*
X211067865Y-76993073D01*
X211045904Y-76987215D01*
X211024793Y-76982255D01*
X211004755Y-76978266D01*
X210986010Y-76975325D01*
X210968780Y-76973506D01*
X210953287Y-76972883D01*
X210935418Y-76973439D01*
X210916911Y-76975080D01*
X210897877Y-76977762D01*
X210878429Y-76981443D01*
X210858677Y-76986080D01*
X210838734Y-76991630D01*
X210818712Y-76998049D01*
X210798722Y-77005296D01*
X210778876Y-77013327D01*
X210759286Y-77022100D01*
X210740063Y-77031571D01*
X210721320Y-77041698D01*
X210703167Y-77052437D01*
X210685718Y-77063746D01*
X210669083Y-77075583D01*
X210653375Y-77087904D01*
X210612621Y-77121080D01*
X210559991Y-77163295D01*
X210502281Y-77209124D01*
X210446283Y-77253141D01*
X210420178Y-77274043D01*
X210395137Y-77295046D01*
X210371758Y-77315585D01*
X210350638Y-77335092D01*
X210332373Y-77353001D01*
X210317562Y-77368746D01*
X210311637Y-77375630D01*
X210306799Y-77381760D01*
X210303123Y-77387066D01*
X210300684Y-77391477D01*
X210296971Y-77400444D01*
X210293950Y-77409549D01*
X210291616Y-77418784D01*
X210289965Y-77428145D01*
X210288994Y-77437626D01*
X210288698Y-77447219D01*
X210155757Y-77447219D01*
X210158108Y-77410989D01*
X210160143Y-77365295D01*
X210161625Y-77313365D01*
X210162589Y-77254234D01*
X210163101Y-77110506D01*
X210161959Y-76926391D01*
X210161262Y-76862111D01*
X210298992Y-76862111D01*
X210300468Y-76897245D01*
X210303969Y-76932260D01*
X210309533Y-76966924D01*
X210317197Y-77001005D01*
X210326997Y-77034269D01*
X210334386Y-77055565D01*
X210341913Y-77075389D01*
X210349560Y-77093720D01*
X210357310Y-77110536D01*
X210365145Y-77125813D01*
X210373045Y-77139530D01*
X210380993Y-77151665D01*
X210388971Y-77162195D01*
X210396960Y-77171098D01*
X210404943Y-77178352D01*
X210412900Y-77183935D01*
X210416864Y-77186093D01*
X210420815Y-77187824D01*
X210424750Y-77189127D01*
X210428668Y-77189998D01*
X210432566Y-77190434D01*
X210436441Y-77190434D01*
X210440292Y-77189993D01*
X210444117Y-77189109D01*
X210447913Y-77187780D01*
X210451677Y-77186002D01*
X210454856Y-77184254D01*
X210458043Y-77182395D01*
X210461217Y-77180443D01*
X210464358Y-77178413D01*
X210467445Y-77176322D01*
X210470458Y-77174187D01*
X210473376Y-77172024D01*
X210476178Y-77169849D01*
X210478844Y-77167679D01*
X210481354Y-77165530D01*
X210483686Y-77163419D01*
X210485821Y-77161362D01*
X210487738Y-77159376D01*
X210489417Y-77157477D01*
X210490836Y-77155681D01*
X210491975Y-77154005D01*
X210491983Y-77154035D01*
X210492408Y-77153118D01*
X210492746Y-77152056D01*
X210492998Y-77150855D01*
X210493167Y-77149519D01*
X210493254Y-77146462D01*
X210493018Y-77142922D01*
X210492468Y-77138937D01*
X210491612Y-77134544D01*
X210490460Y-77129781D01*
X210489021Y-77124685D01*
X210487304Y-77119293D01*
X210485319Y-77113644D01*
X210483075Y-77107774D01*
X210480580Y-77101721D01*
X210477845Y-77095523D01*
X210474878Y-77089216D01*
X210471689Y-77082839D01*
X210468286Y-77076429D01*
X210462998Y-77065853D01*
X210458192Y-77054797D01*
X210450004Y-77031435D01*
X210443675Y-77006726D01*
X210439159Y-76981053D01*
X210436409Y-76954798D01*
X210435378Y-76928344D01*
X210436019Y-76902073D01*
X210438287Y-76876369D01*
X210442135Y-76851614D01*
X210447516Y-76828190D01*
X210454383Y-76806481D01*
X210462690Y-76786868D01*
X210467369Y-76777968D01*
X210472390Y-76769736D01*
X210477749Y-76762219D01*
X210483438Y-76755466D01*
X210489452Y-76749523D01*
X210495785Y-76744440D01*
X210502431Y-76740264D01*
X210509386Y-76737043D01*
X210515462Y-76735043D01*
X210521571Y-76733682D01*
X210527701Y-76732946D01*
X210533841Y-76732821D01*
X210539978Y-76733294D01*
X210546102Y-76734350D01*
X210552200Y-76735975D01*
X210558261Y-76738155D01*
X210564273Y-76740876D01*
X210570225Y-76744125D01*
X210576105Y-76747886D01*
X210581901Y-76752147D01*
X210587602Y-76756892D01*
X210593196Y-76762109D01*
X210598671Y-76767782D01*
X210604016Y-76773899D01*
X210609219Y-76780444D01*
X210614268Y-76787404D01*
X210619153Y-76794765D01*
X210623860Y-76802513D01*
X210628379Y-76810634D01*
X210632698Y-76819114D01*
X210636805Y-76827938D01*
X210640688Y-76837094D01*
X210644337Y-76846566D01*
X210647739Y-76856340D01*
X210650882Y-76866404D01*
X210653756Y-76876742D01*
X210656348Y-76887341D01*
X210658646Y-76898186D01*
X210660640Y-76909264D01*
X210662317Y-76920560D01*
X210672815Y-76999860D01*
X210744615Y-76968366D01*
X210816241Y-76937040D01*
X211074800Y-76937040D01*
X211151498Y-76963239D01*
X211181706Y-76973393D01*
X211207236Y-76981687D01*
X211225398Y-76987280D01*
X211230874Y-76988801D01*
X211233499Y-76989332D01*
X211233777Y-76989241D01*
X211234050Y-76988970D01*
X211234316Y-76988524D01*
X211234577Y-76987908D01*
X211235080Y-76986181D01*
X211235561Y-76983827D01*
X211236017Y-76980880D01*
X211236451Y-76977376D01*
X211236861Y-76973352D01*
X211237247Y-76968843D01*
X211237950Y-76958515D01*
X211238559Y-76946678D01*
X211239074Y-76933621D01*
X211239496Y-76919630D01*
X211240138Y-76903570D01*
X211241852Y-76886939D01*
X211244560Y-76869915D01*
X211248186Y-76852682D01*
X211252652Y-76835419D01*
X211257881Y-76818308D01*
X211263795Y-76801530D01*
X211270317Y-76785266D01*
X211277369Y-76769698D01*
X211284875Y-76755005D01*
X211292756Y-76741369D01*
X211300936Y-76728972D01*
X211309336Y-76717994D01*
X211317881Y-76708616D01*
X211326492Y-76701020D01*
X211330798Y-76697947D01*
X211335092Y-76695386D01*
X211345306Y-76690374D01*
X211355534Y-76686247D01*
X211365760Y-76683003D01*
X211375964Y-76680638D01*
X211386129Y-76679149D01*
X211396236Y-76678535D01*
X211406265Y-76678791D01*
X211416200Y-76679914D01*
X211426022Y-76681902D01*
X211435712Y-76684752D01*
X211445251Y-76688461D01*
X211454622Y-76693026D01*
X211463806Y-76698444D01*
X211472785Y-76704712D01*
X211481540Y-76711826D01*
X211490053Y-76719785D01*
X211496816Y-76727032D01*
X211503229Y-76734875D01*
X211509289Y-76743280D01*
X211514994Y-76752217D01*
X211520340Y-76761651D01*
X211525326Y-76771550D01*
X211534205Y-76792612D01*
X211541608Y-76815143D01*
X211547515Y-76838880D01*
X211551903Y-76863562D01*
X211554752Y-76888927D01*
X211556040Y-76914714D01*
X211555746Y-76940661D01*
X211553848Y-76966508D01*
X211550325Y-76991991D01*
X211545156Y-77016850D01*
X211538319Y-77040823D01*
X211529793Y-77063649D01*
X211524889Y-77074549D01*
X211519556Y-77085065D01*
X211515535Y-77092851D01*
X211511991Y-77100267D01*
X211508989Y-77107138D01*
X211506592Y-77113292D01*
X211505641Y-77116046D01*
X211504866Y-77118556D01*
X211504275Y-77120800D01*
X211503875Y-77122756D01*
X211503676Y-77124403D01*
X211503684Y-77125719D01*
X211503909Y-77126682D01*
X211504105Y-77127025D01*
X211504358Y-77127271D01*
X211509676Y-77130566D01*
X211516966Y-77134309D01*
X211525940Y-77138406D01*
X211536312Y-77142761D01*
X211560107Y-77151870D01*
X211586060Y-77160875D01*
X211611879Y-77169017D01*
X211635274Y-77175538D01*
X211645347Y-77177953D01*
X211653954Y-77179678D01*
X211660810Y-77180617D01*
X211665628Y-77180677D01*
X211666946Y-77180460D01*
X211668367Y-77180003D01*
X211669886Y-77179313D01*
X211671499Y-77178394D01*
X211673201Y-77177255D01*
X211674987Y-77175901D01*
X211676854Y-77174338D01*
X211678796Y-77172573D01*
X211682888Y-77168462D01*
X211687227Y-77163618D01*
X211691778Y-77158093D01*
X211696503Y-77151937D01*
X211701367Y-77145201D01*
X211706332Y-77137936D01*
X211711363Y-77130192D01*
X211716424Y-77122020D01*
X211721477Y-77113472D01*
X211726487Y-77104597D01*
X211731417Y-77095447D01*
X211736230Y-77086072D01*
X211735933Y-77086042D01*
X211749518Y-77055994D01*
X211760921Y-77024687D01*
X211770155Y-76992313D01*
X211777234Y-76959064D01*
X211782171Y-76925132D01*
X211784980Y-76890710D01*
X211785675Y-76855990D01*
X211784269Y-76821165D01*
X211780776Y-76786426D01*
X211775209Y-76751965D01*
X211767583Y-76717976D01*
X211757910Y-76684650D01*
X211746205Y-76652180D01*
X211732480Y-76620758D01*
X211716751Y-76590576D01*
X211699030Y-76561826D01*
X211690464Y-76549489D01*
X211681595Y-76537603D01*
X211672432Y-76526173D01*
X211662989Y-76515204D01*
X211653277Y-76504700D01*
X211643307Y-76494666D01*
X211633091Y-76485107D01*
X211622641Y-76476028D01*
X211611968Y-76467433D01*
X211601085Y-76459326D01*
X211590003Y-76451713D01*
X211578733Y-76444599D01*
X211567287Y-76437988D01*
X211555678Y-76431884D01*
X211543916Y-76426293D01*
X211532014Y-76421218D01*
X211519982Y-76416666D01*
X211507833Y-76412640D01*
X211495579Y-76409146D01*
X211483231Y-76406187D01*
X211470801Y-76403769D01*
X211458300Y-76401896D01*
X211445740Y-76400574D01*
X211433134Y-76399806D01*
X211420491Y-76399597D01*
X211407826Y-76399953D01*
X211395148Y-76400878D01*
X211382469Y-76402376D01*
X211369803Y-76404452D01*
X211357159Y-76407111D01*
X211344550Y-76410358D01*
X211331987Y-76414197D01*
X211318818Y-76418988D01*
X211305814Y-76424605D01*
X211292992Y-76431020D01*
X211280368Y-76438206D01*
X211267960Y-76446135D01*
X211255784Y-76454780D01*
X211243856Y-76464113D01*
X211232192Y-76474107D01*
X211220810Y-76484735D01*
X211209726Y-76495968D01*
X211198957Y-76507780D01*
X211188518Y-76520143D01*
X211178428Y-76533029D01*
X211168701Y-76546411D01*
X211159356Y-76560261D01*
X211150407Y-76574552D01*
X211141873Y-76589257D01*
X211133769Y-76604347D01*
X211126113Y-76619796D01*
X211118920Y-76635576D01*
X211112207Y-76651660D01*
X211105991Y-76668019D01*
X211100288Y-76684627D01*
X211095116Y-76701456D01*
X211090490Y-76718478D01*
X211086426Y-76735666D01*
X211082943Y-76752993D01*
X211080056Y-76770431D01*
X211077781Y-76787952D01*
X211076136Y-76805529D01*
X211075137Y-76823135D01*
X211074800Y-76840742D01*
X211074800Y-76937040D01*
X210816241Y-76937040D01*
X210816415Y-76936964D01*
X210808412Y-76834989D01*
X210805602Y-76807442D01*
X210801684Y-76780710D01*
X210796707Y-76754827D01*
X210790718Y-76729831D01*
X210783765Y-76705755D01*
X210775896Y-76682637D01*
X210767158Y-76660511D01*
X210757599Y-76639414D01*
X210747267Y-76619381D01*
X210736209Y-76600447D01*
X210724474Y-76582648D01*
X210712109Y-76566021D01*
X210699161Y-76550600D01*
X210685679Y-76536422D01*
X210671710Y-76523521D01*
X210657302Y-76511934D01*
X210642503Y-76501696D01*
X210627360Y-76492843D01*
X210611921Y-76485411D01*
X210596234Y-76479435D01*
X210580346Y-76474950D01*
X210564306Y-76471994D01*
X210548161Y-76470600D01*
X210531958Y-76470805D01*
X210515746Y-76472645D01*
X210499571Y-76476155D01*
X210483483Y-76481371D01*
X210467528Y-76488328D01*
X210451755Y-76497062D01*
X210436211Y-76507609D01*
X210420943Y-76520005D01*
X210406000Y-76534284D01*
X210396604Y-76544514D01*
X210387609Y-76555382D01*
X210379019Y-76566860D01*
X210370840Y-76578918D01*
X210355730Y-76604660D01*
X210342317Y-76632375D01*
X210330636Y-76661832D01*
X210320725Y-76692796D01*
X210312620Y-76725037D01*
X210306357Y-76758321D01*
X210301974Y-76792417D01*
X210299507Y-76827091D01*
X210298992Y-76862111D01*
X210161262Y-76862111D01*
X210159441Y-76694166D01*
X210159115Y-76557016D01*
X210162194Y-76437754D01*
X210165154Y-76383884D01*
X210169138Y-76333351D01*
X210174203Y-76285775D01*
X210180408Y-76240778D01*
X210187810Y-76197981D01*
X210196466Y-76157006D01*
X210206434Y-76117475D01*
X210217771Y-76079009D01*
X210230536Y-76041228D01*
X210244786Y-76003756D01*
X210260578Y-75966213D01*
X210277971Y-75928220D01*
X210299121Y-75886824D01*
X210322631Y-75846654D01*
X210348404Y-75807792D01*
X210376342Y-75770318D01*
X210406349Y-75734312D01*
X210438326Y-75699856D01*
X210472176Y-75667030D01*
X210507803Y-75635915D01*
X210545107Y-75606592D01*
X210583993Y-75579142D01*
X210624362Y-75553644D01*
X210666117Y-75530180D01*
X210709160Y-75508832D01*
X210753395Y-75489678D01*
X210798724Y-75472801D01*
X210845049Y-75458280D01*
X210872465Y-75451012D01*
X210902122Y-75444120D01*
X210966852Y-75431592D01*
X211036630Y-75420961D01*
X211108849Y-75412490D01*
X211180902Y-75406444D01*
X211250181Y-75403085D01*
X211314079Y-75402677D01*
X211343196Y-75403662D01*
G37*
G36*
X211639902Y-77400583D02*
G01*
X211642678Y-77401878D01*
X211644942Y-77403578D01*
X211646700Y-77405682D01*
X211647952Y-77408190D01*
X211648701Y-77411100D01*
X211648950Y-77414411D01*
X211648422Y-77416084D01*
X211646855Y-77418263D01*
X211640701Y-77424077D01*
X211630687Y-77431740D01*
X211617011Y-77441140D01*
X211599872Y-77452162D01*
X211579468Y-77464693D01*
X211529659Y-77493829D01*
X211469172Y-77527642D01*
X211399595Y-77565224D01*
X211322515Y-77605669D01*
X211239519Y-77648069D01*
X211205058Y-77664891D01*
X211171692Y-77680007D01*
X211139319Y-77693432D01*
X211107835Y-77705182D01*
X211077138Y-77715274D01*
X211047125Y-77723723D01*
X211017693Y-77730544D01*
X210988739Y-77735755D01*
X210960159Y-77739372D01*
X210931852Y-77741409D01*
X210903714Y-77741884D01*
X210875642Y-77740811D01*
X210847533Y-77738208D01*
X210819284Y-77734090D01*
X210790793Y-77728472D01*
X210761957Y-77721372D01*
X210761942Y-77721433D01*
X210743490Y-77716059D01*
X210724955Y-77709873D01*
X210706331Y-77702871D01*
X210687613Y-77695050D01*
X210668794Y-77686406D01*
X210649870Y-77676935D01*
X210630833Y-77666635D01*
X210611680Y-77655500D01*
X210592403Y-77643528D01*
X210572997Y-77630714D01*
X210553457Y-77617056D01*
X210533777Y-77602549D01*
X210513950Y-77587190D01*
X210493972Y-77570975D01*
X210473837Y-77553900D01*
X210453539Y-77535963D01*
X210443263Y-77526562D01*
X210433633Y-77517457D01*
X210424655Y-77508661D01*
X210416340Y-77500185D01*
X210408697Y-77492042D01*
X210401734Y-77484244D01*
X210395462Y-77476803D01*
X210389887Y-77469732D01*
X210385021Y-77463043D01*
X210380872Y-77456748D01*
X210377448Y-77450859D01*
X210374760Y-77445390D01*
X210372816Y-77440351D01*
X210371624Y-77435756D01*
X210371195Y-77431617D01*
X210371270Y-77429722D01*
X210371538Y-77427946D01*
X210372065Y-77425919D01*
X210372715Y-77424118D01*
X210373496Y-77422547D01*
X210373939Y-77421849D01*
X210374417Y-77421210D01*
X210374933Y-77420631D01*
X210375487Y-77420112D01*
X210376080Y-77419654D01*
X210376714Y-77419258D01*
X210377389Y-77418924D01*
X210378106Y-77418653D01*
X210378867Y-77418445D01*
X210379673Y-77418301D01*
X210380524Y-77418221D01*
X210381422Y-77418207D01*
X210382368Y-77418259D01*
X210383363Y-77418376D01*
X210385503Y-77418813D01*
X210387852Y-77419522D01*
X210390418Y-77420508D01*
X210393209Y-77421775D01*
X210396234Y-77423329D01*
X210399501Y-77425174D01*
X210403020Y-77427315D01*
X210406798Y-77429757D01*
X210410845Y-77432504D01*
X210415168Y-77435561D01*
X210419777Y-77438933D01*
X210424679Y-77442624D01*
X210429884Y-77446640D01*
X210435400Y-77450985D01*
X210447399Y-77460680D01*
X210460744Y-77471747D01*
X210475504Y-77484225D01*
X210491747Y-77498151D01*
X210520296Y-77522354D01*
X210547915Y-77544662D01*
X210574706Y-77565123D01*
X210600771Y-77583786D01*
X210626214Y-77600696D01*
X210651136Y-77615902D01*
X210675641Y-77629452D01*
X210699832Y-77641393D01*
X210723810Y-77651773D01*
X210747679Y-77660638D01*
X210771542Y-77668038D01*
X210795500Y-77674018D01*
X210819658Y-77678628D01*
X210844117Y-77681914D01*
X210868980Y-77683924D01*
X210894350Y-77684705D01*
X210920468Y-77684436D01*
X210945955Y-77683189D01*
X210971069Y-77680875D01*
X210996065Y-77677401D01*
X211021199Y-77672677D01*
X211046730Y-77666612D01*
X211072913Y-77659116D01*
X211100004Y-77650096D01*
X211128260Y-77639463D01*
X211157938Y-77627125D01*
X211189295Y-77612992D01*
X211222586Y-77596971D01*
X211258068Y-77578973D01*
X211295998Y-77558907D01*
X211336632Y-77536681D01*
X211380228Y-77512205D01*
X211444547Y-77476505D01*
X211499759Y-77447632D01*
X211524001Y-77435737D01*
X211546028Y-77425526D01*
X211565860Y-77416992D01*
X211583517Y-77410127D01*
X211599020Y-77404924D01*
X211612390Y-77401376D01*
X211623646Y-77399475D01*
X211632810Y-77399213D01*
X211639902Y-77400583D01*
G37*
D10*
X220466666Y-96599819D02*
X220466666Y-97314104D01*
X220466666Y-97314104D02*
X220419047Y-97456961D01*
X220419047Y-97456961D02*
X220323809Y-97552200D01*
X220323809Y-97552200D02*
X220180952Y-97599819D01*
X220180952Y-97599819D02*
X220085714Y-97599819D01*
X220847619Y-96599819D02*
X221466666Y-96599819D01*
X221466666Y-96599819D02*
X221133333Y-96980771D01*
X221133333Y-96980771D02*
X221276190Y-96980771D01*
X221276190Y-96980771D02*
X221371428Y-97028390D01*
X221371428Y-97028390D02*
X221419047Y-97076009D01*
X221419047Y-97076009D02*
X221466666Y-97171247D01*
X221466666Y-97171247D02*
X221466666Y-97409342D01*
X221466666Y-97409342D02*
X221419047Y-97504580D01*
X221419047Y-97504580D02*
X221371428Y-97552200D01*
X221371428Y-97552200D02*
X221276190Y-97599819D01*
X221276190Y-97599819D02*
X220990476Y-97599819D01*
X220990476Y-97599819D02*
X220895238Y-97552200D01*
X220895238Y-97552200D02*
X220847619Y-97504580D01*
X220516666Y-90114819D02*
X220516666Y-90829104D01*
X220516666Y-90829104D02*
X220469047Y-90971961D01*
X220469047Y-90971961D02*
X220373809Y-91067200D01*
X220373809Y-91067200D02*
X220230952Y-91114819D01*
X220230952Y-91114819D02*
X220135714Y-91114819D01*
X220945238Y-90210057D02*
X220992857Y-90162438D01*
X220992857Y-90162438D02*
X221088095Y-90114819D01*
X221088095Y-90114819D02*
X221326190Y-90114819D01*
X221326190Y-90114819D02*
X221421428Y-90162438D01*
X221421428Y-90162438D02*
X221469047Y-90210057D01*
X221469047Y-90210057D02*
X221516666Y-90305295D01*
X221516666Y-90305295D02*
X221516666Y-90400533D01*
X221516666Y-90400533D02*
X221469047Y-90543390D01*
X221469047Y-90543390D02*
X220897619Y-91114819D01*
X220897619Y-91114819D02*
X221516666Y-91114819D01*
X198154819Y-74911904D02*
X198964342Y-74911904D01*
X198964342Y-74911904D02*
X199059580Y-74864285D01*
X199059580Y-74864285D02*
X199107200Y-74816666D01*
X199107200Y-74816666D02*
X199154819Y-74721428D01*
X199154819Y-74721428D02*
X199154819Y-74530952D01*
X199154819Y-74530952D02*
X199107200Y-74435714D01*
X199107200Y-74435714D02*
X199059580Y-74388095D01*
X199059580Y-74388095D02*
X198964342Y-74340476D01*
X198964342Y-74340476D02*
X198154819Y-74340476D01*
X198250057Y-73911904D02*
X198202438Y-73864285D01*
X198202438Y-73864285D02*
X198154819Y-73769047D01*
X198154819Y-73769047D02*
X198154819Y-73530952D01*
X198154819Y-73530952D02*
X198202438Y-73435714D01*
X198202438Y-73435714D02*
X198250057Y-73388095D01*
X198250057Y-73388095D02*
X198345295Y-73340476D01*
X198345295Y-73340476D02*
X198440533Y-73340476D01*
X198440533Y-73340476D02*
X198583390Y-73388095D01*
X198583390Y-73388095D02*
X199154819Y-73959523D01*
X199154819Y-73959523D02*
X199154819Y-73340476D01*
X192166667Y-94107200D02*
X192309524Y-94154819D01*
X192309524Y-94154819D02*
X192547619Y-94154819D01*
X192547619Y-94154819D02*
X192642857Y-94107200D01*
X192642857Y-94107200D02*
X192690476Y-94059580D01*
X192690476Y-94059580D02*
X192738095Y-93964342D01*
X192738095Y-93964342D02*
X192738095Y-93869104D01*
X192738095Y-93869104D02*
X192690476Y-93773866D01*
X192690476Y-93773866D02*
X192642857Y-93726247D01*
X192642857Y-93726247D02*
X192547619Y-93678628D01*
X192547619Y-93678628D02*
X192357143Y-93631009D01*
X192357143Y-93631009D02*
X192261905Y-93583390D01*
X192261905Y-93583390D02*
X192214286Y-93535771D01*
X192214286Y-93535771D02*
X192166667Y-93440533D01*
X192166667Y-93440533D02*
X192166667Y-93345295D01*
X192166667Y-93345295D02*
X192214286Y-93250057D01*
X192214286Y-93250057D02*
X192261905Y-93202438D01*
X192261905Y-93202438D02*
X192357143Y-93154819D01*
X192357143Y-93154819D02*
X192595238Y-93154819D01*
X192595238Y-93154819D02*
X192738095Y-93202438D01*
X193071429Y-93154819D02*
X193309524Y-94154819D01*
X193309524Y-94154819D02*
X193500000Y-93440533D01*
X193500000Y-93440533D02*
X193690476Y-94154819D01*
X193690476Y-94154819D02*
X193928572Y-93154819D01*
X194738095Y-93488152D02*
X194738095Y-94154819D01*
X194500000Y-93107200D02*
X194261905Y-93821485D01*
X194261905Y-93821485D02*
X194880952Y-93821485D01*
X183633333Y-88879580D02*
X183585714Y-88927200D01*
X183585714Y-88927200D02*
X183442857Y-88974819D01*
X183442857Y-88974819D02*
X183347619Y-88974819D01*
X183347619Y-88974819D02*
X183204762Y-88927200D01*
X183204762Y-88927200D02*
X183109524Y-88831961D01*
X183109524Y-88831961D02*
X183061905Y-88736723D01*
X183061905Y-88736723D02*
X183014286Y-88546247D01*
X183014286Y-88546247D02*
X183014286Y-88403390D01*
X183014286Y-88403390D02*
X183061905Y-88212914D01*
X183061905Y-88212914D02*
X183109524Y-88117676D01*
X183109524Y-88117676D02*
X183204762Y-88022438D01*
X183204762Y-88022438D02*
X183347619Y-87974819D01*
X183347619Y-87974819D02*
X183442857Y-87974819D01*
X183442857Y-87974819D02*
X183585714Y-88022438D01*
X183585714Y-88022438D02*
X183633333Y-88070057D01*
X183966667Y-87974819D02*
X184633333Y-87974819D01*
X184633333Y-87974819D02*
X184204762Y-88974819D01*
X194820833Y-90554819D02*
X194487500Y-90078628D01*
X194249405Y-90554819D02*
X194249405Y-89554819D01*
X194249405Y-89554819D02*
X194630357Y-89554819D01*
X194630357Y-89554819D02*
X194725595Y-89602438D01*
X194725595Y-89602438D02*
X194773214Y-89650057D01*
X194773214Y-89650057D02*
X194820833Y-89745295D01*
X194820833Y-89745295D02*
X194820833Y-89888152D01*
X194820833Y-89888152D02*
X194773214Y-89983390D01*
X194773214Y-89983390D02*
X194725595Y-90031009D01*
X194725595Y-90031009D02*
X194630357Y-90078628D01*
X194630357Y-90078628D02*
X194249405Y-90078628D01*
X195773214Y-90554819D02*
X195201786Y-90554819D01*
X195487500Y-90554819D02*
X195487500Y-89554819D01*
X195487500Y-89554819D02*
X195392262Y-89697676D01*
X195392262Y-89697676D02*
X195297024Y-89792914D01*
X195297024Y-89792914D02*
X195201786Y-89840533D01*
X190233333Y-90459580D02*
X190185714Y-90507200D01*
X190185714Y-90507200D02*
X190042857Y-90554819D01*
X190042857Y-90554819D02*
X189947619Y-90554819D01*
X189947619Y-90554819D02*
X189804762Y-90507200D01*
X189804762Y-90507200D02*
X189709524Y-90411961D01*
X189709524Y-90411961D02*
X189661905Y-90316723D01*
X189661905Y-90316723D02*
X189614286Y-90126247D01*
X189614286Y-90126247D02*
X189614286Y-89983390D01*
X189614286Y-89983390D02*
X189661905Y-89792914D01*
X189661905Y-89792914D02*
X189709524Y-89697676D01*
X189709524Y-89697676D02*
X189804762Y-89602438D01*
X189804762Y-89602438D02*
X189947619Y-89554819D01*
X189947619Y-89554819D02*
X190042857Y-89554819D01*
X190042857Y-89554819D02*
X190185714Y-89602438D01*
X190185714Y-89602438D02*
X190233333Y-89650057D01*
X191138095Y-89554819D02*
X190661905Y-89554819D01*
X190661905Y-89554819D02*
X190614286Y-90031009D01*
X190614286Y-90031009D02*
X190661905Y-89983390D01*
X190661905Y-89983390D02*
X190757143Y-89935771D01*
X190757143Y-89935771D02*
X190995238Y-89935771D01*
X190995238Y-89935771D02*
X191090476Y-89983390D01*
X191090476Y-89983390D02*
X191138095Y-90031009D01*
X191138095Y-90031009D02*
X191185714Y-90126247D01*
X191185714Y-90126247D02*
X191185714Y-90364342D01*
X191185714Y-90364342D02*
X191138095Y-90459580D01*
X191138095Y-90459580D02*
X191090476Y-90507200D01*
X191090476Y-90507200D02*
X190995238Y-90554819D01*
X190995238Y-90554819D02*
X190757143Y-90554819D01*
X190757143Y-90554819D02*
X190661905Y-90507200D01*
X190661905Y-90507200D02*
X190614286Y-90459580D01*
X190333333Y-87259580D02*
X190285714Y-87307200D01*
X190285714Y-87307200D02*
X190142857Y-87354819D01*
X190142857Y-87354819D02*
X190047619Y-87354819D01*
X190047619Y-87354819D02*
X189904762Y-87307200D01*
X189904762Y-87307200D02*
X189809524Y-87211961D01*
X189809524Y-87211961D02*
X189761905Y-87116723D01*
X189761905Y-87116723D02*
X189714286Y-86926247D01*
X189714286Y-86926247D02*
X189714286Y-86783390D01*
X189714286Y-86783390D02*
X189761905Y-86592914D01*
X189761905Y-86592914D02*
X189809524Y-86497676D01*
X189809524Y-86497676D02*
X189904762Y-86402438D01*
X189904762Y-86402438D02*
X190047619Y-86354819D01*
X190047619Y-86354819D02*
X190142857Y-86354819D01*
X190142857Y-86354819D02*
X190285714Y-86402438D01*
X190285714Y-86402438D02*
X190333333Y-86450057D01*
X190714286Y-86450057D02*
X190761905Y-86402438D01*
X190761905Y-86402438D02*
X190857143Y-86354819D01*
X190857143Y-86354819D02*
X191095238Y-86354819D01*
X191095238Y-86354819D02*
X191190476Y-86402438D01*
X191190476Y-86402438D02*
X191238095Y-86450057D01*
X191238095Y-86450057D02*
X191285714Y-86545295D01*
X191285714Y-86545295D02*
X191285714Y-86640533D01*
X191285714Y-86640533D02*
X191238095Y-86783390D01*
X191238095Y-86783390D02*
X190666667Y-87354819D01*
X190666667Y-87354819D02*
X191285714Y-87354819D01*
X190438095Y-80354819D02*
X190438095Y-81164342D01*
X190438095Y-81164342D02*
X190485714Y-81259580D01*
X190485714Y-81259580D02*
X190533333Y-81307200D01*
X190533333Y-81307200D02*
X190628571Y-81354819D01*
X190628571Y-81354819D02*
X190819047Y-81354819D01*
X190819047Y-81354819D02*
X190914285Y-81307200D01*
X190914285Y-81307200D02*
X190961904Y-81259580D01*
X190961904Y-81259580D02*
X191009523Y-81164342D01*
X191009523Y-81164342D02*
X191009523Y-80354819D01*
X192009523Y-81354819D02*
X191438095Y-81354819D01*
X191723809Y-81354819D02*
X191723809Y-80354819D01*
X191723809Y-80354819D02*
X191628571Y-80497676D01*
X191628571Y-80497676D02*
X191533333Y-80592914D01*
X191533333Y-80592914D02*
X191438095Y-80640533D01*
D12*
X183470550Y-99433609D02*
X183303884Y-99195514D01*
X183184836Y-99433609D02*
X183184836Y-98933609D01*
X183184836Y-98933609D02*
X183375312Y-98933609D01*
X183375312Y-98933609D02*
X183422931Y-98957419D01*
X183422931Y-98957419D02*
X183446741Y-98981228D01*
X183446741Y-98981228D02*
X183470550Y-99028847D01*
X183470550Y-99028847D02*
X183470550Y-99100276D01*
X183470550Y-99100276D02*
X183446741Y-99147895D01*
X183446741Y-99147895D02*
X183422931Y-99171704D01*
X183422931Y-99171704D02*
X183375312Y-99195514D01*
X183375312Y-99195514D02*
X183184836Y-99195514D01*
X183446741Y-99957419D02*
X183399122Y-99933609D01*
X183399122Y-99933609D02*
X183327693Y-99933609D01*
X183327693Y-99933609D02*
X183256265Y-99957419D01*
X183256265Y-99957419D02*
X183208646Y-100005038D01*
X183208646Y-100005038D02*
X183184836Y-100052657D01*
X183184836Y-100052657D02*
X183161027Y-100147895D01*
X183161027Y-100147895D02*
X183161027Y-100219323D01*
X183161027Y-100219323D02*
X183184836Y-100314561D01*
X183184836Y-100314561D02*
X183208646Y-100362180D01*
X183208646Y-100362180D02*
X183256265Y-100409800D01*
X183256265Y-100409800D02*
X183327693Y-100433609D01*
X183327693Y-100433609D02*
X183375312Y-100433609D01*
X183375312Y-100433609D02*
X183446741Y-100409800D01*
X183446741Y-100409800D02*
X183470550Y-100385990D01*
X183470550Y-100385990D02*
X183470550Y-100219323D01*
X183470550Y-100219323D02*
X183375312Y-100219323D01*
D10*
X211033333Y-84409580D02*
X210985714Y-84457200D01*
X210985714Y-84457200D02*
X210842857Y-84504819D01*
X210842857Y-84504819D02*
X210747619Y-84504819D01*
X210747619Y-84504819D02*
X210604762Y-84457200D01*
X210604762Y-84457200D02*
X210509524Y-84361961D01*
X210509524Y-84361961D02*
X210461905Y-84266723D01*
X210461905Y-84266723D02*
X210414286Y-84076247D01*
X210414286Y-84076247D02*
X210414286Y-83933390D01*
X210414286Y-83933390D02*
X210461905Y-83742914D01*
X210461905Y-83742914D02*
X210509524Y-83647676D01*
X210509524Y-83647676D02*
X210604762Y-83552438D01*
X210604762Y-83552438D02*
X210747619Y-83504819D01*
X210747619Y-83504819D02*
X210842857Y-83504819D01*
X210842857Y-83504819D02*
X210985714Y-83552438D01*
X210985714Y-83552438D02*
X211033333Y-83600057D01*
X211890476Y-83504819D02*
X211700000Y-83504819D01*
X211700000Y-83504819D02*
X211604762Y-83552438D01*
X211604762Y-83552438D02*
X211557143Y-83600057D01*
X211557143Y-83600057D02*
X211461905Y-83742914D01*
X211461905Y-83742914D02*
X211414286Y-83933390D01*
X211414286Y-83933390D02*
X211414286Y-84314342D01*
X211414286Y-84314342D02*
X211461905Y-84409580D01*
X211461905Y-84409580D02*
X211509524Y-84457200D01*
X211509524Y-84457200D02*
X211604762Y-84504819D01*
X211604762Y-84504819D02*
X211795238Y-84504819D01*
X211795238Y-84504819D02*
X211890476Y-84457200D01*
X211890476Y-84457200D02*
X211938095Y-84409580D01*
X211938095Y-84409580D02*
X211985714Y-84314342D01*
X211985714Y-84314342D02*
X211985714Y-84076247D01*
X211985714Y-84076247D02*
X211938095Y-83981009D01*
X211938095Y-83981009D02*
X211890476Y-83933390D01*
X211890476Y-83933390D02*
X211795238Y-83885771D01*
X211795238Y-83885771D02*
X211604762Y-83885771D01*
X211604762Y-83885771D02*
X211509524Y-83933390D01*
X211509524Y-83933390D02*
X211461905Y-83981009D01*
X211461905Y-83981009D02*
X211414286Y-84076247D01*
X190633333Y-77809580D02*
X190585714Y-77857200D01*
X190585714Y-77857200D02*
X190442857Y-77904819D01*
X190442857Y-77904819D02*
X190347619Y-77904819D01*
X190347619Y-77904819D02*
X190204762Y-77857200D01*
X190204762Y-77857200D02*
X190109524Y-77761961D01*
X190109524Y-77761961D02*
X190061905Y-77666723D01*
X190061905Y-77666723D02*
X190014286Y-77476247D01*
X190014286Y-77476247D02*
X190014286Y-77333390D01*
X190014286Y-77333390D02*
X190061905Y-77142914D01*
X190061905Y-77142914D02*
X190109524Y-77047676D01*
X190109524Y-77047676D02*
X190204762Y-76952438D01*
X190204762Y-76952438D02*
X190347619Y-76904819D01*
X190347619Y-76904819D02*
X190442857Y-76904819D01*
X190442857Y-76904819D02*
X190585714Y-76952438D01*
X190585714Y-76952438D02*
X190633333Y-77000057D01*
X191585714Y-77904819D02*
X191014286Y-77904819D01*
X191300000Y-77904819D02*
X191300000Y-76904819D01*
X191300000Y-76904819D02*
X191204762Y-77047676D01*
X191204762Y-77047676D02*
X191109524Y-77142914D01*
X191109524Y-77142914D02*
X191014286Y-77190533D01*
X186209523Y-96354819D02*
X185876190Y-95878628D01*
X185638095Y-96354819D02*
X185638095Y-95354819D01*
X185638095Y-95354819D02*
X186019047Y-95354819D01*
X186019047Y-95354819D02*
X186114285Y-95402438D01*
X186114285Y-95402438D02*
X186161904Y-95450057D01*
X186161904Y-95450057D02*
X186209523Y-95545295D01*
X186209523Y-95545295D02*
X186209523Y-95688152D01*
X186209523Y-95688152D02*
X186161904Y-95783390D01*
X186161904Y-95783390D02*
X186114285Y-95831009D01*
X186114285Y-95831009D02*
X186019047Y-95878628D01*
X186019047Y-95878628D02*
X185638095Y-95878628D01*
X186638095Y-96354819D02*
X186638095Y-95354819D01*
X186638095Y-95354819D02*
X187209523Y-96354819D01*
X187209523Y-96354819D02*
X187209523Y-95354819D01*
X187638095Y-95450057D02*
X187685714Y-95402438D01*
X187685714Y-95402438D02*
X187780952Y-95354819D01*
X187780952Y-95354819D02*
X188019047Y-95354819D01*
X188019047Y-95354819D02*
X188114285Y-95402438D01*
X188114285Y-95402438D02*
X188161904Y-95450057D01*
X188161904Y-95450057D02*
X188209523Y-95545295D01*
X188209523Y-95545295D02*
X188209523Y-95640533D01*
X188209523Y-95640533D02*
X188161904Y-95783390D01*
X188161904Y-95783390D02*
X187590476Y-96354819D01*
X187590476Y-96354819D02*
X188209523Y-96354819D01*
X209838095Y-91004819D02*
X209838095Y-91814342D01*
X209838095Y-91814342D02*
X209885714Y-91909580D01*
X209885714Y-91909580D02*
X209933333Y-91957200D01*
X209933333Y-91957200D02*
X210028571Y-92004819D01*
X210028571Y-92004819D02*
X210219047Y-92004819D01*
X210219047Y-92004819D02*
X210314285Y-91957200D01*
X210314285Y-91957200D02*
X210361904Y-91909580D01*
X210361904Y-91909580D02*
X210409523Y-91814342D01*
X210409523Y-91814342D02*
X210409523Y-91004819D01*
X211314285Y-91338152D02*
X211314285Y-92004819D01*
X211076190Y-90957200D02*
X210838095Y-91671485D01*
X210838095Y-91671485D02*
X211457142Y-91671485D01*
X194883333Y-87179580D02*
X194835714Y-87227200D01*
X194835714Y-87227200D02*
X194692857Y-87274819D01*
X194692857Y-87274819D02*
X194597619Y-87274819D01*
X194597619Y-87274819D02*
X194454762Y-87227200D01*
X194454762Y-87227200D02*
X194359524Y-87131961D01*
X194359524Y-87131961D02*
X194311905Y-87036723D01*
X194311905Y-87036723D02*
X194264286Y-86846247D01*
X194264286Y-86846247D02*
X194264286Y-86703390D01*
X194264286Y-86703390D02*
X194311905Y-86512914D01*
X194311905Y-86512914D02*
X194359524Y-86417676D01*
X194359524Y-86417676D02*
X194454762Y-86322438D01*
X194454762Y-86322438D02*
X194597619Y-86274819D01*
X194597619Y-86274819D02*
X194692857Y-86274819D01*
X194692857Y-86274819D02*
X194835714Y-86322438D01*
X194835714Y-86322438D02*
X194883333Y-86370057D01*
X195454762Y-86703390D02*
X195359524Y-86655771D01*
X195359524Y-86655771D02*
X195311905Y-86608152D01*
X195311905Y-86608152D02*
X195264286Y-86512914D01*
X195264286Y-86512914D02*
X195264286Y-86465295D01*
X195264286Y-86465295D02*
X195311905Y-86370057D01*
X195311905Y-86370057D02*
X195359524Y-86322438D01*
X195359524Y-86322438D02*
X195454762Y-86274819D01*
X195454762Y-86274819D02*
X195645238Y-86274819D01*
X195645238Y-86274819D02*
X195740476Y-86322438D01*
X195740476Y-86322438D02*
X195788095Y-86370057D01*
X195788095Y-86370057D02*
X195835714Y-86465295D01*
X195835714Y-86465295D02*
X195835714Y-86512914D01*
X195835714Y-86512914D02*
X195788095Y-86608152D01*
X195788095Y-86608152D02*
X195740476Y-86655771D01*
X195740476Y-86655771D02*
X195645238Y-86703390D01*
X195645238Y-86703390D02*
X195454762Y-86703390D01*
X195454762Y-86703390D02*
X195359524Y-86751009D01*
X195359524Y-86751009D02*
X195311905Y-86798628D01*
X195311905Y-86798628D02*
X195264286Y-86893866D01*
X195264286Y-86893866D02*
X195264286Y-87084342D01*
X195264286Y-87084342D02*
X195311905Y-87179580D01*
X195311905Y-87179580D02*
X195359524Y-87227200D01*
X195359524Y-87227200D02*
X195454762Y-87274819D01*
X195454762Y-87274819D02*
X195645238Y-87274819D01*
X195645238Y-87274819D02*
X195740476Y-87227200D01*
X195740476Y-87227200D02*
X195788095Y-87179580D01*
X195788095Y-87179580D02*
X195835714Y-87084342D01*
X195835714Y-87084342D02*
X195835714Y-86893866D01*
X195835714Y-86893866D02*
X195788095Y-86798628D01*
X195788095Y-86798628D02*
X195740476Y-86751009D01*
X195740476Y-86751009D02*
X195645238Y-86703390D01*
X188484819Y-76390476D02*
X188008628Y-76723809D01*
X188484819Y-76961904D02*
X187484819Y-76961904D01*
X187484819Y-76961904D02*
X187484819Y-76580952D01*
X187484819Y-76580952D02*
X187532438Y-76485714D01*
X187532438Y-76485714D02*
X187580057Y-76438095D01*
X187580057Y-76438095D02*
X187675295Y-76390476D01*
X187675295Y-76390476D02*
X187818152Y-76390476D01*
X187818152Y-76390476D02*
X187913390Y-76438095D01*
X187913390Y-76438095D02*
X187961009Y-76485714D01*
X187961009Y-76485714D02*
X188008628Y-76580952D01*
X188008628Y-76580952D02*
X188008628Y-76961904D01*
X188484819Y-75961904D02*
X187484819Y-75961904D01*
X187484819Y-75961904D02*
X188484819Y-75390476D01*
X188484819Y-75390476D02*
X187484819Y-75390476D01*
X188484819Y-74390476D02*
X188484819Y-74961904D01*
X188484819Y-74676190D02*
X187484819Y-74676190D01*
X187484819Y-74676190D02*
X187627676Y-74771428D01*
X187627676Y-74771428D02*
X187722914Y-74866666D01*
X187722914Y-74866666D02*
X187770533Y-74961904D01*
X191066667Y-76037200D02*
X191209524Y-76084819D01*
X191209524Y-76084819D02*
X191447619Y-76084819D01*
X191447619Y-76084819D02*
X191542857Y-76037200D01*
X191542857Y-76037200D02*
X191590476Y-75989580D01*
X191590476Y-75989580D02*
X191638095Y-75894342D01*
X191638095Y-75894342D02*
X191638095Y-75799104D01*
X191638095Y-75799104D02*
X191590476Y-75703866D01*
X191590476Y-75703866D02*
X191542857Y-75656247D01*
X191542857Y-75656247D02*
X191447619Y-75608628D01*
X191447619Y-75608628D02*
X191257143Y-75561009D01*
X191257143Y-75561009D02*
X191161905Y-75513390D01*
X191161905Y-75513390D02*
X191114286Y-75465771D01*
X191114286Y-75465771D02*
X191066667Y-75370533D01*
X191066667Y-75370533D02*
X191066667Y-75275295D01*
X191066667Y-75275295D02*
X191114286Y-75180057D01*
X191114286Y-75180057D02*
X191161905Y-75132438D01*
X191161905Y-75132438D02*
X191257143Y-75084819D01*
X191257143Y-75084819D02*
X191495238Y-75084819D01*
X191495238Y-75084819D02*
X191638095Y-75132438D01*
X191971429Y-75084819D02*
X192209524Y-76084819D01*
X192209524Y-76084819D02*
X192400000Y-75370533D01*
X192400000Y-75370533D02*
X192590476Y-76084819D01*
X192590476Y-76084819D02*
X192828572Y-75084819D01*
X193161905Y-75180057D02*
X193209524Y-75132438D01*
X193209524Y-75132438D02*
X193304762Y-75084819D01*
X193304762Y-75084819D02*
X193542857Y-75084819D01*
X193542857Y-75084819D02*
X193638095Y-75132438D01*
X193638095Y-75132438D02*
X193685714Y-75180057D01*
X193685714Y-75180057D02*
X193733333Y-75275295D01*
X193733333Y-75275295D02*
X193733333Y-75370533D01*
X193733333Y-75370533D02*
X193685714Y-75513390D01*
X193685714Y-75513390D02*
X193114286Y-76084819D01*
X193114286Y-76084819D02*
X193733333Y-76084819D01*
X200700595Y-82604819D02*
X200700595Y-83414342D01*
X200700595Y-83414342D02*
X200748214Y-83509580D01*
X200748214Y-83509580D02*
X200795833Y-83557200D01*
X200795833Y-83557200D02*
X200891071Y-83604819D01*
X200891071Y-83604819D02*
X201081547Y-83604819D01*
X201081547Y-83604819D02*
X201176785Y-83557200D01*
X201176785Y-83557200D02*
X201224404Y-83509580D01*
X201224404Y-83509580D02*
X201272023Y-83414342D01*
X201272023Y-83414342D02*
X201272023Y-82604819D01*
X201652976Y-82604819D02*
X202272023Y-82604819D01*
X202272023Y-82604819D02*
X201938690Y-82985771D01*
X201938690Y-82985771D02*
X202081547Y-82985771D01*
X202081547Y-82985771D02*
X202176785Y-83033390D01*
X202176785Y-83033390D02*
X202224404Y-83081009D01*
X202224404Y-83081009D02*
X202272023Y-83176247D01*
X202272023Y-83176247D02*
X202272023Y-83414342D01*
X202272023Y-83414342D02*
X202224404Y-83509580D01*
X202224404Y-83509580D02*
X202176785Y-83557200D01*
X202176785Y-83557200D02*
X202081547Y-83604819D01*
X202081547Y-83604819D02*
X201795833Y-83604819D01*
X201795833Y-83604819D02*
X201700595Y-83557200D01*
X201700595Y-83557200D02*
X201652976Y-83509580D01*
X206683333Y-77909580D02*
X206635714Y-77957200D01*
X206635714Y-77957200D02*
X206492857Y-78004819D01*
X206492857Y-78004819D02*
X206397619Y-78004819D01*
X206397619Y-78004819D02*
X206254762Y-77957200D01*
X206254762Y-77957200D02*
X206159524Y-77861961D01*
X206159524Y-77861961D02*
X206111905Y-77766723D01*
X206111905Y-77766723D02*
X206064286Y-77576247D01*
X206064286Y-77576247D02*
X206064286Y-77433390D01*
X206064286Y-77433390D02*
X206111905Y-77242914D01*
X206111905Y-77242914D02*
X206159524Y-77147676D01*
X206159524Y-77147676D02*
X206254762Y-77052438D01*
X206254762Y-77052438D02*
X206397619Y-77004819D01*
X206397619Y-77004819D02*
X206492857Y-77004819D01*
X206492857Y-77004819D02*
X206635714Y-77052438D01*
X206635714Y-77052438D02*
X206683333Y-77100057D01*
X207016667Y-77004819D02*
X207635714Y-77004819D01*
X207635714Y-77004819D02*
X207302381Y-77385771D01*
X207302381Y-77385771D02*
X207445238Y-77385771D01*
X207445238Y-77385771D02*
X207540476Y-77433390D01*
X207540476Y-77433390D02*
X207588095Y-77481009D01*
X207588095Y-77481009D02*
X207635714Y-77576247D01*
X207635714Y-77576247D02*
X207635714Y-77814342D01*
X207635714Y-77814342D02*
X207588095Y-77909580D01*
X207588095Y-77909580D02*
X207540476Y-77957200D01*
X207540476Y-77957200D02*
X207445238Y-78004819D01*
X207445238Y-78004819D02*
X207159524Y-78004819D01*
X207159524Y-78004819D02*
X207064286Y-77957200D01*
X207064286Y-77957200D02*
X207016667Y-77909580D01*
X194983333Y-77809580D02*
X194935714Y-77857200D01*
X194935714Y-77857200D02*
X194792857Y-77904819D01*
X194792857Y-77904819D02*
X194697619Y-77904819D01*
X194697619Y-77904819D02*
X194554762Y-77857200D01*
X194554762Y-77857200D02*
X194459524Y-77761961D01*
X194459524Y-77761961D02*
X194411905Y-77666723D01*
X194411905Y-77666723D02*
X194364286Y-77476247D01*
X194364286Y-77476247D02*
X194364286Y-77333390D01*
X194364286Y-77333390D02*
X194411905Y-77142914D01*
X194411905Y-77142914D02*
X194459524Y-77047676D01*
X194459524Y-77047676D02*
X194554762Y-76952438D01*
X194554762Y-76952438D02*
X194697619Y-76904819D01*
X194697619Y-76904819D02*
X194792857Y-76904819D01*
X194792857Y-76904819D02*
X194935714Y-76952438D01*
X194935714Y-76952438D02*
X194983333Y-77000057D01*
X195840476Y-77238152D02*
X195840476Y-77904819D01*
X195602381Y-76857200D02*
X195364286Y-77571485D01*
X195364286Y-77571485D02*
X195983333Y-77571485D01*
X179454166Y-87829819D02*
X179454166Y-88544104D01*
X179454166Y-88544104D02*
X179406547Y-88686961D01*
X179406547Y-88686961D02*
X179311309Y-88782200D01*
X179311309Y-88782200D02*
X179168452Y-88829819D01*
X179168452Y-88829819D02*
X179073214Y-88829819D01*
X180454166Y-88829819D02*
X179882738Y-88829819D01*
X180168452Y-88829819D02*
X180168452Y-87829819D01*
X180168452Y-87829819D02*
X180073214Y-87972676D01*
X180073214Y-87972676D02*
X179977976Y-88067914D01*
X179977976Y-88067914D02*
X179882738Y-88115533D01*
D12*
X183446741Y-97557419D02*
X183399122Y-97533609D01*
X183399122Y-97533609D02*
X183327693Y-97533609D01*
X183327693Y-97533609D02*
X183256265Y-97557419D01*
X183256265Y-97557419D02*
X183208646Y-97605038D01*
X183208646Y-97605038D02*
X183184836Y-97652657D01*
X183184836Y-97652657D02*
X183161027Y-97747895D01*
X183161027Y-97747895D02*
X183161027Y-97819323D01*
X183161027Y-97819323D02*
X183184836Y-97914561D01*
X183184836Y-97914561D02*
X183208646Y-97962180D01*
X183208646Y-97962180D02*
X183256265Y-98009800D01*
X183256265Y-98009800D02*
X183327693Y-98033609D01*
X183327693Y-98033609D02*
X183375312Y-98033609D01*
X183375312Y-98033609D02*
X183446741Y-98009800D01*
X183446741Y-98009800D02*
X183470550Y-97985990D01*
X183470550Y-97985990D02*
X183470550Y-97819323D01*
X183470550Y-97819323D02*
X183375312Y-97819323D01*
X183470550Y-97033609D02*
X183303884Y-96795514D01*
X183184836Y-97033609D02*
X183184836Y-96533609D01*
X183184836Y-96533609D02*
X183375312Y-96533609D01*
X183375312Y-96533609D02*
X183422931Y-96557419D01*
X183422931Y-96557419D02*
X183446741Y-96581228D01*
X183446741Y-96581228D02*
X183470550Y-96628847D01*
X183470550Y-96628847D02*
X183470550Y-96700276D01*
X183470550Y-96700276D02*
X183446741Y-96747895D01*
X183446741Y-96747895D02*
X183422931Y-96771704D01*
X183422931Y-96771704D02*
X183375312Y-96795514D01*
X183375312Y-96795514D02*
X183184836Y-96795514D01*
%TO.C,kibuzzard-65DE4157*%
G36*
X184155477Y-102659574D02*
G01*
X184227700Y-102670288D01*
X184298525Y-102688028D01*
X184367271Y-102712626D01*
X184433274Y-102743843D01*
X184495900Y-102781380D01*
X184554545Y-102824874D01*
X184608645Y-102873907D01*
X184657677Y-102928006D01*
X184701172Y-102986651D01*
X184738708Y-103049277D01*
X184769925Y-103115280D01*
X184794523Y-103184026D01*
X184812264Y-103254851D01*
X184822977Y-103327074D01*
X184826560Y-103400000D01*
X184822977Y-103472926D01*
X184812264Y-103545149D01*
X184794523Y-103615974D01*
X184769925Y-103684720D01*
X184738708Y-103750723D01*
X184701172Y-103813349D01*
X184657677Y-103871994D01*
X184608645Y-103926093D01*
X184554545Y-103975126D01*
X184495900Y-104018620D01*
X184433274Y-104056157D01*
X184367271Y-104087374D01*
X184298525Y-104111972D01*
X184227700Y-104129712D01*
X184155477Y-104140426D01*
X184082551Y-104144008D01*
X184082445Y-104144008D01*
X183988465Y-104144008D01*
X183023900Y-104144008D01*
X182135535Y-104144008D01*
X181284000Y-104144008D01*
X179973995Y-104144008D01*
X179208185Y-104144008D01*
X178870365Y-104144008D01*
X178817449Y-104144008D01*
X178744523Y-104140426D01*
X178672300Y-104129712D01*
X178601475Y-104111972D01*
X178532729Y-104087374D01*
X178466726Y-104056157D01*
X178404100Y-104018620D01*
X178345455Y-103975126D01*
X178291355Y-103926093D01*
X178242323Y-103871994D01*
X178198828Y-103813349D01*
X178161292Y-103750723D01*
X178130075Y-103684720D01*
X178122264Y-103662890D01*
X178870365Y-103662890D01*
X178903385Y-103735915D01*
X178914815Y-103749885D01*
X178951645Y-103788620D01*
X179008795Y-103828625D01*
X179095155Y-103864820D01*
X179150083Y-103875774D01*
X179208185Y-103879425D01*
X179284527Y-103871946D01*
X179357763Y-103849509D01*
X179427895Y-103812115D01*
X179476155Y-103770681D01*
X179488638Y-103752425D01*
X179629825Y-103752425D01*
X179645065Y-103833705D01*
X179678720Y-103857518D01*
X179741585Y-103865455D01*
X179973995Y-103865455D01*
X180067539Y-103856803D01*
X180153859Y-103830848D01*
X180232956Y-103787588D01*
X180247557Y-103775285D01*
X180492155Y-103775285D01*
X180510570Y-103818465D01*
X180565815Y-103856565D01*
X180633760Y-103878155D01*
X180674400Y-103866090D01*
X180697260Y-103842595D01*
X180716945Y-103805765D01*
X180782985Y-103668605D01*
X181134775Y-103668605D01*
X181200815Y-103805765D01*
X181220500Y-103843865D01*
X181243360Y-103867995D01*
X181284000Y-103879425D01*
X181351945Y-103857835D01*
X181407190Y-103818783D01*
X181425605Y-103775285D01*
X181404015Y-103710515D01*
X181380971Y-103662890D01*
X181797715Y-103662890D01*
X181830735Y-103735915D01*
X181842165Y-103749885D01*
X181878995Y-103788620D01*
X181936145Y-103828625D01*
X182022505Y-103864820D01*
X182077433Y-103875774D01*
X182135535Y-103879425D01*
X182211877Y-103871946D01*
X182285113Y-103849509D01*
X182355245Y-103812115D01*
X182403505Y-103770681D01*
X182441605Y-103714960D01*
X182466370Y-103647174D01*
X182474625Y-103569545D01*
X182466529Y-103493504D01*
X182442240Y-103430480D01*
X182416805Y-103396825D01*
X182538125Y-103396825D01*
X182546539Y-103492234D01*
X182571780Y-103580340D01*
X182610039Y-103657175D01*
X182657505Y-103718770D01*
X182712909Y-103768618D01*
X182774980Y-103810210D01*
X182839433Y-103842278D01*
X182901980Y-103863550D01*
X182963258Y-103875456D01*
X183023900Y-103879425D01*
X183085337Y-103874345D01*
X183148995Y-103859105D01*
X183234720Y-103826085D01*
X183278535Y-103799415D01*
X183318540Y-103767665D01*
X183323928Y-103753695D01*
X183419505Y-103753695D01*
X183427125Y-103818465D01*
X183460780Y-103854660D01*
X183531265Y-103866725D01*
X183988465Y-103866725D01*
X184054505Y-103854025D01*
X184076095Y-103826085D01*
X184082445Y-103772110D01*
X184076095Y-103718135D01*
X184050695Y-103688290D01*
X183989735Y-103678765D01*
X183644295Y-103678765D01*
X183644295Y-103048845D01*
X183637945Y-102982805D01*
X183603338Y-102947563D01*
X183532535Y-102935815D01*
X183467130Y-102944387D01*
X183433475Y-102970105D01*
X183421410Y-103003760D01*
X183419505Y-103047575D01*
X183419505Y-103753695D01*
X183323928Y-103753695D01*
X183335685Y-103723215D01*
X183307745Y-103652095D01*
X183263613Y-103598755D01*
X183222655Y-103580975D01*
X183161695Y-103606375D01*
X183138835Y-103622885D01*
X183088670Y-103643205D01*
X183014375Y-103653365D01*
X182932143Y-103639395D01*
X182853085Y-103597485D01*
X182788315Y-103517475D01*
X182769265Y-103463341D01*
X182762915Y-103402540D01*
X182769265Y-103341739D01*
X182788315Y-103287605D01*
X182851815Y-103208865D01*
X182932460Y-103166002D01*
X183014375Y-103151715D01*
X183094385Y-103162510D01*
X183156615Y-103194895D01*
X183221385Y-103222835D01*
X183263295Y-103205690D01*
X183310285Y-103154255D01*
X183336955Y-103083770D01*
X183303935Y-103023445D01*
X183268375Y-103000585D01*
X183237895Y-102982805D01*
X183144550Y-102945340D01*
X183083432Y-102931529D01*
X183023265Y-102926925D01*
X182939587Y-102934545D01*
X182856190Y-102957405D01*
X182773075Y-102995505D01*
X182710687Y-103035351D01*
X182655600Y-103083770D01*
X182608769Y-103143460D01*
X182571145Y-103217120D01*
X182546380Y-103302369D01*
X182538125Y-103396825D01*
X182416805Y-103396825D01*
X182405887Y-103382379D01*
X182361595Y-103351105D01*
X182311113Y-103329991D01*
X182256185Y-103312370D01*
X182201258Y-103298559D01*
X182150775Y-103288875D01*
X182070130Y-103259665D01*
X182037745Y-103203150D01*
X182065050Y-103148540D01*
X182133630Y-103128855D01*
X182201575Y-103145365D01*
X182221260Y-103161875D01*
X182235865Y-103174575D01*
X182301905Y-103199975D01*
X182346990Y-103184100D01*
X182390805Y-103136475D01*
X182421285Y-103066625D01*
X182381915Y-103004395D01*
X182350165Y-102980265D01*
X182263170Y-102940260D01*
X182196972Y-102925496D01*
X182124105Y-102920575D01*
X182035135Y-102929818D01*
X181959570Y-102957546D01*
X181897410Y-103003760D01*
X181851197Y-103062392D01*
X181823468Y-103127373D01*
X181814225Y-103198705D01*
X181822322Y-103274111D01*
X181846610Y-103337770D01*
X181882964Y-103387776D01*
X181927255Y-103422225D01*
X181977420Y-103447149D01*
X182031395Y-103468580D01*
X182085370Y-103485566D01*
X182135535Y-103497155D01*
X182216180Y-103525730D01*
X182248565Y-103574625D01*
X182235442Y-103628247D01*
X182196072Y-103660421D01*
X182130455Y-103671145D01*
X182069495Y-103651460D01*
X182018695Y-103610185D01*
X181962180Y-103562560D01*
X181919635Y-103546685D01*
X181852325Y-103577165D01*
X181811368Y-103625266D01*
X181797715Y-103662890D01*
X181380971Y-103662890D01*
X181061115Y-103001855D01*
X181019205Y-102952325D01*
X180959515Y-102935815D01*
X180899190Y-102953595D01*
X180856645Y-103000585D01*
X180513745Y-103710515D01*
X180492155Y-103775285D01*
X180247557Y-103775285D01*
X180304830Y-103727025D01*
X180364560Y-103654357D01*
X180407224Y-103574784D01*
X180432823Y-103488305D01*
X180441355Y-103394920D01*
X180432624Y-103301893D01*
X180406430Y-103216485D01*
X180362774Y-103138697D01*
X180301655Y-103068530D01*
X180229027Y-103010467D01*
X180150843Y-102968994D01*
X180067102Y-102944110D01*
X179977805Y-102935815D01*
X179742855Y-102934545D01*
X179677450Y-102943117D01*
X179643795Y-102968835D01*
X179631730Y-103001855D01*
X179629825Y-103046305D01*
X179629825Y-103752425D01*
X179488638Y-103752425D01*
X179514255Y-103714960D01*
X179539020Y-103647174D01*
X179547275Y-103569545D01*
X179539179Y-103493504D01*
X179514890Y-103430480D01*
X179478537Y-103382379D01*
X179434245Y-103351105D01*
X179383763Y-103329991D01*
X179328835Y-103312370D01*
X179273908Y-103298559D01*
X179223425Y-103288875D01*
X179142780Y-103259665D01*
X179110395Y-103203150D01*
X179137700Y-103148540D01*
X179206280Y-103128855D01*
X179274225Y-103145365D01*
X179293910Y-103161875D01*
X179308515Y-103174575D01*
X179374555Y-103199975D01*
X179419640Y-103184100D01*
X179463455Y-103136475D01*
X179493935Y-103066625D01*
X179454565Y-103004395D01*
X179422815Y-102980265D01*
X179335820Y-102940260D01*
X179269622Y-102925496D01*
X179196755Y-102920575D01*
X179107785Y-102929818D01*
X179032220Y-102957546D01*
X178970060Y-103003760D01*
X178923847Y-103062392D01*
X178896118Y-103127373D01*
X178886875Y-103198705D01*
X178894972Y-103274111D01*
X178919260Y-103337770D01*
X178955614Y-103387776D01*
X178999905Y-103422225D01*
X179050070Y-103447149D01*
X179104045Y-103468580D01*
X179158020Y-103485566D01*
X179208185Y-103497155D01*
X179288830Y-103525730D01*
X179321215Y-103574625D01*
X179308092Y-103628247D01*
X179268722Y-103660421D01*
X179203105Y-103671145D01*
X179142145Y-103651460D01*
X179091345Y-103610185D01*
X179034830Y-103562560D01*
X178992285Y-103546685D01*
X178924975Y-103577165D01*
X178884018Y-103625266D01*
X178870365Y-103662890D01*
X178122264Y-103662890D01*
X178105477Y-103615974D01*
X178087736Y-103545149D01*
X178077023Y-103472926D01*
X178073440Y-103400000D01*
X178077023Y-103327074D01*
X178087736Y-103254851D01*
X178105477Y-103184026D01*
X178130075Y-103115280D01*
X178161292Y-103049277D01*
X178198828Y-102986651D01*
X178242323Y-102928006D01*
X178291355Y-102873907D01*
X178345455Y-102824874D01*
X178404100Y-102781380D01*
X178466726Y-102743843D01*
X178532729Y-102712626D01*
X178601475Y-102688028D01*
X178672300Y-102670288D01*
X178744523Y-102659574D01*
X178817449Y-102655992D01*
X178870365Y-102655992D01*
X184082445Y-102655992D01*
X184082551Y-102655992D01*
X184155477Y-102659574D01*
G37*
G36*
X180066864Y-103177909D02*
G01*
X180144810Y-103229820D01*
X180198627Y-103307449D01*
X180216565Y-103401905D01*
X180198150Y-103496044D01*
X180142905Y-103572720D01*
X180064800Y-103623679D01*
X179977805Y-103640665D01*
X179854615Y-103640665D01*
X179854615Y-103160605D01*
X179976535Y-103160605D01*
X180066864Y-103177909D01*
G37*
G36*
X181043335Y-103480645D02*
G01*
X180874425Y-103480645D01*
X180958245Y-103306655D01*
X181043335Y-103480645D01*
G37*
%TO.C,kibuzzard-65DE40B1*%
G36*
X219455673Y-89287477D02*
G01*
X219455515Y-89287477D01*
X218779850Y-89287477D01*
X218004393Y-89287477D01*
X216766599Y-89287477D01*
X215320075Y-89287477D01*
X214623702Y-89287477D01*
X214544327Y-89287477D01*
X214544327Y-87672861D01*
X214623702Y-87672861D01*
X214651046Y-87760363D01*
X215154185Y-88781224D01*
X215215254Y-88845940D01*
X215301845Y-88870550D01*
X215320075Y-88870550D01*
X215404843Y-88845940D01*
X215465912Y-88781224D01*
X215753420Y-88197875D01*
X216069314Y-88197875D01*
X216081391Y-88334825D01*
X216117623Y-88461294D01*
X216172539Y-88571583D01*
X216240673Y-88659997D01*
X216320200Y-88731549D01*
X216409297Y-88791251D01*
X216501813Y-88837281D01*
X216591594Y-88867815D01*
X216679552Y-88884906D01*
X216766599Y-88890602D01*
X216854785Y-88883310D01*
X216946161Y-88861435D01*
X217069211Y-88814038D01*
X217132103Y-88775755D01*
X217189527Y-88730181D01*
X217214137Y-88666377D01*
X217174032Y-88564291D01*
X217110684Y-88487727D01*
X217051893Y-88462205D01*
X216964391Y-88498665D01*
X216931577Y-88522363D01*
X216859570Y-88551531D01*
X216752926Y-88566114D01*
X216634889Y-88546062D01*
X216521410Y-88485904D01*
X216428438Y-88371057D01*
X216401094Y-88293353D01*
X216391979Y-88206078D01*
X216392836Y-88197875D01*
X217307108Y-88197875D01*
X217319185Y-88334825D01*
X217355417Y-88461294D01*
X217410334Y-88571583D01*
X217478467Y-88659997D01*
X217557994Y-88731549D01*
X217647092Y-88791251D01*
X217739607Y-88837281D01*
X217829388Y-88867815D01*
X217917346Y-88884906D01*
X218004393Y-88890602D01*
X218092579Y-88883310D01*
X218183955Y-88861435D01*
X218307005Y-88814038D01*
X218369898Y-88775755D01*
X218427321Y-88730181D01*
X218451931Y-88666377D01*
X218411826Y-88564291D01*
X218348478Y-88487727D01*
X218289687Y-88462205D01*
X218202185Y-88498665D01*
X218169371Y-88522363D01*
X218097364Y-88551531D01*
X217990721Y-88566114D01*
X217872684Y-88546062D01*
X217759204Y-88485904D01*
X217666233Y-88371057D01*
X217638888Y-88293353D01*
X217629773Y-88206078D01*
X217638888Y-88118804D01*
X217666233Y-88041100D01*
X217757381Y-87928076D01*
X217873139Y-87866551D01*
X217990721Y-87846043D01*
X218105568Y-87861538D01*
X218194893Y-87908023D01*
X218287864Y-87948129D01*
X218348022Y-87923519D01*
X218415472Y-87849688D01*
X218453754Y-87748514D01*
X218406357Y-87661923D01*
X218355314Y-87629110D01*
X218311563Y-87603588D01*
X218177575Y-87549810D01*
X218089844Y-87529986D01*
X218003481Y-87523377D01*
X217883368Y-87534315D01*
X217805766Y-87555587D01*
X217763660Y-87567129D01*
X217644357Y-87621818D01*
X217554804Y-87679013D01*
X217475733Y-87748514D01*
X217408511Y-87834193D01*
X217354505Y-87939925D01*
X217318958Y-88062292D01*
X217307108Y-88197875D01*
X216392836Y-88197875D01*
X216401094Y-88118804D01*
X216428438Y-88041100D01*
X216519587Y-87928076D01*
X216635345Y-87866551D01*
X216752926Y-87846043D01*
X216867773Y-87861538D01*
X216957099Y-87908023D01*
X217050070Y-87948129D01*
X217110228Y-87923519D01*
X217177678Y-87849688D01*
X217215960Y-87748514D01*
X217168563Y-87661923D01*
X217117520Y-87629110D01*
X217073769Y-87603588D01*
X216995906Y-87572337D01*
X216939781Y-87549810D01*
X216852050Y-87529986D01*
X216765687Y-87523377D01*
X216645574Y-87534315D01*
X216525866Y-87567129D01*
X216406563Y-87621818D01*
X216317010Y-87679013D01*
X216237938Y-87748514D01*
X216170717Y-87834193D01*
X216116711Y-87939925D01*
X216081163Y-88062292D01*
X216069314Y-88197875D01*
X215753420Y-88197875D01*
X215969051Y-87760363D01*
X215996395Y-87672861D01*
X215969507Y-87611791D01*
X215888840Y-87556191D01*
X215781285Y-87525200D01*
X215701075Y-87574421D01*
X215675553Y-87629110D01*
X215310960Y-88427569D01*
X215246245Y-88288112D01*
X215186998Y-88159365D01*
X215142520Y-88062833D01*
X215124106Y-88022870D01*
X215061441Y-87886376D01*
X215002879Y-87757629D01*
X214957077Y-87657365D01*
X214932694Y-87606322D01*
X214902615Y-87558014D01*
X214871625Y-87532492D01*
X214823316Y-87525200D01*
X214731257Y-87556191D01*
X214650590Y-87611791D01*
X214623702Y-87672861D01*
X214544327Y-87672861D01*
X214544327Y-83808639D01*
X214643278Y-83808639D01*
X214692076Y-83916557D01*
X214708968Y-83937203D01*
X214763396Y-83994447D01*
X214847855Y-84053567D01*
X214975480Y-84107057D01*
X215056654Y-84123245D01*
X215142520Y-84128641D01*
X215255339Y-84117589D01*
X215363571Y-84084431D01*
X215467214Y-84029168D01*
X215538534Y-83967936D01*
X215594840Y-83885589D01*
X215631438Y-83785413D01*
X215643638Y-83670690D01*
X215631673Y-83558314D01*
X215595778Y-83465176D01*
X215542053Y-83394090D01*
X215476598Y-83347873D01*
X215401994Y-83316670D01*
X215320820Y-83290629D01*
X215239646Y-83270218D01*
X215165042Y-83255907D01*
X215045862Y-83212740D01*
X214998002Y-83129220D01*
X215038355Y-83048516D01*
X215139704Y-83019424D01*
X215240116Y-83043823D01*
X215269207Y-83068222D01*
X215290791Y-83086991D01*
X215388387Y-83124528D01*
X215455015Y-83101067D01*
X215519766Y-83030685D01*
X215564810Y-82927459D01*
X215523251Y-82861769D01*
X215718712Y-82861769D01*
X215739357Y-82953735D01*
X216101589Y-83995385D01*
X216114727Y-84023538D01*
X216166340Y-84079843D01*
X216264874Y-84107996D01*
X216368101Y-84064828D01*
X216398130Y-84027291D01*
X216415022Y-83995385D01*
X216424707Y-83966707D01*
X216450757Y-83889681D01*
X216493174Y-83764308D01*
X216551957Y-83590587D01*
X216627106Y-83368518D01*
X216846697Y-84016030D01*
X216900187Y-84077028D01*
X216995906Y-84107996D01*
X217091626Y-84077028D01*
X217141362Y-84027291D01*
X217154500Y-83995385D01*
X217172680Y-83942833D01*
X217640603Y-83942833D01*
X217651864Y-84038552D01*
X217701601Y-84092043D01*
X217805766Y-84109873D01*
X217902424Y-84097204D01*
X217952160Y-84059198D01*
X217969990Y-84010400D01*
X217972805Y-83944710D01*
X217972805Y-83434208D01*
X218094800Y-83434208D01*
X218107293Y-83571921D01*
X218144771Y-83699782D01*
X218207235Y-83817788D01*
X218294685Y-83925942D01*
X218399964Y-84016265D01*
X218515918Y-84080782D01*
X218642547Y-84119492D01*
X218779850Y-84132395D01*
X218916860Y-84119316D01*
X219042608Y-84080078D01*
X219157096Y-84014681D01*
X219260323Y-83923126D01*
X219345719Y-83812979D01*
X219406717Y-83691805D01*
X219443315Y-83559605D01*
X219455515Y-83416378D01*
X219442729Y-83273679D01*
X219404371Y-83143062D01*
X219340440Y-83024527D01*
X219250938Y-82918075D01*
X219144075Y-82830215D01*
X219028063Y-82767458D01*
X218902900Y-82729803D01*
X218768589Y-82717252D01*
X218640963Y-82730390D01*
X218517091Y-82769804D01*
X218402134Y-82832209D01*
X218301254Y-82914321D01*
X218216795Y-83017313D01*
X218151106Y-83142358D01*
X218108877Y-83283356D01*
X218094800Y-83434208D01*
X217972805Y-83434208D01*
X217972805Y-82901183D01*
X217963421Y-82803587D01*
X217912277Y-82751504D01*
X217807643Y-82734144D01*
X217752942Y-82741313D01*
X217710985Y-82746812D01*
X217661249Y-82784818D01*
X217643419Y-82834555D01*
X217640603Y-82899306D01*
X217640603Y-83942833D01*
X217172680Y-83942833D01*
X217514855Y-82953735D01*
X217537377Y-82861769D01*
X217505940Y-82794203D01*
X217411628Y-82741651D01*
X217323416Y-82722883D01*
X217260542Y-82742589D01*
X217225820Y-82782942D01*
X217201421Y-82846754D01*
X216994968Y-83477375D01*
X216779130Y-82826109D01*
X216726579Y-82765112D01*
X216642327Y-82735845D01*
X216637428Y-82734144D01*
X216559539Y-82747282D01*
X216463820Y-82856139D01*
X216259244Y-83473621D01*
X216052791Y-82846754D01*
X216010561Y-82754789D01*
X215942995Y-82724759D01*
X215844461Y-82743528D01*
X215750149Y-82794672D01*
X215718712Y-82861769D01*
X215523251Y-82861769D01*
X215506628Y-82835493D01*
X215459707Y-82799833D01*
X215352642Y-82750599D01*
X215331143Y-82740713D01*
X215233312Y-82718894D01*
X215125628Y-82711621D01*
X214994144Y-82725281D01*
X214882472Y-82766259D01*
X214790611Y-82834555D01*
X214722314Y-82921203D01*
X214681337Y-83017235D01*
X214667677Y-83122651D01*
X214679642Y-83234089D01*
X214715537Y-83328166D01*
X214769262Y-83402067D01*
X214834717Y-83452976D01*
X214908852Y-83489809D01*
X214988618Y-83521481D01*
X215068384Y-83546584D01*
X215142520Y-83563710D01*
X215261699Y-83605939D01*
X215309559Y-83678198D01*
X215265922Y-83785178D01*
X215135012Y-83820838D01*
X215044924Y-83791747D01*
X214969850Y-83730750D01*
X214886330Y-83660368D01*
X214823456Y-83636907D01*
X214723983Y-83681951D01*
X214663454Y-83753037D01*
X214643278Y-83808639D01*
X214544327Y-83808639D01*
X214544327Y-80475133D01*
X214624932Y-80475133D01*
X214653507Y-80566573D01*
X215179287Y-81633373D01*
X215243105Y-81701000D01*
X215333592Y-81726718D01*
X215352642Y-81726718D01*
X215441225Y-81701000D01*
X215505042Y-81633373D01*
X215608790Y-81422870D01*
X216135597Y-81422870D01*
X216185127Y-81532408D01*
X216202272Y-81553363D01*
X216257517Y-81611465D01*
X216343242Y-81671473D01*
X216472782Y-81725765D01*
X216555173Y-81742196D01*
X216642327Y-81747673D01*
X216756839Y-81736454D01*
X216866694Y-81702799D01*
X216971892Y-81646708D01*
X217044282Y-81584557D01*
X217101432Y-81500975D01*
X217129967Y-81422870D01*
X217246212Y-81422870D01*
X217295742Y-81532408D01*
X217312887Y-81553363D01*
X217368132Y-81611465D01*
X217453857Y-81671473D01*
X217583397Y-81725765D01*
X217665788Y-81742196D01*
X217752942Y-81747673D01*
X217867454Y-81736454D01*
X217977309Y-81702799D01*
X218082507Y-81646708D01*
X218154897Y-81584557D01*
X218212047Y-81500975D01*
X218249195Y-81399296D01*
X218261577Y-81282853D01*
X218249433Y-81168791D01*
X218213000Y-81074255D01*
X218158469Y-81002103D01*
X218092032Y-80955193D01*
X218016308Y-80923522D01*
X217933917Y-80897090D01*
X217851526Y-80876373D01*
X217775802Y-80861848D01*
X217654835Y-80818033D01*
X217606257Y-80733260D01*
X217647215Y-80651345D01*
X217750085Y-80621818D01*
X217852002Y-80646583D01*
X217881530Y-80671348D01*
X217903437Y-80690398D01*
X218002497Y-80728498D01*
X218070125Y-80704685D01*
X218135847Y-80633248D01*
X218181567Y-80528473D01*
X218122512Y-80435128D01*
X218074887Y-80398933D01*
X217944395Y-80338925D01*
X217845096Y-80316780D01*
X217735797Y-80309398D01*
X217602341Y-80323262D01*
X217488994Y-80364854D01*
X217395755Y-80434175D01*
X217326434Y-80522123D01*
X217284841Y-80619595D01*
X217270977Y-80726593D01*
X217283121Y-80839702D01*
X217319555Y-80935190D01*
X217374085Y-81010200D01*
X217440522Y-81061873D01*
X217515770Y-81099258D01*
X217596732Y-81131405D01*
X217677695Y-81156885D01*
X217752942Y-81174268D01*
X217873910Y-81217130D01*
X217922487Y-81290473D01*
X217902802Y-81370906D01*
X217843747Y-81419166D01*
X217745322Y-81435253D01*
X217653882Y-81405725D01*
X217577682Y-81343813D01*
X217492910Y-81272375D01*
X217429092Y-81248563D01*
X217328127Y-81294283D01*
X217266691Y-81366435D01*
X217246212Y-81422870D01*
X217129967Y-81422870D01*
X217138580Y-81399296D01*
X217150962Y-81282853D01*
X217138818Y-81168791D01*
X217102385Y-81074255D01*
X217047854Y-81002103D01*
X216981417Y-80955193D01*
X216905693Y-80923522D01*
X216823302Y-80897090D01*
X216740911Y-80876373D01*
X216665187Y-80861848D01*
X216544220Y-80818033D01*
X216495642Y-80733260D01*
X216536600Y-80651345D01*
X216639470Y-80621818D01*
X216741387Y-80646583D01*
X216770915Y-80671348D01*
X216792822Y-80690398D01*
X216891882Y-80728498D01*
X216959510Y-80704685D01*
X217025232Y-80633248D01*
X217070952Y-80528473D01*
X217011897Y-80435128D01*
X216964272Y-80398933D01*
X216833780Y-80338925D01*
X216734481Y-80316780D01*
X216625182Y-80309398D01*
X216491726Y-80323262D01*
X216378379Y-80364854D01*
X216285140Y-80434175D01*
X216215819Y-80522123D01*
X216174226Y-80619595D01*
X216160362Y-80726593D01*
X216172506Y-80839702D01*
X216208940Y-80935190D01*
X216263470Y-81010200D01*
X216329907Y-81061873D01*
X216405155Y-81099258D01*
X216486117Y-81131405D01*
X216567080Y-81156885D01*
X216642327Y-81174268D01*
X216763295Y-81217130D01*
X216811872Y-81290473D01*
X216792187Y-81370906D01*
X216733132Y-81419166D01*
X216634707Y-81435253D01*
X216543267Y-81405725D01*
X216467067Y-81343813D01*
X216382295Y-81272375D01*
X216318477Y-81248563D01*
X216217512Y-81294283D01*
X216156076Y-81366435D01*
X216135597Y-81422870D01*
X215608790Y-81422870D01*
X216030822Y-80566573D01*
X216059397Y-80475133D01*
X216031298Y-80411315D01*
X215947002Y-80353213D01*
X215834607Y-80320828D01*
X215750787Y-80372263D01*
X215724117Y-80429413D01*
X215343117Y-81263803D01*
X215322400Y-81219750D01*
X215275490Y-81118070D01*
X215213577Y-80983530D01*
X215147855Y-80840893D01*
X215082370Y-80698256D01*
X215021172Y-80563715D01*
X214973309Y-80458940D01*
X214947830Y-80405600D01*
X214916397Y-80355118D01*
X214884012Y-80328448D01*
X214833530Y-80320828D01*
X214737327Y-80353213D01*
X214653031Y-80411315D01*
X214624932Y-80475133D01*
X214544327Y-80475133D01*
X214544327Y-79912523D01*
X214623702Y-79912523D01*
X219455515Y-79912523D01*
X219455673Y-79912523D01*
X219455673Y-89287477D01*
G37*
G36*
X218901141Y-83075261D02*
G01*
X219015394Y-83152681D01*
X219075349Y-83229006D01*
X219111322Y-83320346D01*
X219123313Y-83426700D01*
X219111426Y-83532846D01*
X219075766Y-83623561D01*
X219016332Y-83698843D01*
X218902783Y-83774855D01*
X218776096Y-83800193D01*
X218649174Y-83774152D01*
X218534921Y-83696028D01*
X218453982Y-83576144D01*
X218427002Y-83424823D01*
X218453747Y-83273503D01*
X218533983Y-83153619D01*
X218647532Y-83075495D01*
X218774219Y-83049454D01*
X218901141Y-83075261D01*
G37*
%TO.C,kibuzzard-65DE35F2*%
G36*
X217102908Y-75549060D02*
G01*
X217036763Y-75549060D01*
X216882775Y-75549060D01*
X215957262Y-75549060D01*
X214995237Y-75549060D01*
X214033212Y-75549060D01*
X213674437Y-75549060D01*
X212963237Y-75549060D01*
X212897092Y-75549060D01*
X212327655Y-75549060D01*
X212472118Y-75067519D01*
X212963237Y-75067519D01*
X212972762Y-75148481D01*
X213014831Y-75193725D01*
X213102937Y-75208806D01*
X213674437Y-75208806D01*
X213756987Y-75192931D01*
X213783975Y-75158006D01*
X213791912Y-75090538D01*
X213789391Y-75069106D01*
X213895100Y-75069106D01*
X213897481Y-75124669D01*
X213910975Y-75165944D01*
X213952647Y-75198091D01*
X214033212Y-75208806D01*
X214114572Y-75198488D01*
X214155450Y-75167531D01*
X214170531Y-75125463D01*
X214172912Y-75070694D01*
X214172912Y-75067519D01*
X214299912Y-75067519D01*
X214302294Y-75122288D01*
X214315787Y-75164356D01*
X214357459Y-75196503D01*
X214438025Y-75207219D01*
X214519384Y-75196503D01*
X214560262Y-75164356D01*
X214575344Y-75123875D01*
X214577725Y-75069106D01*
X214577725Y-74788119D01*
X214616619Y-74688106D01*
X214718219Y-74650006D01*
X214818231Y-74686519D01*
X214855537Y-74788119D01*
X214855537Y-75067519D01*
X214865062Y-75148481D01*
X214906337Y-75192534D01*
X214995237Y-75207219D01*
X215076994Y-75196503D01*
X215119062Y-75164356D01*
X215132556Y-75123875D01*
X215134937Y-75069106D01*
X215134937Y-74789706D01*
X215134769Y-74788119D01*
X215261937Y-74788119D01*
X215273667Y-74898626D01*
X215308857Y-74997316D01*
X215367506Y-75084188D01*
X215443971Y-75151656D01*
X215532606Y-75192138D01*
X215633412Y-75205631D01*
X215750887Y-75170706D01*
X215793750Y-75135781D01*
X215822325Y-75104031D01*
X215838200Y-75169119D01*
X215879078Y-75197694D01*
X215957262Y-75207219D01*
X216037034Y-75196900D01*
X216079500Y-75165944D01*
X216094581Y-75125463D01*
X216096962Y-75072281D01*
X216096962Y-75065138D01*
X216184275Y-75065138D01*
X216242219Y-75161975D01*
X216339056Y-75218331D01*
X216435100Y-75161181D01*
X216611313Y-74984969D01*
X216785938Y-75161181D01*
X216882775Y-75218331D01*
X216979613Y-75161975D01*
X217036763Y-75065138D01*
X216979613Y-74967506D01*
X216803400Y-74789706D01*
X216979613Y-74611906D01*
X217036763Y-74514275D01*
X216979613Y-74416644D01*
X216882775Y-74359494D01*
X216785938Y-74416644D01*
X216611313Y-74594444D01*
X216435100Y-74416644D01*
X216339056Y-74359494D01*
X216242219Y-74416644D01*
X216184275Y-74514275D01*
X216241425Y-74611906D01*
X216417638Y-74789706D01*
X216241425Y-74967506D01*
X216184275Y-75065138D01*
X216096962Y-75065138D01*
X216096962Y-74510306D01*
X216094581Y-74455538D01*
X216081087Y-74413469D01*
X216039416Y-74381322D01*
X215958850Y-74370606D01*
X215877491Y-74380925D01*
X215836613Y-74411881D01*
X215821531Y-74453950D01*
X215819150Y-74508719D01*
X215819150Y-74789706D01*
X215780256Y-74889719D01*
X215678656Y-74927819D01*
X215578644Y-74891306D01*
X215541337Y-74789706D01*
X215541337Y-74511894D01*
X215531812Y-74430931D01*
X215489744Y-74385687D01*
X215401637Y-74370606D01*
X215319881Y-74381322D01*
X215277812Y-74413469D01*
X215264319Y-74454744D01*
X215261937Y-74510306D01*
X215261937Y-74788119D01*
X215134769Y-74788119D01*
X215123208Y-74679199D01*
X215088018Y-74580509D01*
X215029369Y-74493638D01*
X214953081Y-74426169D01*
X214864974Y-74385688D01*
X214765050Y-74372194D01*
X214645987Y-74408706D01*
X214603125Y-74442044D01*
X214574550Y-74473794D01*
X214558675Y-74408706D01*
X214517797Y-74381322D01*
X214439612Y-74372194D01*
X214359047Y-74382116D01*
X214317375Y-74411881D01*
X214302294Y-74452363D01*
X214299912Y-74505544D01*
X214299912Y-75067519D01*
X214172912Y-75067519D01*
X214172912Y-74515069D01*
X214171325Y-74469031D01*
X214142750Y-74400769D01*
X214034800Y-74373781D01*
X214034006Y-74373881D01*
X213953044Y-74384100D01*
X213910975Y-74415056D01*
X213897481Y-74457125D01*
X213895100Y-74511894D01*
X213895100Y-75069106D01*
X213789391Y-75069106D01*
X213783975Y-75023069D01*
X213752225Y-74985763D01*
X213676025Y-74973856D01*
X213244225Y-74973856D01*
X213244225Y-74186456D01*
X213237814Y-74119781D01*
X213895100Y-74119781D01*
X213897481Y-74174550D01*
X213911769Y-74216619D01*
X213953837Y-74249956D01*
X214034006Y-74259481D01*
X214114175Y-74249956D01*
X214156244Y-74217413D01*
X214170531Y-74176137D01*
X214172912Y-74121369D01*
X214170531Y-74066600D01*
X214155450Y-74024531D01*
X214114969Y-73992384D01*
X214034800Y-73981669D01*
X213953044Y-73992384D01*
X213910975Y-74024531D01*
X213897481Y-74065012D01*
X213895100Y-74119781D01*
X213237814Y-74119781D01*
X213236287Y-74103906D01*
X213193028Y-74059853D01*
X213104525Y-74045169D01*
X213022769Y-74055884D01*
X212980700Y-74088031D01*
X212965619Y-74130100D01*
X212963237Y-74184869D01*
X212963237Y-75067519D01*
X212472118Y-75067519D01*
X212897092Y-73650940D01*
X212963237Y-73650940D01*
X217036763Y-73650940D01*
X217102908Y-73650940D01*
X217672345Y-73650940D01*
X217102908Y-75549060D01*
G37*
%TO.C,kibuzzard-65DE35DD*%
G36*
X217667764Y-73455348D02*
G01*
X217575160Y-73455348D01*
X216950638Y-73455348D01*
X215606025Y-73455348D01*
X214254745Y-73455348D01*
X212718998Y-73455348D01*
X211603303Y-73455348D01*
X209803077Y-73455348D01*
X208845180Y-73455348D01*
X206974946Y-73455348D01*
X206124840Y-73455348D01*
X206032236Y-73455348D01*
X205249027Y-73455348D01*
X205643965Y-72138888D01*
X206124840Y-72138888D01*
X206139564Y-72305853D01*
X206183736Y-72460039D01*
X206250689Y-72594500D01*
X206333755Y-72702291D01*
X206430712Y-72789524D01*
X206539336Y-72862311D01*
X206652128Y-72918429D01*
X206761586Y-72955656D01*
X206868822Y-72976492D01*
X206974946Y-72983438D01*
X207082460Y-72974548D01*
X207193862Y-72947878D01*
X207343881Y-72890093D01*
X207420557Y-72843420D01*
X207490566Y-72787858D01*
X207500853Y-72761188D01*
X207667255Y-72761188D01*
X207680590Y-72876758D01*
X207739486Y-72938432D01*
X207862835Y-72958990D01*
X207977294Y-72943988D01*
X208036190Y-72898983D01*
X208057304Y-72840086D01*
X208060637Y-72763410D01*
X208060637Y-72310020D01*
X208649600Y-72310020D01*
X208649600Y-72761188D01*
X208662935Y-72876758D01*
X208721831Y-72938432D01*
X208845180Y-72958990D01*
X208959639Y-72943988D01*
X209018535Y-72898983D01*
X209039649Y-72840086D01*
X209042983Y-72763410D01*
X209042983Y-72476708D01*
X209187445Y-72476708D01*
X209211892Y-72596723D01*
X209216337Y-72618948D01*
X209240785Y-72676733D01*
X209295792Y-72765077D01*
X209358578Y-72834530D01*
X209486989Y-72920961D01*
X209635155Y-72972819D01*
X209803077Y-72990105D01*
X209972234Y-72972942D01*
X210121142Y-72921454D01*
X210249800Y-72835641D01*
X210311413Y-72765633D01*
X210538725Y-72765633D01*
X210596510Y-72905650D01*
X210734305Y-72965658D01*
X211603303Y-72965658D01*
X211741098Y-72938988D01*
X211788881Y-72881203D01*
X211803328Y-72768966D01*
X211789993Y-72655619D01*
X211737764Y-72591166D01*
X211607748Y-72570053D01*
X211201030Y-72570053D01*
X211201030Y-72558940D01*
X211256593Y-72536715D01*
X211394388Y-72461706D01*
X211549962Y-72338913D01*
X211622194Y-72258903D01*
X211683313Y-72156668D01*
X211724984Y-72039986D01*
X211738875Y-71916638D01*
X211720354Y-71763902D01*
X211664792Y-71622774D01*
X211576160Y-71498808D01*
X211870003Y-71498808D01*
X211903340Y-71605487D01*
X212516750Y-72850088D01*
X212591204Y-72928986D01*
X212696772Y-72958990D01*
X212718998Y-72958990D01*
X212822344Y-72928986D01*
X212896798Y-72850088D01*
X213242936Y-72147778D01*
X213632445Y-72147778D01*
X213639606Y-72303599D01*
X213661091Y-72448062D01*
X213696898Y-72581165D01*
X213744959Y-72692846D01*
X213804689Y-72787858D01*
X213883032Y-72867590D01*
X213986934Y-72933431D01*
X214112227Y-72977603D01*
X214254745Y-72992328D01*
X214396707Y-72977881D01*
X214520334Y-72934543D01*
X214622291Y-72868979D01*
X214699245Y-72787858D01*
X214775088Y-72659647D01*
X214829261Y-72510601D01*
X214861765Y-72340718D01*
X214872600Y-72150000D01*
X214872488Y-72147778D01*
X214983725Y-72147778D01*
X214990886Y-72303599D01*
X215012371Y-72448062D01*
X215048178Y-72581165D01*
X215096239Y-72692846D01*
X215155969Y-72787858D01*
X215234312Y-72867590D01*
X215338214Y-72933431D01*
X215463507Y-72977603D01*
X215606025Y-72992328D01*
X215747987Y-72977881D01*
X215871614Y-72934543D01*
X215973571Y-72868979D01*
X216050525Y-72787858D01*
X216126368Y-72659647D01*
X216180541Y-72510601D01*
X216187026Y-72476708D01*
X216335005Y-72476708D01*
X216359453Y-72596723D01*
X216363898Y-72618948D01*
X216388345Y-72676733D01*
X216443352Y-72765077D01*
X216506138Y-72834530D01*
X216634549Y-72920961D01*
X216782715Y-72972819D01*
X216950638Y-72990105D01*
X217119794Y-72972942D01*
X217268702Y-72921454D01*
X217397360Y-72835641D01*
X217496138Y-72723405D01*
X217555404Y-72592648D01*
X217575160Y-72443370D01*
X217556824Y-72330023D01*
X217501818Y-72230010D01*
X217431809Y-72157779D01*
X217366245Y-72109995D01*
X217366245Y-72094438D01*
X217462553Y-72024676D01*
X217520338Y-71930960D01*
X217539600Y-71813291D01*
X217522067Y-71687967D01*
X217469468Y-71571286D01*
X217381802Y-71463247D01*
X217263763Y-71376817D01*
X217120041Y-71324959D01*
X216950638Y-71307672D01*
X216840346Y-71315451D01*
X216740611Y-71338788D01*
X216593926Y-71407685D01*
X216501693Y-71495474D01*
X216452798Y-71565483D01*
X216401680Y-71716613D01*
X216429461Y-71796067D01*
X216512805Y-71865520D01*
X216635043Y-71905525D01*
X216719498Y-71877744D01*
X216781728Y-71794400D01*
X216795063Y-71767730D01*
X216852848Y-71714390D01*
X216978419Y-71687720D01*
X217101768Y-71729947D01*
X217146218Y-71818848D01*
X217103990Y-71883856D01*
X216977308Y-71905525D01*
X216861738Y-71916638D01*
X216800063Y-71977201D01*
X216779505Y-72101105D01*
X216794507Y-72215008D01*
X216839513Y-72272238D01*
X216897298Y-72294463D01*
X216998421Y-72298908D01*
X217127326Y-72344469D01*
X217181778Y-72450038D01*
X217126215Y-72557829D01*
X217055095Y-72593667D01*
X216952860Y-72605613D01*
X216859515Y-72592278D01*
X216737278Y-72485598D01*
X216670603Y-72370028D01*
X216552810Y-72347802D01*
X216389456Y-72380029D01*
X216335005Y-72476708D01*
X216187026Y-72476708D01*
X216213045Y-72340718D01*
X216223880Y-72150000D01*
X216216472Y-72003068D01*
X216194247Y-71861569D01*
X216157205Y-71725503D01*
X216110810Y-71613266D01*
X216051636Y-71516588D01*
X215973849Y-71434911D01*
X215871614Y-71367680D01*
X215747432Y-71322674D01*
X215603803Y-71307672D01*
X215459618Y-71322952D01*
X215333769Y-71368791D01*
X215230145Y-71437133D01*
X215152635Y-71519921D01*
X215091238Y-71626879D01*
X215035954Y-71767730D01*
X215006938Y-71880090D01*
X214989528Y-72006772D01*
X214983725Y-72147778D01*
X214872488Y-72147778D01*
X214865192Y-72003068D01*
X214842967Y-71861569D01*
X214805925Y-71725503D01*
X214759530Y-71613266D01*
X214700356Y-71516588D01*
X214622569Y-71434911D01*
X214520334Y-71367680D01*
X214396152Y-71322674D01*
X214252523Y-71307672D01*
X214108338Y-71322952D01*
X213982489Y-71368791D01*
X213878865Y-71437133D01*
X213801355Y-71519921D01*
X213739958Y-71626879D01*
X213684674Y-71767730D01*
X213655658Y-71880090D01*
X213638248Y-72006772D01*
X213632445Y-72147778D01*
X213242936Y-72147778D01*
X213510208Y-71605487D01*
X213543545Y-71498808D01*
X213510763Y-71424354D01*
X213412418Y-71356568D01*
X213281290Y-71318785D01*
X213183500Y-71378793D01*
X213152385Y-71445467D01*
X212707885Y-72418923D01*
X212683715Y-72367527D01*
X212628986Y-72248901D01*
X212556755Y-72091937D01*
X212480079Y-71925528D01*
X212403680Y-71759118D01*
X212332283Y-71602154D01*
X212276442Y-71479916D01*
X212246716Y-71417686D01*
X212210045Y-71358790D01*
X212172262Y-71327675D01*
X212113366Y-71318785D01*
X212001130Y-71356568D01*
X211902784Y-71424354D01*
X211870003Y-71498808D01*
X211576160Y-71498808D01*
X211572187Y-71493251D01*
X211449827Y-71390152D01*
X211304994Y-71328292D01*
X211137689Y-71307672D01*
X210970507Y-71328045D01*
X210826045Y-71389164D01*
X210704301Y-71491029D01*
X210612314Y-71618576D01*
X210557122Y-71756741D01*
X210538725Y-71905525D01*
X210549837Y-72018873D01*
X210610401Y-72082214D01*
X210734305Y-72103328D01*
X210847653Y-72089993D01*
X210907660Y-72049988D01*
X210928774Y-71994425D01*
X210932108Y-71921083D01*
X210932108Y-71907748D01*
X210940998Y-71856630D01*
X210999894Y-71753284D01*
X211123242Y-71701055D01*
X211234368Y-71721058D01*
X211293264Y-71764396D01*
X211327713Y-71824404D01*
X211343270Y-71881078D01*
X211322434Y-71978312D01*
X211259926Y-72069990D01*
X211167970Y-72154167D01*
X211058790Y-72228899D01*
X210940998Y-72299463D01*
X210823205Y-72371139D01*
X210714025Y-72450593D01*
X210622069Y-72544494D01*
X210559561Y-72650340D01*
X210538725Y-72765633D01*
X210311413Y-72765633D01*
X210348578Y-72723405D01*
X210407844Y-72592648D01*
X210427600Y-72443370D01*
X210409264Y-72330023D01*
X210354258Y-72230010D01*
X210284249Y-72157779D01*
X210218685Y-72109995D01*
X210218685Y-72094438D01*
X210314993Y-72024676D01*
X210372778Y-71930960D01*
X210392040Y-71813291D01*
X210374507Y-71687967D01*
X210321908Y-71571286D01*
X210234242Y-71463247D01*
X210116203Y-71376817D01*
X209972481Y-71324959D01*
X209803077Y-71307672D01*
X209692786Y-71315451D01*
X209593051Y-71338788D01*
X209446366Y-71407685D01*
X209354133Y-71495474D01*
X209305238Y-71565483D01*
X209254120Y-71716613D01*
X209281901Y-71796067D01*
X209365245Y-71865520D01*
X209487483Y-71905525D01*
X209571937Y-71877744D01*
X209634167Y-71794400D01*
X209647502Y-71767730D01*
X209705287Y-71714390D01*
X209830859Y-71687720D01*
X209954208Y-71729947D01*
X209998658Y-71818848D01*
X209956430Y-71883856D01*
X209829748Y-71905525D01*
X209714177Y-71916638D01*
X209652503Y-71977201D01*
X209631945Y-72101105D01*
X209646947Y-72215008D01*
X209691953Y-72272238D01*
X209749737Y-72294463D01*
X209850861Y-72298908D01*
X209979766Y-72344469D01*
X210034218Y-72450038D01*
X209978655Y-72557829D01*
X209907535Y-72593667D01*
X209805300Y-72605613D01*
X209711955Y-72592278D01*
X209589718Y-72485598D01*
X209523043Y-72370028D01*
X209405250Y-72347802D01*
X209241896Y-72380029D01*
X209187445Y-72476708D01*
X209042983Y-72476708D01*
X209042983Y-71529923D01*
X209031870Y-71414353D01*
X209000755Y-71369902D01*
X208942970Y-71343232D01*
X208840735Y-71332120D01*
X208734055Y-71345455D01*
X208674047Y-71392128D01*
X208652934Y-71451024D01*
X208649600Y-71527700D01*
X208649600Y-71983313D01*
X208060637Y-71983313D01*
X208060637Y-71529923D01*
X208049525Y-71414353D01*
X207988962Y-71352678D01*
X207865057Y-71332120D01*
X207750599Y-71347122D01*
X207691703Y-71392128D01*
X207670589Y-71451024D01*
X207667255Y-71527700D01*
X207667255Y-72761188D01*
X207500853Y-72761188D01*
X207520570Y-72710070D01*
X207471675Y-72585610D01*
X207394443Y-72492265D01*
X207322767Y-72461150D01*
X207216087Y-72505600D01*
X207176082Y-72534493D01*
X207088294Y-72570053D01*
X206958277Y-72587833D01*
X206814371Y-72563385D01*
X206676020Y-72490043D01*
X206562672Y-72350025D01*
X206529335Y-72255291D01*
X206518222Y-72148889D01*
X206529335Y-72042487D01*
X206562672Y-71947753D01*
X206673797Y-71809958D01*
X206814926Y-71734948D01*
X206958277Y-71709945D01*
X207098295Y-71728836D01*
X207207198Y-71785510D01*
X207320545Y-71834405D01*
X207393887Y-71804401D01*
X207476120Y-71714390D01*
X207522792Y-71591041D01*
X207465007Y-71485473D01*
X207402777Y-71445467D01*
X207349437Y-71414353D01*
X207186084Y-71348789D01*
X207079126Y-71324619D01*
X206973835Y-71316562D01*
X206827397Y-71329897D01*
X206681453Y-71369902D01*
X206536002Y-71436578D01*
X206426822Y-71506308D01*
X206330421Y-71591041D01*
X206248467Y-71695499D01*
X206182625Y-71824404D01*
X206139286Y-71973589D01*
X206124840Y-72138888D01*
X205643965Y-72138888D01*
X206032236Y-70844652D01*
X206124840Y-70844652D01*
X217575160Y-70844652D01*
X217667764Y-70844652D01*
X218450973Y-70844652D01*
X217667764Y-73455348D01*
G37*
G36*
X214351702Y-71728975D02*
G01*
X214422544Y-71812736D01*
X214465049Y-71952336D01*
X214479218Y-72147778D01*
X214479218Y-72161113D01*
X214464910Y-72351692D01*
X214421988Y-72487820D01*
X214350451Y-72569497D01*
X214250300Y-72596723D01*
X214152093Y-72568733D01*
X214081946Y-72484764D01*
X214039857Y-72344816D01*
X214025828Y-72148889D01*
X214039996Y-71952961D01*
X214082501Y-71813013D01*
X214153343Y-71729045D01*
X214252523Y-71701055D01*
X214351702Y-71728975D01*
G37*
G36*
X215702982Y-71728975D02*
G01*
X215773824Y-71812736D01*
X215816329Y-71952336D01*
X215830498Y-72147778D01*
X215830498Y-72161113D01*
X215816190Y-72351692D01*
X215773268Y-72487820D01*
X215701731Y-72569497D01*
X215601580Y-72596723D01*
X215503373Y-72568733D01*
X215433226Y-72484764D01*
X215391137Y-72344816D01*
X215377108Y-72148889D01*
X215391276Y-71952961D01*
X215433781Y-71813013D01*
X215504623Y-71729045D01*
X215603803Y-71701055D01*
X215702982Y-71728975D01*
G37*
%TO.C,kibuzzard-65DE35BA*%
G36*
X187252367Y-72672073D02*
G01*
X187186221Y-72672073D01*
X187006040Y-72672073D01*
X185726515Y-72672073D01*
X183822308Y-72672073D01*
X183682608Y-72672073D01*
X183616462Y-72672073D01*
X183526084Y-72667633D01*
X183436575Y-72654356D01*
X183348799Y-72632369D01*
X183263600Y-72601884D01*
X183181800Y-72563196D01*
X183104186Y-72516676D01*
X183031506Y-72462772D01*
X182964458Y-72402004D01*
X182903690Y-72334957D01*
X182849787Y-72262276D01*
X182805834Y-72188944D01*
X183682608Y-72188944D01*
X183692133Y-72271494D01*
X183734202Y-72315547D01*
X183822308Y-72330231D01*
X183904065Y-72319516D01*
X183946133Y-72287369D01*
X183961215Y-72245300D01*
X183963596Y-72190531D01*
X183963596Y-72011144D01*
X184162033Y-72011144D01*
X184255167Y-71999855D01*
X184346183Y-71965988D01*
X184435083Y-71909544D01*
X184494218Y-71851798D01*
X184541446Y-71776988D01*
X184572402Y-71688683D01*
X184582721Y-71590456D01*
X184572402Y-71492031D01*
X184541446Y-71403131D01*
X184494218Y-71327725D01*
X184441564Y-71276131D01*
X184646221Y-71276131D01*
X184663683Y-71353919D01*
X184970071Y-72234981D01*
X184981183Y-72258794D01*
X185024840Y-72306419D01*
X185108183Y-72330231D01*
X185195496Y-72293719D01*
X185220896Y-72261969D01*
X185235183Y-72234981D01*
X185243375Y-72210724D01*
X185265409Y-72145573D01*
X185301287Y-72039528D01*
X185351007Y-71892589D01*
X185414571Y-71704756D01*
X185600308Y-72252444D01*
X185645552Y-72304038D01*
X185726515Y-72330231D01*
X185807477Y-72304038D01*
X185849546Y-72261969D01*
X185860658Y-72234981D01*
X185876584Y-72188944D01*
X186271821Y-72188944D01*
X186281346Y-72271494D01*
X186323415Y-72315547D01*
X186411521Y-72330231D01*
X186493277Y-72319516D01*
X186535346Y-72287369D01*
X186550427Y-72245300D01*
X186552808Y-72190531D01*
X186552808Y-72011144D01*
X186752833Y-72011144D01*
X186802046Y-72007969D01*
X186863782Y-72154195D01*
X186905057Y-72249974D01*
X186925871Y-72295306D01*
X186955240Y-72326263D01*
X187006040Y-72341344D01*
X187087796Y-72319119D01*
X187161615Y-72273081D01*
X187186221Y-72217519D01*
X187162408Y-72134969D01*
X187117958Y-72033898D01*
X187081975Y-71950819D01*
X187054458Y-71885731D01*
X187120604Y-71801417D01*
X187160292Y-71702992D01*
X187173521Y-71590456D01*
X187163202Y-71492031D01*
X187132246Y-71403131D01*
X187085415Y-71327725D01*
X187027471Y-71269781D01*
X186938747Y-71213337D01*
X186848260Y-71179470D01*
X186756008Y-71168181D01*
X186413108Y-71168181D01*
X186331352Y-71178897D01*
X186289283Y-71211044D01*
X186274202Y-71253113D01*
X186271821Y-71307881D01*
X186271821Y-72188944D01*
X185876584Y-72188944D01*
X186165458Y-71353919D01*
X186184508Y-71276131D01*
X186157918Y-71218981D01*
X186078146Y-71174531D01*
X186003533Y-71158656D01*
X185950352Y-71175325D01*
X185920983Y-71209456D01*
X185900346Y-71263431D01*
X185725721Y-71796831D01*
X185543158Y-71245969D01*
X185498708Y-71194375D01*
X185423302Y-71168181D01*
X185357421Y-71179294D01*
X185307811Y-71215013D01*
X185276458Y-71271369D01*
X185103421Y-71793656D01*
X184928796Y-71263431D01*
X184893077Y-71185644D01*
X184835927Y-71160244D01*
X184752583Y-71176119D01*
X184672811Y-71219378D01*
X184646221Y-71276131D01*
X184441564Y-71276131D01*
X184435083Y-71269781D01*
X184346360Y-71213337D01*
X184255872Y-71179470D01*
X184163621Y-71168181D01*
X183823896Y-71168181D01*
X183742140Y-71178897D01*
X183700071Y-71211044D01*
X183684990Y-71253113D01*
X183682608Y-71307881D01*
X183682608Y-72188944D01*
X182805834Y-72188944D01*
X182803267Y-72184662D01*
X182764578Y-72102862D01*
X182734094Y-72017664D01*
X182712107Y-71929888D01*
X182698830Y-71840379D01*
X182694390Y-71750000D01*
X182698830Y-71659621D01*
X182712107Y-71570112D01*
X182734094Y-71482336D01*
X182764578Y-71397138D01*
X182803267Y-71315338D01*
X182849787Y-71237724D01*
X182903690Y-71165043D01*
X182964458Y-71097996D01*
X183031506Y-71037228D01*
X183104186Y-70983324D01*
X183181800Y-70936804D01*
X183263600Y-70898116D01*
X183348799Y-70867631D01*
X183436575Y-70845644D01*
X183526084Y-70832367D01*
X183616462Y-70827927D01*
X183682608Y-70827927D01*
X187186221Y-70827927D01*
X187252367Y-70827927D01*
X187805610Y-70827927D01*
X187252367Y-72672073D01*
G37*
G36*
X186848083Y-71484887D02*
G01*
X186894121Y-71590456D01*
X186848083Y-71695231D01*
X186756008Y-71730156D01*
X186552808Y-71730156D01*
X186552808Y-71449169D01*
X186752833Y-71449169D01*
X186848083Y-71484887D01*
G37*
G36*
X184257283Y-71484887D02*
G01*
X184303321Y-71590456D01*
X184257283Y-71695231D01*
X184163621Y-71730156D01*
X183963596Y-71730156D01*
X183963596Y-71449169D01*
X184162033Y-71449169D01*
X184257283Y-71484887D01*
G37*
%TO.C,kibuzzard-65DE359B*%
G36*
X181929601Y-101679430D02*
G01*
X181876684Y-101679430D01*
X181577110Y-101679430D01*
X180751914Y-101679430D01*
X179787565Y-101679430D01*
X179323316Y-101679430D01*
X179270399Y-101679430D01*
X179270399Y-100603019D01*
X179323316Y-100603019D01*
X179341545Y-100661354D01*
X179676971Y-101341928D01*
X179717684Y-101385071D01*
X179775411Y-101401478D01*
X179787565Y-101401478D01*
X179844077Y-101385071D01*
X179884789Y-101341928D01*
X180076461Y-100953028D01*
X180287057Y-100953028D01*
X180295109Y-101044329D01*
X180319263Y-101128641D01*
X180355874Y-101202167D01*
X180401297Y-101261110D01*
X180454315Y-101308811D01*
X180513713Y-101348612D01*
X180575390Y-101379299D01*
X180635244Y-101399655D01*
X180693883Y-101411049D01*
X180751914Y-101414847D01*
X180810705Y-101409985D01*
X180871622Y-101395402D01*
X180953656Y-101363803D01*
X180995584Y-101338282D01*
X181033866Y-101307899D01*
X181050273Y-101265363D01*
X181023536Y-101197306D01*
X180981304Y-101146263D01*
X180942110Y-101129248D01*
X180883775Y-101153555D01*
X180861900Y-101169354D01*
X180813895Y-101188799D01*
X180742799Y-101198521D01*
X180664108Y-101185153D01*
X180588455Y-101145048D01*
X180526474Y-101068483D01*
X180508244Y-101016680D01*
X180502167Y-100958497D01*
X180502738Y-100953028D01*
X181112254Y-100953028D01*
X181120305Y-101044329D01*
X181144459Y-101128641D01*
X181181071Y-101202167D01*
X181226493Y-101261110D01*
X181279511Y-101308811D01*
X181338909Y-101348612D01*
X181400586Y-101379299D01*
X181460440Y-101399655D01*
X181519079Y-101411049D01*
X181577110Y-101414847D01*
X181635901Y-101409985D01*
X181696818Y-101395402D01*
X181778852Y-101363803D01*
X181820780Y-101338282D01*
X181859062Y-101307899D01*
X181875469Y-101265363D01*
X181848732Y-101197306D01*
X181806500Y-101146263D01*
X181767306Y-101129248D01*
X181708971Y-101153555D01*
X181687096Y-101169354D01*
X181639091Y-101188799D01*
X181567995Y-101198521D01*
X181489304Y-101185153D01*
X181413651Y-101145048D01*
X181351670Y-101068483D01*
X181333440Y-101016680D01*
X181327364Y-100958497D01*
X181333440Y-100900314D01*
X181351670Y-100848512D01*
X181412435Y-100773162D01*
X181489608Y-100732146D01*
X181567995Y-100718473D01*
X181644560Y-100728803D01*
X181704110Y-100759794D01*
X181766091Y-100786531D01*
X181806196Y-100770124D01*
X181851163Y-100720904D01*
X181876684Y-100653454D01*
X181845086Y-100595727D01*
X181811057Y-100573851D01*
X181781890Y-100556837D01*
X181692565Y-100520985D01*
X181634078Y-100507769D01*
X181576502Y-100503363D01*
X181525737Y-100507986D01*
X181496427Y-100510655D01*
X181416621Y-100532531D01*
X181337086Y-100568990D01*
X181277384Y-100607120D01*
X181224670Y-100653454D01*
X181179855Y-100710574D01*
X181143852Y-100781062D01*
X181120153Y-100862640D01*
X181112254Y-100953028D01*
X180502738Y-100953028D01*
X180508244Y-100900314D01*
X180526474Y-100848512D01*
X180587239Y-100773162D01*
X180664411Y-100732146D01*
X180742799Y-100718473D01*
X180819364Y-100728803D01*
X180878914Y-100759794D01*
X180940895Y-100786531D01*
X180981000Y-100770124D01*
X181025967Y-100720904D01*
X181051488Y-100653454D01*
X181019890Y-100595727D01*
X180985861Y-100573851D01*
X180956694Y-100556837D01*
X180867368Y-100520985D01*
X180808882Y-100507769D01*
X180751306Y-100503363D01*
X180671231Y-100510655D01*
X180591425Y-100532531D01*
X180511890Y-100568990D01*
X180467814Y-100597140D01*
X180452188Y-100607120D01*
X180399474Y-100653454D01*
X180354659Y-100710574D01*
X180318656Y-100781062D01*
X180294957Y-100862640D01*
X180287057Y-100953028D01*
X180076461Y-100953028D01*
X180220215Y-100661354D01*
X180238445Y-100603019D01*
X180220519Y-100562306D01*
X180166742Y-100525239D01*
X180095038Y-100504579D01*
X180041565Y-100537392D01*
X180024550Y-100573851D01*
X179781488Y-101106158D01*
X179738344Y-101013186D01*
X179698847Y-100927355D01*
X179656919Y-100836359D01*
X179615142Y-100745362D01*
X179576100Y-100659531D01*
X179545566Y-100592689D01*
X179529311Y-100558660D01*
X179509258Y-100526454D01*
X179488598Y-100509440D01*
X179462911Y-100505563D01*
X179456392Y-100504579D01*
X179395019Y-100525239D01*
X179341242Y-100562306D01*
X179323316Y-100603019D01*
X179270399Y-100603019D01*
X179270399Y-99704223D01*
X179354407Y-99704223D01*
X179361805Y-99768339D01*
X179394479Y-99802555D01*
X179462911Y-99813960D01*
X179526411Y-99805638D01*
X179559086Y-99780669D01*
X179570800Y-99747994D01*
X179572649Y-99705456D01*
X179572649Y-99704223D01*
X180133669Y-99704223D01*
X180148465Y-99783135D01*
X180181140Y-99806254D01*
X180242174Y-99813960D01*
X180467814Y-99813960D01*
X180558633Y-99805561D01*
X180642439Y-99780361D01*
X180719233Y-99738362D01*
X180789013Y-99679562D01*
X180847003Y-99609011D01*
X180888425Y-99531755D01*
X180911464Y-99453922D01*
X180970882Y-99453922D01*
X180977047Y-99506941D01*
X181010647Y-99542082D01*
X181079387Y-99553795D01*
X181413533Y-99553795D01*
X181413533Y-99704223D01*
X181420931Y-99768339D01*
X181436960Y-99792999D01*
X181469018Y-99807795D01*
X181525737Y-99813960D01*
X181585538Y-99806562D01*
X181621295Y-99776354D01*
X181633008Y-99705456D01*
X181633008Y-99019902D01*
X181631751Y-98990565D01*
X181631159Y-98976747D01*
X181619445Y-98944072D01*
X181586154Y-98918179D01*
X181523887Y-98910164D01*
X181461004Y-98916946D01*
X181427096Y-98940990D01*
X181415382Y-98971815D01*
X181413533Y-99013737D01*
X181413533Y-99350349D01*
X181212552Y-99350349D01*
X181287766Y-99049494D01*
X181288999Y-99045795D01*
X181297630Y-98994009D01*
X181276052Y-98946538D01*
X181211319Y-98915096D01*
X181154601Y-98906465D01*
X181112062Y-98920028D01*
X181089868Y-98948388D01*
X181076921Y-98991543D01*
X180974581Y-99404601D01*
X180970882Y-99453922D01*
X180911464Y-99453922D01*
X180913278Y-99447795D01*
X180921562Y-99357130D01*
X180913085Y-99266812D01*
X180887654Y-99183892D01*
X180845269Y-99108371D01*
X180785931Y-99040247D01*
X180715418Y-98983875D01*
X180639511Y-98943610D01*
X180558209Y-98919450D01*
X180471513Y-98911397D01*
X180394909Y-98910983D01*
X180243407Y-98910164D01*
X180179907Y-98918487D01*
X180147232Y-98943456D01*
X180135518Y-98975514D01*
X180133669Y-99018669D01*
X180133669Y-99704223D01*
X179572649Y-99704223D01*
X179572649Y-99566125D01*
X179726775Y-99566125D01*
X179799112Y-99557357D01*
X179869805Y-99531053D01*
X179938853Y-99487213D01*
X179984783Y-99442362D01*
X180021465Y-99384257D01*
X180045508Y-99315670D01*
X180053523Y-99239378D01*
X180045508Y-99162931D01*
X180021465Y-99093883D01*
X179984783Y-99035315D01*
X179938853Y-98990310D01*
X179869942Y-98946470D01*
X179799660Y-98920165D01*
X179728008Y-98911397D01*
X179464144Y-98911397D01*
X179400644Y-98919720D01*
X179367970Y-98944689D01*
X179356256Y-98977363D01*
X179354407Y-99019902D01*
X179354407Y-99704223D01*
X179270399Y-99704223D01*
X179270399Y-97399378D01*
X179956978Y-97399378D01*
X179963234Y-97451930D01*
X179988259Y-97481334D01*
X180047066Y-97490718D01*
X180287303Y-97490718D01*
X180287303Y-98118836D01*
X180289180Y-98162004D01*
X180300441Y-98194536D01*
X180332973Y-98220186D01*
X180394909Y-98227693D01*
X180457470Y-98220186D01*
X180490628Y-98194536D01*
X180501889Y-98162629D01*
X180503766Y-98120088D01*
X180871628Y-98120088D01*
X180921052Y-98195787D01*
X181002382Y-98240206D01*
X181079332Y-98190156D01*
X181317066Y-97917388D01*
X181554800Y-98190156D01*
X181631751Y-98240206D01*
X181713081Y-98196413D01*
X181761254Y-98120088D01*
X181718712Y-98040009D01*
X181467214Y-97763487D01*
X181718712Y-97486964D01*
X181761254Y-97408137D01*
X181712456Y-97330560D01*
X181631751Y-97286767D01*
X181554800Y-97336817D01*
X181539651Y-97354198D01*
X181317066Y-97609585D01*
X181079332Y-97336817D01*
X181002382Y-97286767D01*
X180920426Y-97331186D01*
X180871628Y-97408137D01*
X180915421Y-97486964D01*
X181166919Y-97763487D01*
X180915421Y-98040009D01*
X180871628Y-98120088D01*
X180503766Y-98120088D01*
X180503766Y-97490718D01*
X180742751Y-97490718D01*
X180806564Y-97479457D01*
X180827835Y-97452556D01*
X180834091Y-97400629D01*
X180827835Y-97348078D01*
X180802810Y-97318674D01*
X180744002Y-97309290D01*
X180585881Y-97309290D01*
X180048318Y-97309290D01*
X179984505Y-97320551D01*
X179963234Y-97347452D01*
X179956978Y-97399378D01*
X179270399Y-97399378D01*
X179270399Y-96525893D01*
X179998506Y-96525893D01*
X180006126Y-96591933D01*
X180039781Y-96627176D01*
X180110266Y-96638923D01*
X180175671Y-96630351D01*
X180209326Y-96604633D01*
X180221391Y-96570978D01*
X180223296Y-96527163D01*
X180223296Y-96383653D01*
X180383316Y-96383653D01*
X180422686Y-96381113D01*
X180472075Y-96498095D01*
X180505095Y-96574718D01*
X180521746Y-96610983D01*
X180545241Y-96635748D01*
X180585881Y-96647813D01*
X180651286Y-96630033D01*
X180710341Y-96593203D01*
X180730026Y-96548753D01*
X180724897Y-96530973D01*
X180768126Y-96530973D01*
X180818291Y-96607808D01*
X180900841Y-96652893D01*
X180978946Y-96602093D01*
X181220246Y-96325233D01*
X181461546Y-96602093D01*
X181539651Y-96652893D01*
X181622201Y-96608443D01*
X181671096Y-96530973D01*
X181627916Y-96449693D01*
X181372646Y-96169023D01*
X181627916Y-95888353D01*
X181671096Y-95808343D01*
X181621566Y-95729603D01*
X181539651Y-95685153D01*
X181461546Y-95735953D01*
X181220246Y-96012813D01*
X180978946Y-95735953D01*
X180900841Y-95685153D01*
X180817656Y-95730238D01*
X180768126Y-95808343D01*
X180812576Y-95888353D01*
X181067846Y-96169023D01*
X180812576Y-96449693D01*
X180768126Y-96530973D01*
X180724897Y-96530973D01*
X180710976Y-96482713D01*
X180675416Y-96401857D01*
X180646629Y-96335393D01*
X180624616Y-96283323D01*
X180677533Y-96215872D01*
X180709283Y-96137132D01*
X180719866Y-96047103D01*
X180711611Y-95968363D01*
X180686846Y-95897243D01*
X180649381Y-95836918D01*
X180603026Y-95790563D01*
X180532047Y-95745408D01*
X180459657Y-95718315D01*
X180385856Y-95709283D01*
X180111536Y-95709283D01*
X180046131Y-95717856D01*
X180012476Y-95743573D01*
X180000411Y-95777228D01*
X179998506Y-95821043D01*
X179998506Y-96525893D01*
X179270399Y-96525893D01*
X179270399Y-95420570D01*
X179323316Y-95420570D01*
X181876684Y-95420570D01*
X181929601Y-95420570D01*
X181929601Y-101679430D01*
G37*
G36*
X180557978Y-99146440D02*
G01*
X180633654Y-99196839D01*
X180685903Y-99272207D01*
X180703319Y-99363912D01*
X180685440Y-99455309D01*
X180631805Y-99529752D01*
X180555974Y-99579226D01*
X180471513Y-99595718D01*
X180351911Y-99595718D01*
X180351911Y-99129640D01*
X180470280Y-99129640D01*
X180557978Y-99146440D01*
G37*
G36*
X180459516Y-95962648D02*
G01*
X180496346Y-96047103D01*
X180459516Y-96130923D01*
X180385856Y-96158863D01*
X180223296Y-96158863D01*
X180223296Y-95934073D01*
X180383316Y-95934073D01*
X180459516Y-95962648D01*
G37*
G36*
X179800756Y-99157383D02*
G01*
X179836513Y-99239378D01*
X179800756Y-99320757D01*
X179728008Y-99347883D01*
X179572649Y-99347883D01*
X179572649Y-99129640D01*
X179726775Y-99129640D01*
X179800756Y-99157383D01*
G37*
%TO.C,kibuzzard-65DE356C*%
G36*
X194974484Y-98024468D02*
G01*
X195064763Y-98037859D01*
X195153294Y-98060036D01*
X195239226Y-98090782D01*
X195321730Y-98129804D01*
X195400013Y-98176725D01*
X195473319Y-98231092D01*
X195540943Y-98292383D01*
X195602234Y-98360008D01*
X195656602Y-98433314D01*
X195703523Y-98511596D01*
X195742544Y-98594100D01*
X195773291Y-98680032D01*
X195795467Y-98768564D01*
X195808859Y-98858843D01*
X195813337Y-98950000D01*
X195808859Y-99041157D01*
X195795467Y-99131436D01*
X195773291Y-99219968D01*
X195742544Y-99305900D01*
X195703523Y-99388404D01*
X195656602Y-99466686D01*
X195602234Y-99539992D01*
X195540943Y-99607617D01*
X195473319Y-99668908D01*
X195400013Y-99723275D01*
X195321730Y-99770196D01*
X195239226Y-99809218D01*
X195153294Y-99839964D01*
X195064763Y-99862141D01*
X194974484Y-99875532D01*
X194883327Y-99880010D01*
X194883194Y-99880010D01*
X194325982Y-99880010D01*
X193282994Y-99880010D01*
X192617038Y-99880010D01*
X191882819Y-99880010D01*
X191816673Y-99880010D01*
X191725516Y-99875532D01*
X191635237Y-99862141D01*
X191546706Y-99839964D01*
X191460774Y-99809218D01*
X191378270Y-99770196D01*
X191299987Y-99723275D01*
X191226681Y-99668908D01*
X191159057Y-99607617D01*
X191097766Y-99539992D01*
X191043398Y-99466686D01*
X190997752Y-99390531D01*
X191882819Y-99390531D01*
X191892344Y-99473081D01*
X191934413Y-99517134D01*
X192022519Y-99531819D01*
X192104276Y-99521103D01*
X192146344Y-99488956D01*
X192161426Y-99446888D01*
X192163807Y-99392119D01*
X192163807Y-99212731D01*
X192363832Y-99212731D01*
X192413044Y-99209556D01*
X192474780Y-99355783D01*
X192516055Y-99451562D01*
X192536869Y-99496894D01*
X192566238Y-99527850D01*
X192617038Y-99542931D01*
X192698794Y-99520706D01*
X192772613Y-99474669D01*
X192797219Y-99419106D01*
X192773407Y-99336556D01*
X192747924Y-99278613D01*
X192860719Y-99278613D01*
X192901994Y-99369894D01*
X192916282Y-99387356D01*
X192962319Y-99435775D01*
X193033757Y-99485781D01*
X193141707Y-99531025D01*
X193210366Y-99544717D01*
X193282994Y-99549281D01*
X193378421Y-99539933D01*
X193469966Y-99511887D01*
X193557632Y-99465144D01*
X193617957Y-99413352D01*
X193665582Y-99343700D01*
X193696538Y-99258967D01*
X193706857Y-99161931D01*
X193696736Y-99066880D01*
X193666376Y-98988100D01*
X193620933Y-98927973D01*
X193565569Y-98888881D01*
X193502466Y-98862489D01*
X193433807Y-98840462D01*
X193365147Y-98823198D01*
X193302044Y-98811094D01*
X193201238Y-98774581D01*
X193160757Y-98703937D01*
X193194888Y-98635675D01*
X193280613Y-98611069D01*
X193365544Y-98631706D01*
X193390151Y-98652344D01*
X193408407Y-98668219D01*
X193490957Y-98699969D01*
X193547313Y-98680125D01*
X193602082Y-98620594D01*
X193640182Y-98533281D01*
X193608043Y-98482481D01*
X193770357Y-98482481D01*
X193778294Y-98549156D01*
X193810044Y-98586462D01*
X193884657Y-98598369D01*
X194189457Y-98598369D01*
X194189457Y-99395294D01*
X194191838Y-99450062D01*
X194206126Y-99491338D01*
X194247401Y-99523881D01*
X194325982Y-99533406D01*
X194405357Y-99523881D01*
X194447426Y-99491338D01*
X194461713Y-99450856D01*
X194464094Y-99396881D01*
X194464094Y-98598369D01*
X194767307Y-98598369D01*
X194848269Y-98584081D01*
X194875257Y-98549950D01*
X194883194Y-98484069D01*
X194875257Y-98417394D01*
X194843507Y-98380088D01*
X194768894Y-98368181D01*
X193886244Y-98368181D01*
X193805282Y-98382469D01*
X193778294Y-98416600D01*
X193770357Y-98482481D01*
X193608043Y-98482481D01*
X193590969Y-98455494D01*
X193551282Y-98425331D01*
X193442538Y-98375325D01*
X193359790Y-98356870D01*
X193268707Y-98350719D01*
X193157494Y-98362272D01*
X193063037Y-98396933D01*
X192985338Y-98454700D01*
X192927571Y-98527990D01*
X192892910Y-98609217D01*
X192881357Y-98698381D01*
X192891477Y-98792639D01*
X192921838Y-98872212D01*
X192967280Y-98934720D01*
X193022644Y-98977781D01*
X193085351Y-99008936D01*
X193152819Y-99035725D01*
X193220288Y-99056958D01*
X193282994Y-99071444D01*
X193383801Y-99107163D01*
X193424282Y-99168281D01*
X193407878Y-99235309D01*
X193358665Y-99275526D01*
X193276644Y-99288931D01*
X193200444Y-99264325D01*
X193136944Y-99212731D01*
X193066301Y-99153200D01*
X193013119Y-99133356D01*
X192928982Y-99171456D01*
X192877785Y-99231583D01*
X192860719Y-99278613D01*
X192747924Y-99278613D01*
X192728957Y-99235485D01*
X192692973Y-99152406D01*
X192665457Y-99087319D01*
X192731603Y-99003005D01*
X192771290Y-98904580D01*
X192784519Y-98792044D01*
X192774201Y-98693619D01*
X192743244Y-98604719D01*
X192696413Y-98529312D01*
X192638469Y-98471369D01*
X192549746Y-98414924D01*
X192459258Y-98381058D01*
X192367007Y-98369769D01*
X192024107Y-98369769D01*
X191942351Y-98380484D01*
X191900282Y-98412631D01*
X191885201Y-98454700D01*
X191882819Y-98509469D01*
X191882819Y-99390531D01*
X190997752Y-99390531D01*
X190996477Y-99388404D01*
X190957456Y-99305900D01*
X190926709Y-99219968D01*
X190904533Y-99131436D01*
X190891141Y-99041157D01*
X190886663Y-98950000D01*
X190891141Y-98858843D01*
X190904533Y-98768564D01*
X190926709Y-98680032D01*
X190957456Y-98594100D01*
X190996477Y-98511596D01*
X191043398Y-98433314D01*
X191097766Y-98360008D01*
X191159057Y-98292383D01*
X191226681Y-98231092D01*
X191299987Y-98176725D01*
X191378270Y-98129804D01*
X191460774Y-98090782D01*
X191546706Y-98060036D01*
X191635237Y-98037859D01*
X191725516Y-98024468D01*
X191816673Y-98019990D01*
X191882819Y-98019990D01*
X194883194Y-98019990D01*
X194883327Y-98019990D01*
X194974484Y-98024468D01*
G37*
G36*
X192459082Y-98686475D02*
G01*
X192505119Y-98792044D01*
X192459082Y-98896819D01*
X192367007Y-98931744D01*
X192163807Y-98931744D01*
X192163807Y-98650756D01*
X192363832Y-98650756D01*
X192459082Y-98686475D01*
G37*
%TO.C,kibuzzard-65DE3555*%
G36*
X194946064Y-100822888D02*
G01*
X195036497Y-100836302D01*
X195125180Y-100858516D01*
X195211259Y-100889316D01*
X195293904Y-100928404D01*
X195372320Y-100975405D01*
X195445751Y-101029865D01*
X195513491Y-101091261D01*
X195574886Y-101159001D01*
X195629347Y-101232432D01*
X195676348Y-101310848D01*
X195715436Y-101393493D01*
X195746235Y-101479571D01*
X195768449Y-101568254D01*
X195781864Y-101658687D01*
X195786349Y-101750000D01*
X195781864Y-101841313D01*
X195768449Y-101931746D01*
X195746235Y-102020429D01*
X195715436Y-102106507D01*
X195676348Y-102189152D01*
X195629347Y-102267568D01*
X195574886Y-102340999D01*
X195513491Y-102408739D01*
X195445751Y-102470135D01*
X195372320Y-102524595D01*
X195293904Y-102571596D01*
X195211259Y-102610684D01*
X195125180Y-102641484D01*
X195036497Y-102663698D01*
X194946064Y-102677112D01*
X194854752Y-102681598D01*
X194854619Y-102681598D01*
X194408532Y-102681598D01*
X193498101Y-102681598D01*
X192051094Y-102681598D01*
X191911394Y-102681598D01*
X191845248Y-102681598D01*
X191753936Y-102677112D01*
X191663503Y-102663698D01*
X191574820Y-102641484D01*
X191488741Y-102610684D01*
X191406096Y-102571596D01*
X191327680Y-102524595D01*
X191254249Y-102470135D01*
X191186509Y-102408739D01*
X191125114Y-102340999D01*
X191070653Y-102267568D01*
X191023652Y-102189152D01*
X191022803Y-102187356D01*
X191911394Y-102187356D01*
X191920919Y-102269906D01*
X191962988Y-102313959D01*
X192051094Y-102328644D01*
X192132851Y-102317928D01*
X192174919Y-102285781D01*
X192190001Y-102243713D01*
X192192382Y-102188944D01*
X192192382Y-102009556D01*
X192390819Y-102009556D01*
X192483953Y-101998267D01*
X192574969Y-101964401D01*
X192663869Y-101907956D01*
X192723004Y-101850211D01*
X192770232Y-101775400D01*
X192781641Y-101742856D01*
X192890882Y-101742856D01*
X192901399Y-101862117D01*
X192932951Y-101972250D01*
X192980774Y-102068294D01*
X193040107Y-102145288D01*
X193109361Y-102207597D01*
X193186951Y-102259588D01*
X193267516Y-102299672D01*
X193345701Y-102326263D01*
X193422297Y-102341145D01*
X193498101Y-102346106D01*
X193574896Y-102339756D01*
X193654469Y-102320706D01*
X193761626Y-102279431D01*
X193816394Y-102246094D01*
X193866401Y-102206406D01*
X193887832Y-102150844D01*
X193852907Y-102061944D01*
X193797741Y-101995269D01*
X193772141Y-101984156D01*
X193968794Y-101984156D01*
X193986257Y-102069881D01*
X193989432Y-102085756D01*
X194006894Y-102127031D01*
X194046185Y-102190134D01*
X194091032Y-102239744D01*
X194182754Y-102301480D01*
X194288587Y-102338522D01*
X194408532Y-102350869D01*
X194529358Y-102338610D01*
X194635721Y-102301833D01*
X194727619Y-102240537D01*
X194798175Y-102160369D01*
X194840508Y-102066971D01*
X194854619Y-101960344D01*
X194841522Y-101879381D01*
X194802232Y-101807944D01*
X194752226Y-101756350D01*
X194705394Y-101722219D01*
X194705394Y-101711106D01*
X194774186Y-101661276D01*
X194815461Y-101594337D01*
X194829219Y-101510287D01*
X194816696Y-101420770D01*
X194779125Y-101337426D01*
X194716507Y-101260256D01*
X194632193Y-101198520D01*
X194529535Y-101161478D01*
X194408532Y-101149131D01*
X194329752Y-101154687D01*
X194258513Y-101171356D01*
X194153738Y-101220569D01*
X194087857Y-101283275D01*
X194052932Y-101333281D01*
X194016419Y-101441231D01*
X194036263Y-101497984D01*
X194095794Y-101547594D01*
X194183107Y-101576169D01*
X194243432Y-101556325D01*
X194287882Y-101496794D01*
X194297407Y-101477744D01*
X194338682Y-101439644D01*
X194428376Y-101420594D01*
X194516482Y-101450756D01*
X194548232Y-101514256D01*
X194518069Y-101560691D01*
X194427582Y-101576169D01*
X194345032Y-101584106D01*
X194300979Y-101627366D01*
X194286294Y-101715869D01*
X194297010Y-101797228D01*
X194329157Y-101838106D01*
X194370432Y-101853981D01*
X194442663Y-101857156D01*
X194534738Y-101889700D01*
X194573632Y-101965106D01*
X194533944Y-102042100D01*
X194483144Y-102067698D01*
X194410119Y-102076231D01*
X194343444Y-102066706D01*
X194256132Y-101990506D01*
X194208507Y-101907956D01*
X194124369Y-101892081D01*
X194007688Y-101915100D01*
X193968794Y-101984156D01*
X193772141Y-101984156D01*
X193746544Y-101973044D01*
X193670344Y-102004794D01*
X193641769Y-102025431D01*
X193579063Y-102050831D01*
X193486194Y-102063531D01*
X193383404Y-102046069D01*
X193284582Y-101993681D01*
X193203619Y-101893669D01*
X193179807Y-101826002D01*
X193171869Y-101750000D01*
X193179807Y-101673998D01*
X193203619Y-101606331D01*
X193282994Y-101507906D01*
X193383801Y-101454328D01*
X193486194Y-101436469D01*
X193586207Y-101449963D01*
X193663994Y-101490444D01*
X193744957Y-101525369D01*
X193797344Y-101503937D01*
X193856082Y-101439644D01*
X193889419Y-101351537D01*
X193848144Y-101276131D01*
X193803694Y-101247556D01*
X193765594Y-101225331D01*
X193648913Y-101178500D01*
X193572515Y-101161236D01*
X193497307Y-101155481D01*
X193392708Y-101165006D01*
X193288462Y-101193581D01*
X193184569Y-101241206D01*
X193106583Y-101291014D01*
X193037726Y-101351537D01*
X192979186Y-101426150D01*
X192932157Y-101518225D01*
X192901201Y-101624786D01*
X192890882Y-101742856D01*
X192781641Y-101742856D01*
X192801188Y-101687095D01*
X192811507Y-101588869D01*
X192801188Y-101490444D01*
X192770232Y-101401544D01*
X192723004Y-101326137D01*
X192663869Y-101268194D01*
X192575146Y-101211749D01*
X192484658Y-101177883D01*
X192392407Y-101166594D01*
X192052682Y-101166594D01*
X191970926Y-101177309D01*
X191928857Y-101209456D01*
X191913776Y-101251525D01*
X191911394Y-101306294D01*
X191911394Y-102187356D01*
X191022803Y-102187356D01*
X190984564Y-102106507D01*
X190953765Y-102020429D01*
X190931551Y-101931746D01*
X190918136Y-101841313D01*
X190913651Y-101750000D01*
X190918136Y-101658687D01*
X190931551Y-101568254D01*
X190953765Y-101479571D01*
X190984564Y-101393493D01*
X191023652Y-101310848D01*
X191070653Y-101232432D01*
X191125114Y-101159001D01*
X191186509Y-101091261D01*
X191254249Y-101029865D01*
X191327680Y-100975405D01*
X191406096Y-100928404D01*
X191488741Y-100889316D01*
X191574820Y-100858516D01*
X191663503Y-100836302D01*
X191753936Y-100822888D01*
X191845248Y-100818402D01*
X191911394Y-100818402D01*
X194854619Y-100818402D01*
X194854752Y-100818402D01*
X194946064Y-100822888D01*
G37*
G36*
X192486069Y-101483300D02*
G01*
X192532107Y-101588869D01*
X192486069Y-101693644D01*
X192392407Y-101728569D01*
X192192382Y-101728569D01*
X192192382Y-101447581D01*
X192390819Y-101447581D01*
X192486069Y-101483300D01*
G37*
%TO.C,kibuzzard-65DE350D*%
G36*
X219538727Y-105699732D02*
G01*
X219538568Y-105699732D01*
X218801721Y-105699732D01*
X217510760Y-105699732D01*
X216003406Y-105699732D01*
X215840648Y-105699732D01*
X215761273Y-105699732D01*
X215761273Y-105110507D01*
X215840648Y-105110507D01*
X215851746Y-105206682D01*
X215900758Y-105258006D01*
X216003406Y-105275114D01*
X216098656Y-105262630D01*
X216147668Y-105225177D01*
X216165238Y-105176165D01*
X216168012Y-105112357D01*
X216168012Y-105110507D01*
X217009542Y-105110507D01*
X217031736Y-105228876D01*
X217080748Y-105263554D01*
X217172299Y-105275114D01*
X217510760Y-105275114D01*
X217646988Y-105262514D01*
X217772698Y-105224715D01*
X217887888Y-105161716D01*
X217992559Y-105073517D01*
X218079544Y-104967690D01*
X218141676Y-104851806D01*
X218178955Y-104725866D01*
X218190452Y-104600041D01*
X218283857Y-104600041D01*
X218289817Y-104729713D01*
X218307695Y-104849931D01*
X218337493Y-104960696D01*
X218377489Y-105053635D01*
X218427195Y-105132701D01*
X218492390Y-105199053D01*
X218578855Y-105253844D01*
X218683121Y-105290604D01*
X218801721Y-105302857D01*
X218919859Y-105290835D01*
X219022738Y-105254769D01*
X219107585Y-105200209D01*
X219171624Y-105132701D01*
X219234739Y-105026007D01*
X219279821Y-104901974D01*
X219306870Y-104760602D01*
X219315886Y-104601891D01*
X219309721Y-104479617D01*
X219291226Y-104361865D01*
X219260401Y-104248633D01*
X219221792Y-104155233D01*
X219172549Y-104074779D01*
X219107816Y-104006809D01*
X219022738Y-103950861D01*
X218919397Y-103913409D01*
X218910387Y-103912468D01*
X218799872Y-103900925D01*
X218679884Y-103913640D01*
X218575156Y-103951786D01*
X218488922Y-104008659D01*
X218424420Y-104077553D01*
X218373327Y-104166561D01*
X218327321Y-104283774D01*
X218303174Y-104377277D01*
X218288686Y-104482700D01*
X218283857Y-104600041D01*
X218190452Y-104600041D01*
X218191381Y-104589869D01*
X218178666Y-104454392D01*
X218151202Y-104364843D01*
X218140520Y-104330012D01*
X218076943Y-104216729D01*
X217987935Y-104114543D01*
X217882166Y-104029986D01*
X217768305Y-103969588D01*
X217646353Y-103933349D01*
X217516309Y-103921269D01*
X217174148Y-103919420D01*
X217078898Y-103931904D01*
X217029886Y-103969357D01*
X217012316Y-104017444D01*
X217009542Y-104082177D01*
X217009542Y-105110507D01*
X216168012Y-105110507D01*
X216168012Y-104903361D01*
X216399202Y-104903361D01*
X216507707Y-104890209D01*
X216613746Y-104850753D01*
X216717318Y-104784993D01*
X216786213Y-104717716D01*
X216841236Y-104630558D01*
X216877301Y-104527679D01*
X216889323Y-104413240D01*
X216877301Y-104298570D01*
X216841236Y-104194997D01*
X216786213Y-104107145D01*
X216717318Y-104039638D01*
X216613951Y-103973878D01*
X216508529Y-103934421D01*
X216401051Y-103921269D01*
X216006904Y-103921269D01*
X216005255Y-103921269D01*
X215910005Y-103933753D01*
X215860993Y-103971206D01*
X215843423Y-104020218D01*
X215840648Y-104084027D01*
X215840648Y-105110507D01*
X215761273Y-105110507D01*
X215761273Y-102726797D01*
X215841742Y-102726797D01*
X215853003Y-102824393D01*
X215902739Y-102876476D01*
X216006904Y-102893837D01*
X216103562Y-102881168D01*
X216153298Y-102843162D01*
X216171128Y-102793425D01*
X216172556Y-102760580D01*
X216980988Y-102760580D01*
X217008202Y-102824393D01*
X217089845Y-102880699D01*
X217190257Y-102912605D01*
X217250316Y-102894775D01*
X217284099Y-102860053D01*
X217313190Y-102805625D01*
X217410786Y-102602925D01*
X217930673Y-102602925D01*
X218028269Y-102805625D01*
X218057360Y-102861930D01*
X218091143Y-102897590D01*
X218151202Y-102914482D01*
X218251614Y-102882575D01*
X218333257Y-102824862D01*
X218360471Y-102760580D01*
X218328564Y-102664861D01*
X218186970Y-102372233D01*
X217987100Y-101959167D01*
X218416776Y-101959167D01*
X218475897Y-102075531D01*
X218589446Y-102141221D01*
X218720825Y-102083039D01*
X218745224Y-102060516D01*
X218745224Y-102730551D01*
X218748040Y-102799056D01*
X218765870Y-102850669D01*
X218816075Y-102887268D01*
X218910387Y-102899467D01*
X219007045Y-102886798D01*
X219056781Y-102848792D01*
X219074611Y-102799056D01*
X219077426Y-102734305D01*
X219077426Y-101688901D01*
X219068042Y-101589428D01*
X219041766Y-101549075D01*
X219008978Y-101534573D01*
X218992968Y-101527492D01*
X218903818Y-101518107D01*
X218797776Y-101566906D01*
X218792146Y-101570659D01*
X218484343Y-101848433D01*
X218416776Y-101959167D01*
X217987100Y-101959167D01*
X217821816Y-101617580D01*
X217759880Y-101544383D01*
X217671668Y-101519984D01*
X217582518Y-101546260D01*
X217519643Y-101615704D01*
X217012894Y-102664861D01*
X216980988Y-102760580D01*
X216172556Y-102760580D01*
X216173944Y-102728674D01*
X216173944Y-102516590D01*
X216408550Y-102516590D01*
X216518658Y-102503244D01*
X216626264Y-102463204D01*
X216731367Y-102396472D01*
X216801280Y-102328202D01*
X216857116Y-102239755D01*
X216893715Y-102135356D01*
X216905914Y-102019226D01*
X216893715Y-101902861D01*
X216857116Y-101797758D01*
X216801280Y-101708607D01*
X216731367Y-101640103D01*
X216626472Y-101573370D01*
X216519492Y-101533331D01*
X216410426Y-101519984D01*
X216010508Y-101519984D01*
X216008781Y-101519984D01*
X215912123Y-101532653D01*
X215862387Y-101570659D01*
X215844557Y-101620396D01*
X215841742Y-101685147D01*
X215841742Y-102726797D01*
X215761273Y-102726797D01*
X215761273Y-100343013D01*
X215842868Y-100343013D01*
X215854298Y-100442073D01*
X215904780Y-100494937D01*
X216010508Y-100512558D01*
X216108615Y-100499700D01*
X216159098Y-100461123D01*
X216177195Y-100410641D01*
X216178645Y-100377303D01*
X216999203Y-100377303D01*
X217026825Y-100442073D01*
X217109693Y-100499223D01*
X217211610Y-100531608D01*
X217272570Y-100513511D01*
X217306860Y-100478268D01*
X217336388Y-100423023D01*
X217435448Y-100217283D01*
X217963133Y-100217283D01*
X218062193Y-100423023D01*
X218091720Y-100480173D01*
X218126010Y-100516368D01*
X218186970Y-100533513D01*
X218288888Y-100501128D01*
X218371755Y-100442550D01*
X218399378Y-100377303D01*
X218366993Y-100280148D01*
X218143002Y-99817233D01*
X218475578Y-99817233D01*
X218481716Y-99950795D01*
X218500131Y-100074620D01*
X218530823Y-100188708D01*
X218572018Y-100284435D01*
X218623215Y-100365873D01*
X218690367Y-100434215D01*
X218779425Y-100490651D01*
X218886820Y-100528513D01*
X219008978Y-100541133D01*
X219130660Y-100528751D01*
X219236625Y-100491603D01*
X219324017Y-100435406D01*
X219389978Y-100365873D01*
X219454986Y-100255979D01*
X219501420Y-100128225D01*
X219529281Y-99982611D01*
X219538568Y-99819138D01*
X219532218Y-99693197D01*
X219513168Y-99571912D01*
X219481418Y-99455283D01*
X219441651Y-99359081D01*
X219390930Y-99276213D01*
X219324255Y-99206205D01*
X219236625Y-99148578D01*
X219130183Y-99110002D01*
X219007073Y-99097143D01*
X218883486Y-99110240D01*
X218775615Y-99149531D01*
X218686795Y-99208110D01*
X218620358Y-99279071D01*
X218567732Y-99370749D01*
X218520345Y-99491478D01*
X218495475Y-99587787D01*
X218480552Y-99696372D01*
X218475578Y-99817233D01*
X218143002Y-99817233D01*
X217852643Y-99217158D01*
X217789778Y-99142863D01*
X217700243Y-99118098D01*
X217609755Y-99144768D01*
X217545938Y-99215253D01*
X217031588Y-100280148D01*
X216999203Y-100377303D01*
X216178645Y-100377303D01*
X216180053Y-100344918D01*
X216180053Y-100129653D01*
X216418178Y-100129653D01*
X216529938Y-100116107D01*
X216639158Y-100075467D01*
X216745838Y-100007733D01*
X216816799Y-99938439D01*
X216873473Y-99848666D01*
X216910620Y-99742700D01*
X216923003Y-99624828D01*
X216910620Y-99506718D01*
X216873473Y-99400038D01*
X216816799Y-99309551D01*
X216745838Y-99240018D01*
X216639370Y-99172285D01*
X216530785Y-99131645D01*
X216420083Y-99118098D01*
X216012413Y-99118098D01*
X215914305Y-99130957D01*
X215863823Y-99169533D01*
X215845725Y-99220016D01*
X215842868Y-99285738D01*
X215842868Y-100343013D01*
X215761273Y-100343013D01*
X215761273Y-98700268D01*
X215840648Y-98700268D01*
X219538568Y-98700268D01*
X219538727Y-98700268D01*
X219538727Y-105699732D01*
G37*
G36*
X217646006Y-104273833D02*
G01*
X217759520Y-104349432D01*
X217837893Y-104462483D01*
X217864017Y-104600041D01*
X217837199Y-104737136D01*
X217756746Y-104848801D01*
X217643000Y-104923013D01*
X217516309Y-104947750D01*
X217336906Y-104947750D01*
X217336906Y-104248633D01*
X217514459Y-104248633D01*
X217646006Y-104273833D01*
G37*
G36*
X219092083Y-99458260D02*
G01*
X219152805Y-99530055D01*
X219189238Y-99649712D01*
X219201383Y-99817233D01*
X219201383Y-99828663D01*
X219189119Y-99992017D01*
X219152329Y-100108698D01*
X219091012Y-100178707D01*
X219005168Y-100202043D01*
X218920991Y-100178052D01*
X218860864Y-100106079D01*
X218824788Y-99986124D01*
X218812763Y-99818186D01*
X218824907Y-99650248D01*
X218861340Y-99530293D01*
X218922062Y-99458319D01*
X219007073Y-99434328D01*
X219092083Y-99458260D01*
G37*
G36*
X218882406Y-104251523D02*
G01*
X218941360Y-104321227D01*
X218976732Y-104437399D01*
X218988522Y-104600041D01*
X218988522Y-104611138D01*
X218976616Y-104769734D01*
X218940897Y-104883017D01*
X218881366Y-104950986D01*
X218798022Y-104973643D01*
X218716297Y-104950351D01*
X218657921Y-104880474D01*
X218622896Y-104764012D01*
X218611221Y-104600966D01*
X218623012Y-104437920D01*
X218658384Y-104321458D01*
X218717337Y-104251581D01*
X218799872Y-104228289D01*
X218882406Y-104251523D01*
G37*
G36*
X216532478Y-99498146D02*
G01*
X216587723Y-99624828D01*
X216532478Y-99750558D01*
X216420083Y-99792468D01*
X216180053Y-99792468D01*
X216180053Y-99455283D01*
X216418178Y-99455283D01*
X216532478Y-99498146D01*
G37*
G36*
X216521160Y-101894415D02*
G01*
X216575589Y-102019226D01*
X216521160Y-102143098D01*
X216410426Y-102184388D01*
X216173944Y-102184388D01*
X216173944Y-101852186D01*
X216408550Y-101852186D01*
X216521160Y-101894415D01*
G37*
G36*
X216510173Y-104290247D02*
G01*
X216563809Y-104413240D01*
X216510173Y-104535308D01*
X216401051Y-104575997D01*
X216168012Y-104575997D01*
X216168012Y-104248633D01*
X216399202Y-104248633D01*
X216510173Y-104290247D01*
G37*
G36*
X217825973Y-99935343D02*
G01*
X217572608Y-99935343D01*
X217698338Y-99674358D01*
X217825973Y-99935343D01*
G37*
G36*
X217795540Y-102325152D02*
G01*
X217545919Y-102325152D01*
X217669791Y-102068024D01*
X217795540Y-102325152D01*
G37*
D13*
%TO.C,J3*%
X219470000Y-105885000D02*
X222130000Y-105885000D01*
X219470000Y-100745000D02*
X219470000Y-105885000D01*
X219470000Y-99475000D02*
X219470000Y-98145000D01*
X222130000Y-100745000D02*
X222130000Y-105885000D01*
X219470000Y-98145000D02*
X220800000Y-98145000D01*
X219470000Y-100745000D02*
X222130000Y-100745000D01*
%TO.C,J2*%
X219520000Y-87060000D02*
X219520000Y-76840000D01*
X222180000Y-89660000D02*
X220850000Y-89660000D01*
X222180000Y-87060000D02*
X222180000Y-76840000D01*
X222180000Y-76840000D02*
X219520000Y-76840000D01*
X222180000Y-87060000D02*
X219520000Y-87060000D01*
X222180000Y-88330000D02*
X222180000Y-89660000D01*
D10*
%TO.C,SW1*%
X191700000Y-103100000D02*
X192900000Y-103100000D01*
X191700000Y-105100000D02*
X191700000Y-104300000D01*
X192900000Y-106300000D02*
X191700000Y-106300000D01*
X194100000Y-103100000D02*
X195300000Y-103100000D01*
X195300000Y-104300000D02*
X195300000Y-105100000D01*
X195300000Y-106300000D02*
X194100000Y-106300000D01*
D13*
%TO.C,U2*%
X198090000Y-81350000D02*
X198090000Y-75340000D01*
X204910000Y-79100000D02*
X204910000Y-75340000D01*
X198090000Y-75340000D02*
X199350000Y-75340000D01*
X204910000Y-75340000D02*
X203650000Y-75340000D01*
D10*
%TO.C,SW4*%
X191700000Y-94600000D02*
X192900000Y-94600000D01*
X191700000Y-96600000D02*
X191700000Y-95800000D01*
X192900000Y-97800000D02*
X191700000Y-97800000D01*
X194100000Y-94600000D02*
X195300000Y-94600000D01*
X195300000Y-95800000D02*
X195300000Y-96600000D01*
X195300000Y-97800000D02*
X194100000Y-97800000D01*
D13*
%TO.C,C7*%
X183538748Y-89465000D02*
X184061252Y-89465000D01*
X183538748Y-90935000D02*
X184061252Y-90935000D01*
%TO.C,R1*%
X194760436Y-90865000D02*
X195214564Y-90865000D01*
X194760436Y-92335000D02*
X195214564Y-92335000D01*
%TO.C,C5*%
X190038748Y-92335000D02*
X190561252Y-92335000D01*
X190038748Y-90865000D02*
X190561252Y-90865000D01*
%TO.C,J4*%
X178670000Y-106930000D02*
X178670000Y-105600000D01*
X180000000Y-106930000D02*
X178670000Y-106930000D01*
X181270000Y-106930000D02*
X188950000Y-106930000D01*
X181270000Y-106930000D02*
X181270000Y-104270000D01*
X188950000Y-106930000D02*
X188950000Y-104270000D01*
X181270000Y-104270000D02*
X188950000Y-104270000D01*
D10*
%TO.C,J6*%
X199550000Y-93250000D02*
X214300000Y-93250000D01*
X214300000Y-93250000D02*
X214300000Y-107750000D01*
X214300000Y-107750000D02*
X199550000Y-107750000D01*
X199550000Y-107750000D02*
X199550000Y-93250000D01*
D13*
%TO.C,C2*%
X190761252Y-89235000D02*
X190238748Y-89235000D01*
X190761252Y-87765000D02*
X190238748Y-87765000D01*
D10*
%TO.C,U1*%
X189525000Y-81825000D02*
X189525000Y-82050000D01*
X189525000Y-81825000D02*
X192875000Y-81825000D01*
X189525000Y-82050000D02*
X188300000Y-82050000D01*
X189525000Y-85175000D02*
X189525000Y-84875000D01*
X189525000Y-85175000D02*
X192875000Y-85175000D01*
X192875000Y-81825000D02*
X192875000Y-82125000D01*
X192875000Y-85175000D02*
X192875000Y-84875000D01*
%TO.C,D5*%
X182762500Y-100800000D02*
X182762500Y-100750000D01*
X182762500Y-100750000D02*
X182262500Y-100750000D01*
X182262500Y-100750000D02*
X182262500Y-99750000D01*
X182262500Y-99750000D02*
X182212500Y-99750000D01*
X182212500Y-100800000D02*
X182762500Y-100800000D01*
X182212500Y-100800000D02*
X182212500Y-99800000D01*
D13*
%TO.C,C6*%
X208188748Y-83265000D02*
X208711252Y-83265000D01*
X208188748Y-84735000D02*
X208711252Y-84735000D01*
%TO.C,C1*%
X190961252Y-79835000D02*
X190438748Y-79835000D01*
X190961252Y-78365000D02*
X190438748Y-78365000D01*
%TO.C,RN2*%
X186162500Y-100280000D02*
X187162500Y-100280000D01*
X186162500Y-96920000D02*
X187162500Y-96920000D01*
%TO.C,U4*%
X210637500Y-85585000D02*
X207187500Y-85585000D01*
X210637500Y-85585000D02*
X212587500Y-85585000D01*
X210637500Y-90705000D02*
X208687500Y-90705000D01*
X210637500Y-90705000D02*
X212587500Y-90705000D01*
%TO.C,C8*%
X194788748Y-87765000D02*
X195311252Y-87765000D01*
X194788748Y-89235000D02*
X195311252Y-89235000D01*
%TO.C,RN1*%
X186910000Y-76200000D02*
X186910000Y-75200000D01*
X183550000Y-76200000D02*
X183550000Y-75200000D01*
%TO.C,SW2*%
X195850000Y-72500000D02*
X195850000Y-71710000D01*
X195250000Y-70700000D02*
X189550000Y-70700000D01*
X194000000Y-73550000D02*
X192300000Y-73550000D01*
X193800000Y-70700000D02*
X193800000Y-69410000D01*
X193800000Y-69410000D02*
X193600000Y-69200000D01*
X193600000Y-69200000D02*
X192700000Y-69200000D01*
X192500000Y-69410000D02*
X192700000Y-69200000D01*
X192500000Y-69410000D02*
X192500000Y-70700000D01*
X191000000Y-73550000D02*
X190800000Y-73550000D01*
X188950000Y-71710000D02*
X188950000Y-72500000D01*
%TO.C,U3*%
X201462500Y-83965000D02*
X197862500Y-83965000D01*
X201462500Y-83965000D02*
X203662500Y-83965000D01*
X201462500Y-90735000D02*
X199262500Y-90735000D01*
X201462500Y-90735000D02*
X203662500Y-90735000D01*
%TO.C,C3*%
X206165000Y-80161252D02*
X206165000Y-79638748D01*
X207635000Y-80161252D02*
X207635000Y-79638748D01*
%TO.C,C4*%
X195461252Y-79835000D02*
X194938748Y-79835000D01*
X195461252Y-78365000D02*
X194938748Y-78365000D01*
D10*
%TO.C,D1*%
X182762500Y-98400000D02*
X182762500Y-98350000D01*
X182762500Y-98350000D02*
X182262500Y-98350000D01*
X182262500Y-98350000D02*
X182262500Y-97350000D01*
X182262500Y-97350000D02*
X182212500Y-97350000D01*
X182212500Y-98400000D02*
X182762500Y-98400000D01*
X182212500Y-98400000D02*
X182212500Y-97400000D01*
%TD*%
M02*
